<svg xmlns="http://www.w3.org/2000/svg" xmlns:xlink="http://www.w3.org/1999/xlink" width="1920" zoomAndPan="magnify" viewBox="0 0 1440 809.999993" height="1080" preserveAspectRatio="xMidYMid meet" version="1.0"><defs><g/><clipPath id="f0f0115c5f"><path d="M 376 251 L 378 251 L 378 252.570312 L 376 252.570312 Z M 376 251 " clip-rule="nonzero"/></clipPath><clipPath id="66fca8cc4f"><path d="M 373 80 L 405.703125 80 L 405.703125 102 L 373 102 Z M 373 80 " clip-rule="nonzero"/></clipPath><clipPath id="e82512e8cc"><path d="M 219.703125 68.070312 L 380 68.070312 L 380 193 L 219.703125 193 Z M 219.703125 68.070312 " clip-rule="nonzero"/></clipPath></defs><rect x="-144" width="1728" fill="#ffffff" y="-80.999999" height="971.999992" fill-opacity="1"/><rect x="-144" width="1728" fill="#ffffff" y="-80.999999" height="971.999992" fill-opacity="1"/><rect x="-144" width="1728" fill="#ffffff" y="-80.999999" height="971.999992" fill-opacity="1"/><g fill="#000000" fill-opacity="1"><g transform="translate(282.898, 484.932925)"><g><path d="M 25.4375 -33.6875 L 25.4375 -12.484375 C 25.4375 -9.503906 25.75 -7.34375 26.375 -6 C 27.007812 -4.664062 28.109375 -3.765625 29.671875 -3.296875 C 31.242188 -2.828125 33.800781 -2.515625 37.34375 -2.359375 L 37.34375 0 C 33.257812 -0.238281 27.484375 -0.359375 20.015625 -0.359375 C 13.265625 -0.359375 8.242188 -0.238281 4.953125 0 L 4.953125 -2.359375 C 7.773438 -2.515625 9.832031 -2.828125 11.125 -3.296875 C 12.425781 -3.765625 13.3125 -4.664062 13.78125 -6 C 14.25 -7.34375 14.484375 -9.503906 14.484375 -12.484375 L 14.484375 -70.90625 C 14.484375 -73.882812 14.25 -76.039062 13.78125 -77.375 C 13.3125 -78.71875 12.425781 -79.625 11.125 -80.09375 C 9.832031 -80.5625 7.773438 -80.875 4.953125 -81.03125 L 4.953125 -83.390625 C 8.242188 -83.148438 13.03125 -83.03125 19.3125 -83.03125 L 32.03125 -83.15625 C 33.53125 -83.226562 35.21875 -83.265625 37.09375 -83.265625 C 46.28125 -83.265625 53.304688 -81.164062 58.171875 -76.96875 C 63.046875 -72.769531 65.484375 -67.132812 65.484375 -60.0625 C 65.484375 -55.75 64.519531 -51.609375 62.59375 -47.640625 C 60.675781 -43.671875 57.421875 -40.351562 52.828125 -37.6875 C 48.234375 -35.019531 42.128906 -33.6875 34.515625 -33.6875 Z M 34.15625 -81.03125 C 31.71875 -81.03125 29.890625 -80.753906 28.671875 -80.203125 C 27.460938 -79.660156 26.617188 -78.679688 26.140625 -77.265625 C 25.671875 -75.847656 25.4375 -73.726562 25.4375 -70.90625 L 25.4375 -36.046875 L 33.328125 -36.046875 C 41.023438 -36.046875 46.34375 -38.101562 49.28125 -42.21875 C 52.226562 -46.34375 53.703125 -51.859375 53.703125 -58.765625 C 53.703125 -66.390625 52.191406 -72.003906 49.171875 -75.609375 C 46.148438 -79.222656 41.144531 -81.03125 34.15625 -81.03125 Z M 34.15625 -81.03125 "/></g></g></g><g fill="#000000" fill-opacity="1"><g transform="translate(351.794446, 484.932925)"><g><path d="M 19.203125 0.828125 C 14.253906 0.828125 10.582031 -0.40625 8.1875 -2.875 C 5.789062 -5.351562 4.59375 -8.789062 4.59375 -13.1875 C 4.59375 -16.71875 5.550781 -19.625 7.46875 -21.90625 C 9.394531 -24.1875 11.671875 -25.992188 14.296875 -27.328125 C 16.929688 -28.660156 20.410156 -30.070312 24.734375 -31.5625 C 29.128906 -33.050781 32.382812 -34.425781 34.5 -35.6875 C 36.625 -36.945312 37.6875 -38.632812 37.6875 -40.75 L 37.6875 -48.0625 C 37.6875 -52.613281 36.722656 -55.734375 34.796875 -57.421875 C 32.878906 -59.109375 30.191406 -59.953125 26.734375 -59.953125 C 21.234375 -59.953125 17.347656 -58.535156 15.078125 -55.703125 C 16.648438 -55.316406 17.960938 -54.492188 19.015625 -53.234375 C 20.078125 -51.984375 20.609375 -50.414062 20.609375 -48.53125 C 20.609375 -46.5625 19.976562 -45.007812 18.71875 -43.875 C 17.46875 -42.738281 15.859375 -42.171875 13.890625 -42.171875 C 11.691406 -42.171875 10.039062 -42.851562 8.9375 -44.21875 C 7.84375 -45.59375 7.296875 -47.265625 7.296875 -49.234375 C 7.296875 -51.117188 7.75 -52.6875 8.65625 -53.9375 C 9.5625 -55.195312 10.914062 -56.457031 12.71875 -57.71875 C 14.601562 -59.050781 17 -60.148438 19.90625 -61.015625 C 22.8125 -61.878906 25.988281 -62.3125 29.4375 -62.3125 C 35.5625 -62.3125 40.195312 -60.859375 43.34375 -57.953125 C 45.300781 -56.140625 46.613281 -53.957031 47.28125 -51.40625 C 47.957031 -48.851562 48.296875 -45.5 48.296875 -41.34375 L 48.296875 -8.59375 C 48.296875 -6.632812 48.566406 -5.222656 49.109375 -4.359375 C 49.660156 -3.492188 50.601562 -3.0625 51.9375 -3.0625 C 52.882812 -3.0625 53.769531 -3.273438 54.59375 -3.703125 C 55.414062 -4.140625 56.296875 -4.75 57.234375 -5.53125 L 58.53125 -3.53125 C 56.488281 -1.957031 54.738281 -0.835938 53.28125 -0.171875 C 51.832031 0.492188 50.007812 0.828125 47.8125 0.828125 C 44.050781 0.828125 41.421875 -0.113281 39.921875 -2 C 38.429688 -3.882812 37.6875 -6.4375 37.6875 -9.65625 C 35.332031 -5.726562 32.625 -3 29.5625 -1.46875 C 26.5 0.0625 23.046875 0.828125 19.203125 0.828125 Z M 24.375 -3.890625 C 29.5625 -3.890625 34 -6.875 37.6875 -12.84375 L 37.6875 -35.921875 C 36.976562 -34.828125 35.992188 -33.925781 34.734375 -33.21875 C 33.484375 -32.507812 31.5625 -31.566406 28.96875 -30.390625 C 25.988281 -29.128906 23.578125 -27.929688 21.734375 -26.796875 C 19.890625 -25.660156 18.296875 -24.109375 16.953125 -22.140625 C 15.617188 -20.179688 14.953125 -17.671875 14.953125 -14.609375 C 14.953125 -11.078125 15.816406 -8.40625 17.546875 -6.59375 C 19.273438 -4.789062 21.550781 -3.890625 24.375 -3.890625 Z M 24.375 -3.890625 "/></g></g></g><g fill="#000000" fill-opacity="1"><g transform="translate(410.444756, 484.932925)"><g><path d="M 22.375 -60.546875 L 39.8125 -60.546875 L 39.8125 -58.1875 L 22.375 -58.1875 L 22.375 -12.609375 C 22.375 -9.066406 23.019531 -6.507812 24.3125 -4.9375 C 25.613281 -3.375 27.484375 -2.59375 29.921875 -2.59375 C 32.347656 -2.59375 34.425781 -3.570312 36.15625 -5.53125 C 37.882812 -7.5 39.335938 -10.71875 40.515625 -15.1875 L 42.875 -14.609375 C 40.90625 -3.765625 35.800781 1.65625 27.5625 1.65625 C 24.894531 1.65625 22.695312 1.335938 20.96875 0.703125 C 19.238281 0.078125 17.707031 -0.898438 16.375 -2.234375 C 14.644531 -3.960938 13.445312 -6.082031 12.78125 -8.59375 C 12.113281 -11.101562 11.78125 -14.484375 11.78125 -18.734375 L 11.78125 -58.1875 L 0.46875 -58.1875 L 0.46875 -60.546875 L 11.78125 -60.546875 L 11.78125 -78.5625 C 16.175781 -78.71875 19.707031 -79.265625 22.375 -80.203125 Z M 22.375 -60.546875 "/></g></g></g><g fill="#000000" fill-opacity="1"><g transform="translate(452.135934, 484.932925)"><g><path d="M 21.90625 -48.171875 C 23.875 -53.117188 26.601562 -56.710938 30.09375 -58.953125 C 33.582031 -61.191406 37.53125 -62.3125 41.9375 -62.3125 C 47.425781 -62.3125 51.585938 -60.816406 54.421875 -57.828125 C 55.910156 -56.253906 56.96875 -54.289062 57.59375 -51.9375 C 58.21875 -49.582031 58.53125 -46.40625 58.53125 -42.40625 L 58.53125 -10.953125 C 58.53125 -7.734375 59.195312 -5.515625 60.53125 -4.296875 C 61.875 -3.078125 64.191406 -2.46875 67.484375 -2.46875 L 67.484375 0 C 60.265625 -0.3125 55.554688 -0.46875 53.359375 -0.46875 C 51.160156 -0.46875 46.757812 -0.3125 40.15625 0 L 40.15625 -2.46875 C 43.0625 -2.46875 45.082031 -3.078125 46.21875 -4.296875 C 47.363281 -5.515625 47.9375 -7.734375 47.9375 -10.953125 L 47.9375 -45 C 47.9375 -49.394531 47.304688 -52.75 46.046875 -55.0625 C 44.796875 -57.375 42.242188 -58.53125 38.390625 -58.53125 C 35.171875 -58.53125 32.320312 -57.628906 29.84375 -55.828125 C 27.375 -54.023438 25.429688 -51.492188 24.015625 -48.234375 C 22.609375 -44.972656 21.90625 -41.300781 21.90625 -37.21875 L 21.90625 -10.953125 C 21.90625 -7.734375 22.472656 -5.515625 23.609375 -4.296875 C 24.753906 -3.078125 26.78125 -2.46875 29.6875 -2.46875 L 29.6875 0 C 23.082031 -0.3125 18.679688 -0.46875 16.484375 -0.46875 C 14.285156 -0.46875 9.578125 -0.3125 2.359375 0 L 2.359375 -2.46875 C 5.648438 -2.46875 7.960938 -3.078125 9.296875 -4.296875 C 10.640625 -5.515625 11.3125 -7.734375 11.3125 -10.953125 L 11.3125 -78.09375 C 11.3125 -81.695312 10.640625 -84.320312 9.296875 -85.96875 C 7.960938 -87.625 5.648438 -88.453125 2.359375 -88.453125 L 2.359375 -90.921875 C 4.867188 -90.691406 7.300781 -90.578125 9.65625 -90.578125 C 14.601562 -90.578125 18.6875 -91.125 21.90625 -92.21875 Z M 21.90625 -48.171875 "/></g></g></g><g fill="#000000" fill-opacity="1"><g transform="translate(521.38571, 484.932925)"><g><path d="M 32.265625 -62.3125 C 40.273438 -62.3125 46.734375 -59.660156 51.640625 -54.359375 C 56.554688 -49.054688 59.015625 -41.023438 59.015625 -30.265625 C 59.015625 -19.515625 56.554688 -11.503906 51.640625 -6.234375 C 46.734375 -0.972656 40.273438 1.65625 32.265625 1.65625 C 24.265625 1.65625 17.804688 -0.972656 12.890625 -6.234375 C 7.984375 -11.503906 5.53125 -19.515625 5.53125 -30.265625 C 5.53125 -41.023438 7.984375 -49.054688 12.890625 -54.359375 C 17.804688 -59.660156 24.265625 -62.3125 32.265625 -62.3125 Z M 32.265625 -59.953125 C 27.554688 -59.953125 23.828125 -57.535156 21.078125 -52.703125 C 18.328125 -47.878906 16.953125 -40.398438 16.953125 -30.265625 C 16.953125 -20.140625 18.328125 -12.679688 21.078125 -7.890625 C 23.828125 -3.097656 27.554688 -0.703125 32.265625 -0.703125 C 36.984375 -0.703125 40.710938 -3.097656 43.453125 -7.890625 C 46.203125 -12.679688 47.578125 -20.140625 47.578125 -30.265625 C 47.578125 -40.398438 46.203125 -47.878906 43.453125 -52.703125 C 40.710938 -57.535156 36.984375 -59.953125 32.265625 -59.953125 Z M 32.265625 -59.953125 "/></g></g></g><g fill="#000000" fill-opacity="1"><g transform="translate(585.924602, 484.932925)"><g><path d="M 40.984375 -62.3125 C 45.148438 -62.3125 48.898438 -61.171875 52.234375 -58.890625 C 55.566406 -56.609375 58.175781 -53.269531 60.0625 -48.875 C 61.945312 -44.476562 62.890625 -39.21875 62.890625 -33.09375 C 62.890625 -27.050781 61.925781 -21.398438 60 -16.140625 C 58.082031 -10.878906 55.101562 -6.597656 51.0625 -3.296875 C 47.019531 0.00390625 41.972656 1.65625 35.921875 1.65625 C 32.941406 1.65625 30.234375 1.066406 27.796875 -0.109375 C 25.359375 -1.296875 23.472656 -2.832031 22.140625 -4.71875 L 22.140625 10.359375 C 22.140625 13.578125 23.082031 15.796875 24.96875 17.015625 C 26.851562 18.234375 29.679688 18.84375 33.453125 18.84375 L 33.453125 21.3125 L 30.734375 21.203125 C 23.429688 20.960938 18.679688 20.84375 16.484375 20.84375 C 14.597656 20.84375 10.359375 21 3.765625 21.3125 L 3.765625 18.84375 C 6.671875 18.84375 8.691406 18.3125 9.828125 17.25 C 10.972656 16.195312 11.546875 14.296875 11.546875 11.546875 L 11.546875 -47.8125 C 11.546875 -51.425781 10.875 -54.054688 9.53125 -55.703125 C 8.195312 -57.359375 5.882812 -58.1875 2.59375 -58.1875 L 2.59375 -60.65625 C 5.03125 -60.414062 7.460938 -60.296875 9.890625 -60.296875 C 14.835938 -60.296875 18.921875 -60.847656 22.140625 -61.953125 L 22.140625 -49.46875 C 23.867188 -53.550781 26.378906 -56.710938 29.671875 -58.953125 C 32.972656 -61.191406 36.742188 -62.3125 40.984375 -62.3125 Z M 34.625 -1.0625 C 45.851562 -1.0625 51.46875 -11.191406 51.46875 -31.453125 C 51.46875 -49.660156 46.914062 -58.765625 37.8125 -58.765625 C 34.269531 -58.765625 31.085938 -57.488281 28.265625 -54.9375 C 25.441406 -52.382812 23.398438 -48.71875 22.140625 -43.9375 L 22.140625 -8.59375 C 23.242188 -6.320312 24.851562 -4.5 26.96875 -3.125 C 29.09375 -1.75 31.644531 -1.0625 34.625 -1.0625 Z M 34.625 -1.0625 "/></g></g></g><g fill="#000000" fill-opacity="1"><g transform="translate(654.34996, 484.932925)"><g><path d="M 21.90625 -48.171875 C 23.875 -53.117188 26.601562 -56.710938 30.09375 -58.953125 C 33.582031 -61.191406 37.53125 -62.3125 41.9375 -62.3125 C 47.425781 -62.3125 51.585938 -60.816406 54.421875 -57.828125 C 55.910156 -56.253906 56.96875 -54.289062 57.59375 -51.9375 C 58.21875 -49.582031 58.53125 -46.40625 58.53125 -42.40625 L 58.53125 -10.953125 C 58.53125 -7.734375 59.195312 -5.515625 60.53125 -4.296875 C 61.875 -3.078125 64.191406 -2.46875 67.484375 -2.46875 L 67.484375 0 C 60.265625 -0.3125 55.554688 -0.46875 53.359375 -0.46875 C 51.160156 -0.46875 46.757812 -0.3125 40.15625 0 L 40.15625 -2.46875 C 43.0625 -2.46875 45.082031 -3.078125 46.21875 -4.296875 C 47.363281 -5.515625 47.9375 -7.734375 47.9375 -10.953125 L 47.9375 -45 C 47.9375 -49.394531 47.304688 -52.75 46.046875 -55.0625 C 44.796875 -57.375 42.242188 -58.53125 38.390625 -58.53125 C 35.171875 -58.53125 32.320312 -57.628906 29.84375 -55.828125 C 27.375 -54.023438 25.429688 -51.492188 24.015625 -48.234375 C 22.609375 -44.972656 21.90625 -41.300781 21.90625 -37.21875 L 21.90625 -10.953125 C 21.90625 -7.734375 22.472656 -5.515625 23.609375 -4.296875 C 24.753906 -3.078125 26.78125 -2.46875 29.6875 -2.46875 L 29.6875 0 C 23.082031 -0.3125 18.679688 -0.46875 16.484375 -0.46875 C 14.285156 -0.46875 9.578125 -0.3125 2.359375 0 L 2.359375 -2.46875 C 5.648438 -2.46875 7.960938 -3.078125 9.296875 -4.296875 C 10.640625 -5.515625 11.3125 -7.734375 11.3125 -10.953125 L 11.3125 -78.09375 C 11.3125 -81.695312 10.640625 -84.320312 9.296875 -85.96875 C 7.960938 -87.625 5.648438 -88.453125 2.359375 -88.453125 L 2.359375 -90.921875 C 4.867188 -90.691406 7.300781 -90.578125 9.65625 -90.578125 C 14.601562 -90.578125 18.6875 -91.125 21.90625 -92.21875 Z M 21.90625 -48.171875 "/></g></g></g><g fill="#000000" fill-opacity="1"><g transform="translate(723.599711, 484.932925)"><g><path d="M 49.234375 -60.296875 C 52.691406 -60.296875 55.675781 -60.414062 58.1875 -60.65625 L 58.1875 -58.296875 C 56.613281 -58.140625 55.21875 -57.429688 54 -56.171875 C 52.78125 -54.921875 51.625 -52.882812 50.53125 -50.0625 L 31.21875 0.59375 L 27.203125 10.828125 C 25.710938 14.679688 24.023438 17.429688 22.140625 19.078125 C 20.960938 20.179688 19.546875 20.96875 17.890625 21.4375 C 16.242188 21.90625 14.597656 22.140625 12.953125 22.140625 C 10.597656 22.140625 8.675781 21.507812 7.1875 20.25 C 5.695312 19 4.953125 17.273438 4.953125 15.078125 C 4.953125 13.191406 5.5 11.675781 6.59375 10.53125 C 7.695312 9.394531 9.226562 8.828125 11.1875 8.828125 C 12.914062 8.828125 14.347656 9.316406 15.484375 10.296875 C 16.628906 11.285156 17.203125 12.644531 17.203125 14.375 C 17.203125 16.726562 16.140625 18.492188 14.015625 19.671875 C 14.171875 19.742188 14.40625 19.78125 14.71875 19.78125 C 19.039062 19.78125 22.378906 16.71875 24.734375 10.59375 L 28.859375 -0.125 L 7.53125 -51.59375 C 6.195312 -54.257812 4.863281 -56.023438 3.53125 -56.890625 C 2.195312 -57.753906 0.863281 -58.1875 -0.46875 -58.1875 L -0.46875 -60.65625 C 2.90625 -60.1875 6.753906 -59.953125 11.078125 -59.953125 C 14.992188 -59.953125 20.097656 -60.1875 26.390625 -60.65625 L 26.390625 -58.1875 C 23.554688 -58.1875 21.488281 -57.945312 20.1875 -57.46875 C 18.894531 -57 18.25 -55.863281 18.25 -54.0625 C 18.25 -52.414062 18.722656 -50.492188 19.671875 -48.296875 L 33.796875 -13.1875 L 46.875 -47.234375 C 47.738281 -49.585938 48.171875 -51.390625 48.171875 -52.640625 C 48.171875 -54.453125 47.460938 -55.789062 46.046875 -56.65625 C 44.640625 -57.519531 42.40625 -58.066406 39.34375 -58.296875 L 39.34375 -60.65625 C 43.5 -60.414062 46.796875 -60.296875 49.234375 -60.296875 Z M 49.234375 -60.296875 "/></g></g></g><g fill="#000000" fill-opacity="1"><g transform="translate(782.956654, 484.932925)"><g><path d="M 24.5 -62.3125 C 27.320312 -62.3125 29.832031 -61.878906 32.03125 -61.015625 C 34.226562 -60.148438 36 -59.128906 37.34375 -57.953125 C 38.195312 -57.316406 38.898438 -57 39.453125 -57 C 40.867188 -57 41.734375 -58.726562 42.046875 -62.1875 L 44.75 -62.1875 C 44.4375 -58.34375 44.28125 -51.671875 44.28125 -42.171875 L 41.578125 -42.171875 C 40.710938 -47.347656 39.039062 -51.625 36.5625 -55 C 34.09375 -58.375 30.425781 -60.0625 25.5625 -60.0625 C 22.726562 -60.0625 20.410156 -59.253906 18.609375 -57.640625 C 16.804688 -56.035156 15.90625 -53.820312 15.90625 -51 C 15.90625 -48.25 16.84375 -45.953125 18.71875 -44.109375 C 20.601562 -42.265625 23.628906 -40.046875 27.796875 -37.453125 C 28.503906 -37.054688 29.5625 -36.390625 30.96875 -35.453125 C 34.582031 -33.097656 37.488281 -31.015625 39.6875 -29.203125 C 41.882812 -27.398438 43.671875 -25.320312 45.046875 -22.96875 C 46.421875 -20.613281 47.109375 -17.90625 47.109375 -14.84375 C 47.109375 -9.65625 45.164062 -5.609375 41.28125 -2.703125 C 37.394531 0.203125 32.625 1.65625 26.96875 1.65625 C 23.4375 1.65625 20.335938 1.101562 17.671875 0 C 15.941406 -0.863281 14.332031 -1.925781 12.84375 -3.1875 C 12.519531 -3.5 12.164062 -3.65625 11.78125 -3.65625 C 11.226562 -3.65625 10.734375 -3.257812 10.296875 -2.46875 C 9.867188 -1.6875 9.539062 -0.585938 9.3125 0.828125 L 6.59375 0.828125 C 6.90625 -3.648438 7.0625 -11.503906 7.0625 -22.734375 L 9.78125 -22.734375 C 10.644531 -15.347656 12.210938 -9.828125 14.484375 -6.171875 C 16.765625 -2.523438 20.648438 -0.703125 26.140625 -0.703125 C 28.890625 -0.703125 31.320312 -1.601562 33.4375 -3.40625 C 35.5625 -5.21875 36.625 -8.046875 36.625 -11.890625 C 36.625 -14.953125 35.582031 -17.539062 33.5 -19.65625 C 31.425781 -21.78125 28.035156 -24.335938 23.328125 -27.328125 C 19.472656 -29.753906 16.503906 -31.753906 14.421875 -33.328125 C 12.347656 -34.898438 10.601562 -36.820312 9.1875 -39.09375 C 7.769531 -41.375 7.0625 -44.046875 7.0625 -47.109375 C 7.0625 -52.054688 8.707031 -55.828125 12 -58.421875 C 15.300781 -61.015625 19.46875 -62.3125 24.5 -62.3125 Z M 24.5 -62.3125 "/></g></g></g><g fill="#000000" fill-opacity="1"><g transform="translate(835.600626, 484.932925)"><g><path d="M 16.84375 -90.109375 C 18.882812 -90.109375 20.648438 -89.359375 22.140625 -87.859375 C 23.628906 -86.367188 24.375 -84.601562 24.375 -82.5625 C 24.375 -80.519531 23.628906 -78.753906 22.140625 -77.265625 C 20.648438 -75.773438 18.882812 -75.03125 16.84375 -75.03125 C 14.800781 -75.03125 13.03125 -75.773438 11.53125 -77.265625 C 10.039062 -78.753906 9.296875 -80.519531 9.296875 -82.5625 C 9.296875 -84.601562 10.039062 -86.367188 11.53125 -87.859375 C 13.03125 -89.359375 14.800781 -90.109375 16.84375 -90.109375 Z M 22.96875 -10.953125 C 22.96875 -7.734375 23.632812 -5.515625 24.96875 -4.296875 C 26.300781 -3.078125 28.617188 -2.46875 31.921875 -2.46875 L 31.921875 0 C 24.691406 -0.3125 19.941406 -0.46875 17.671875 -0.46875 C 15.390625 -0.46875 10.640625 -0.3125 3.421875 0 L 3.421875 -2.46875 C 6.710938 -2.46875 9.023438 -3.078125 10.359375 -4.296875 C 11.691406 -5.515625 12.359375 -7.734375 12.359375 -10.953125 L 12.359375 -47.8125 C 12.359375 -51.425781 11.691406 -54.054688 10.359375 -55.703125 C 9.023438 -57.359375 6.710938 -58.1875 3.421875 -58.1875 L 3.421875 -60.65625 C 5.929688 -60.414062 8.363281 -60.296875 10.71875 -60.296875 C 15.664062 -60.296875 19.75 -60.847656 22.96875 -61.953125 Z M 22.96875 -10.953125 "/></g></g></g><g fill="#000000" fill-opacity="1"><g transform="translate(870.107768, 484.932925)"><g><path d="M 32.265625 -62.3125 C 40.273438 -62.3125 46.734375 -59.660156 51.640625 -54.359375 C 56.554688 -49.054688 59.015625 -41.023438 59.015625 -30.265625 C 59.015625 -19.515625 56.554688 -11.503906 51.640625 -6.234375 C 46.734375 -0.972656 40.273438 1.65625 32.265625 1.65625 C 24.265625 1.65625 17.804688 -0.972656 12.890625 -6.234375 C 7.984375 -11.503906 5.53125 -19.515625 5.53125 -30.265625 C 5.53125 -41.023438 7.984375 -49.054688 12.890625 -54.359375 C 17.804688 -59.660156 24.265625 -62.3125 32.265625 -62.3125 Z M 32.265625 -59.953125 C 27.554688 -59.953125 23.828125 -57.535156 21.078125 -52.703125 C 18.328125 -47.878906 16.953125 -40.398438 16.953125 -30.265625 C 16.953125 -20.140625 18.328125 -12.679688 21.078125 -7.890625 C 23.828125 -3.097656 27.554688 -0.703125 32.265625 -0.703125 C 36.984375 -0.703125 40.710938 -3.097656 43.453125 -7.890625 C 46.203125 -12.679688 47.578125 -20.140625 47.578125 -30.265625 C 47.578125 -40.398438 46.203125 -47.878906 43.453125 -52.703125 C 40.710938 -57.535156 36.984375 -59.953125 32.265625 -59.953125 Z M 32.265625 -59.953125 "/></g></g></g><g fill="#000000" fill-opacity="1"><g transform="translate(934.646633, 484.932925)"><g><path d="M 22.140625 -10.953125 C 22.140625 -7.734375 22.804688 -5.515625 24.140625 -4.296875 C 25.472656 -3.078125 27.789062 -2.46875 31.09375 -2.46875 L 31.09375 0 C 23.875 -0.3125 19.125 -0.46875 16.84375 -0.46875 C 14.5625 -0.46875 9.8125 -0.3125 2.59375 0 L 2.59375 -2.46875 C 5.882812 -2.46875 8.195312 -3.078125 9.53125 -4.296875 C 10.875 -5.515625 11.546875 -7.734375 11.546875 -10.953125 L 11.546875 -78.203125 C 11.546875 -81.816406 10.875 -84.445312 9.53125 -86.09375 C 8.195312 -87.75 5.882812 -88.578125 2.59375 -88.578125 L 2.59375 -91.046875 C 5.03125 -90.804688 7.460938 -90.6875 9.890625 -90.6875 C 14.835938 -90.6875 18.921875 -91.238281 22.140625 -92.34375 Z M 22.140625 -10.953125 "/></g></g></g><g fill="#000000" fill-opacity="1"><g transform="translate(968.329331, 484.932925)"><g><path d="M 32.265625 -62.3125 C 40.273438 -62.3125 46.734375 -59.660156 51.640625 -54.359375 C 56.554688 -49.054688 59.015625 -41.023438 59.015625 -30.265625 C 59.015625 -19.515625 56.554688 -11.503906 51.640625 -6.234375 C 46.734375 -0.972656 40.273438 1.65625 32.265625 1.65625 C 24.265625 1.65625 17.804688 -0.972656 12.890625 -6.234375 C 7.984375 -11.503906 5.53125 -19.515625 5.53125 -30.265625 C 5.53125 -41.023438 7.984375 -49.054688 12.890625 -54.359375 C 17.804688 -59.660156 24.265625 -62.3125 32.265625 -62.3125 Z M 32.265625 -59.953125 C 27.554688 -59.953125 23.828125 -57.535156 21.078125 -52.703125 C 18.328125 -47.878906 16.953125 -40.398438 16.953125 -30.265625 C 16.953125 -20.140625 18.328125 -12.679688 21.078125 -7.890625 C 23.828125 -3.097656 27.554688 -0.703125 32.265625 -0.703125 C 36.984375 -0.703125 40.710938 -3.097656 43.453125 -7.890625 C 46.203125 -12.679688 47.578125 -20.140625 47.578125 -30.265625 C 47.578125 -40.398438 46.203125 -47.878906 43.453125 -52.703125 C 40.710938 -57.535156 36.984375 -59.953125 32.265625 -59.953125 Z M 32.265625 -59.953125 "/></g></g></g><g fill="#000000" fill-opacity="1"><g transform="translate(1032.868196, 484.932925)"><g><path d="M 55.46875 -50.0625 C 54.0625 -50.0625 52.863281 -50.53125 51.875 -51.46875 C 50.894531 -52.414062 50.40625 -53.789062 50.40625 -55.59375 C 50.40625 -57.164062 50.800781 -58.972656 51.59375 -61.015625 C 49.550781 -60.148438 47.941406 -59.1875 46.765625 -58.125 C 45.585938 -57.0625 44.523438 -55.742188 43.578125 -54.171875 C 45.378906 -51.429688 46.28125 -47.941406 46.28125 -43.703125 C 46.28125 -37.492188 44.394531 -32.835938 40.625 -29.734375 C 36.863281 -26.640625 31.878906 -25.09375 25.671875 -25.09375 L 25.5625 -25.09375 C 22.96875 -23.59375 21.003906 -22.210938 19.671875 -20.953125 C 18.335938 -19.703125 17.671875 -18.289062 17.671875 -16.71875 C 17.671875 -14.207031 19.554688 -12.953125 23.328125 -12.953125 L 38.046875 -12.953125 C 43.378906 -12.953125 47.789062 -11.789062 51.28125 -9.46875 C 54.78125 -7.15625 56.53125 -3.6875 56.53125 0.9375 C 56.53125 4.707031 55.3125 8.203125 52.875 11.421875 C 50.445312 14.640625 46.875 17.226562 42.15625 19.1875 C 37.445312 21.15625 31.757812 22.140625 25.09375 22.140625 C 18.257812 22.140625 12.546875 21.097656 7.953125 19.015625 C 3.359375 16.941406 1.0625 13.863281 1.0625 9.78125 C 1.0625 7.101562 2.140625 4.78125 4.296875 2.8125 C 6.453125 0.851562 9.457031 -0.671875 13.3125 -1.765625 L 14.015625 0.125 C 12.285156 0.664062 10.910156 1.757812 9.890625 3.40625 C 8.867188 5.0625 8.359375 6.910156 8.359375 8.953125 C 8.359375 12.566406 9.988281 15.332031 13.25 17.25 C 16.507812 19.175781 20.890625 20.140625 26.390625 20.140625 C 32.429688 20.140625 37.609375 18.976562 41.921875 16.65625 C 46.242188 14.34375 48.40625 10.753906 48.40625 5.890625 C 48.40625 3.066406 47.40625 0.867188 45.40625 -0.703125 C 43.40625 -2.273438 39.851562 -3.0625 34.75 -3.0625 L 26.03125 -3.0625 C 21.394531 -3.0625 17.679688 -3.648438 14.890625 -4.828125 C 12.109375 -6.003906 10.71875 -8.359375 10.71875 -11.890625 C 10.71875 -14.328125 11.597656 -16.644531 13.359375 -18.84375 C 15.128906 -21.039062 18.054688 -23.203125 22.140625 -25.328125 C 16.960938 -25.867188 12.820312 -27.671875 9.71875 -30.734375 C 6.613281 -33.796875 5.0625 -38.117188 5.0625 -43.703125 C 5.0625 -49.898438 6.945312 -54.550781 10.71875 -57.65625 C 14.488281 -60.757812 19.472656 -62.3125 25.671875 -62.3125 C 33.054688 -62.3125 38.515625 -60.269531 42.046875 -56.1875 C 43.535156 -58.300781 45.414062 -60.046875 47.6875 -61.421875 C 49.96875 -62.796875 52.25 -63.484375 54.53125 -63.484375 C 56.570312 -63.484375 58.21875 -62.894531 59.46875 -61.71875 C 60.726562 -60.539062 61.359375 -58.851562 61.359375 -56.65625 C 61.359375 -54.457031 60.75 -52.804688 59.53125 -51.703125 C 58.320312 -50.609375 56.96875 -50.0625 55.46875 -50.0625 Z M 25.671875 -27.203125 C 28.816406 -27.203125 31.191406 -28.4375 32.796875 -30.90625 C 34.410156 -33.382812 35.21875 -37.648438 35.21875 -43.703125 C 35.21875 -49.742188 34.410156 -54 32.796875 -56.46875 C 31.191406 -58.945312 28.816406 -60.1875 25.671875 -60.1875 C 22.535156 -60.1875 20.160156 -58.945312 18.546875 -56.46875 C 16.941406 -54 16.140625 -49.742188 16.140625 -43.703125 C 16.140625 -37.648438 16.941406 -33.382812 18.546875 -30.90625 C 20.160156 -28.4375 22.535156 -27.203125 25.671875 -27.203125 Z M 25.671875 -27.203125 "/></g></g></g><g fill="#000000" fill-opacity="1"><g transform="translate(1095.051671, 484.932925)"><g><path d="M 49.234375 -60.296875 C 52.691406 -60.296875 55.675781 -60.414062 58.1875 -60.65625 L 58.1875 -58.296875 C 56.613281 -58.140625 55.21875 -57.429688 54 -56.171875 C 52.78125 -54.921875 51.625 -52.882812 50.53125 -50.0625 L 31.21875 0.59375 L 27.203125 10.828125 C 25.710938 14.679688 24.023438 17.429688 22.140625 19.078125 C 20.960938 20.179688 19.546875 20.96875 17.890625 21.4375 C 16.242188 21.90625 14.597656 22.140625 12.953125 22.140625 C 10.597656 22.140625 8.675781 21.507812 7.1875 20.25 C 5.695312 19 4.953125 17.273438 4.953125 15.078125 C 4.953125 13.191406 5.5 11.675781 6.59375 10.53125 C 7.695312 9.394531 9.226562 8.828125 11.1875 8.828125 C 12.914062 8.828125 14.347656 9.316406 15.484375 10.296875 C 16.628906 11.285156 17.203125 12.644531 17.203125 14.375 C 17.203125 16.726562 16.140625 18.492188 14.015625 19.671875 C 14.171875 19.742188 14.40625 19.78125 14.71875 19.78125 C 19.039062 19.78125 22.378906 16.71875 24.734375 10.59375 L 28.859375 -0.125 L 7.53125 -51.59375 C 6.195312 -54.257812 4.863281 -56.023438 3.53125 -56.890625 C 2.195312 -57.753906 0.863281 -58.1875 -0.46875 -58.1875 L -0.46875 -60.65625 C 2.90625 -60.1875 6.753906 -59.953125 11.078125 -59.953125 C 14.992188 -59.953125 20.097656 -60.1875 26.390625 -60.65625 L 26.390625 -58.1875 C 23.554688 -58.1875 21.488281 -57.945312 20.1875 -57.46875 C 18.894531 -57 18.25 -55.863281 18.25 -54.0625 C 18.25 -52.414062 18.722656 -50.492188 19.671875 -48.296875 L 33.796875 -13.1875 L 46.875 -47.234375 C 47.738281 -49.585938 48.171875 -51.390625 48.171875 -52.640625 C 48.171875 -54.453125 47.460938 -55.789062 46.046875 -56.65625 C 44.640625 -57.519531 42.40625 -58.066406 39.34375 -58.296875 L 39.34375 -60.65625 C 43.5 -60.414062 46.796875 -60.296875 49.234375 -60.296875 Z M 49.234375 -60.296875 "/></g></g></g><g fill="#000000" fill-opacity="1"><g transform="translate(1154.408614, 484.932925)"><g><path d="M 50.640625 -28.265625 L 8.125 -28.265625 L 8.125 -35.09375 L 50.640625 -35.09375 Z M 50.640625 -28.265625 "/></g></g></g><g fill="#000000" fill-opacity="1"><g transform="translate(1213.176736, 484.932925)"><g><path d="M 34.984375 -81.03125 C 32.148438 -80.875 30.085938 -80.5625 28.796875 -80.09375 C 27.503906 -79.625 26.617188 -78.71875 26.140625 -77.375 C 25.671875 -76.039062 25.4375 -73.882812 25.4375 -70.90625 L 25.4375 -12.484375 C 25.4375 -9.503906 25.671875 -7.34375 26.140625 -6 C 26.617188 -4.664062 27.503906 -3.765625 28.796875 -3.296875 C 30.085938 -2.828125 32.148438 -2.515625 34.984375 -2.359375 L 34.984375 0 C 31.367188 -0.238281 26.378906 -0.359375 20.015625 -0.359375 C 13.265625 -0.359375 8.242188 -0.238281 4.953125 0 L 4.953125 -2.359375 C 7.773438 -2.515625 9.832031 -2.828125 11.125 -3.296875 C 12.425781 -3.765625 13.3125 -4.664062 13.78125 -6 C 14.25 -7.34375 14.484375 -9.503906 14.484375 -12.484375 L 14.484375 -70.90625 C 14.484375 -73.882812 14.25 -76.039062 13.78125 -77.375 C 13.3125 -78.71875 12.425781 -79.625 11.125 -80.09375 C 9.832031 -80.5625 7.773438 -80.875 4.953125 -81.03125 L 4.953125 -83.390625 C 8.242188 -83.148438 13.265625 -83.03125 20.015625 -83.03125 C 26.296875 -83.03125 31.285156 -83.148438 34.984375 -83.390625 Z M 34.984375 -81.03125 "/></g></g></g><g clip-path="url(#f0f0115c5f)"><path fill="#498536" d="M 377.003906 252.5625 C 377.457031 252.5625 377.457031 251.855469 377.003906 251.855469 C 376.550781 251.855469 376.546875 252.5625 377.003906 252.5625 " fill-opacity="1" fill-rule="nonzero"/></g><g clip-path="url(#66fca8cc4f)"><path fill="#94c019" d="M 381.101562 93.09375 C 383.359375 91.503906 386.867188 89.96875 392.144531 89.96875 C 392.144531 89.96875 385.566406 92.039062 381.171875 94.886719 C 381.171875 94.886719 374.175781 98.726562 373.839844 101.171875 C 373.839844 101.171875 374.714844 102.265625 374.988281 101.679688 C 376.835938 97.65625 381.890625 95.585938 381.890625 95.585938 C 396.296875 103.464844 405.714844 81.753906 405.714844 81.753906 C 385.507812 77.128906 381.785156 88.394531 381.101562 93.09375 " fill-opacity="1" fill-rule="nonzero"/></g><path fill="#94c019" d="M 359.921875 108.542969 C 357.851562 105.351562 355.914062 100.425781 356.179688 93.132812 C 356.179688 93.132812 358.695312 102.324219 362.394531 108.539062 C 373.964844 89.035156 345.558594 73.972656 345.558594 73.972656 C 338.175781 101.65625 353.492188 107.367188 359.921875 108.542969 " fill-opacity="1" fill-rule="nonzero"/><path fill="#94c019" d="M 346.023438 133.570312 C 345.113281 132.167969 344.261719 130.007812 344.378906 126.804688 C 344.378906 126.804688 345.484375 130.839844 347.109375 133.570312 C 352.191406 125.003906 339.714844 118.390625 339.714844 118.390625 C 336.472656 130.546875 343.199219 133.054688 346.023438 133.570312 " fill-opacity="1" fill-rule="nonzero"/><path fill="#5ab334" d="M 348.84375 153.917969 C 354.03125 151.503906 361.757812 149.65625 372.535156 151.601562 C 372.535156 151.601562 358.347656 153.40625 348.328125 157.605469 C 374.847656 178.992188 403.25 139.824219 403.25 139.824219 C 363.695312 122.945312 351.960938 144.574219 348.84375 153.917969 " fill-opacity="1" fill-rule="nonzero"/><path fill="#5ab334" d="M 278.953125 120.882812 C 276.933594 120.164062 274.382812 118.621094 272.015625 115.265625 C 272.015625 115.265625 276.28125 118.519531 280.058594 120.035156 C 278.582031 107.335938 260.71875 110.324219 260.71875 110.324219 C 266.859375 125.25 275.667969 122.5625 278.953125 120.882812 " fill-opacity="1" fill-rule="nonzero"/><path fill="#5ab334" d="M 284.652344 119.59375 C 286.402344 118.355469 289.125 117.152344 293.230469 117.140625 C 293.230469 117.140625 288.121094 118.765625 284.710938 120.988281 C 295.929688 127.082031 303.761719 110.71875 303.761719 110.71875 C 288.039062 107.171875 285.171875 115.941406 284.652344 119.59375 " fill-opacity="1" fill-rule="nonzero"/><path fill="#5ab334" d="M 279.996094 125.085938 C 279.011719 126.265625 277.339844 127.59375 274.5 128.347656 C 274.5 128.347656 277.746094 126.292969 279.707031 124.132812 C 270.828125 121.949219 268.363281 134.714844 268.363281 134.714844 C 279.902344 134.3125 280.300781 127.714844 279.996094 125.085938 " fill-opacity="1" fill-rule="nonzero"/><path fill="#5ab334" d="M 285.492188 125.304688 C 286.890625 125.9375 288.621094 127.1875 290.117188 129.722656 C 290.117188 129.722656 287.261719 127.148438 284.652344 125.84375 C 284.960938 134.996094 297.890625 133.917969 297.890625 133.917969 C 294.382812 122.898438 287.933594 124.300781 285.492188 125.304688 " fill-opacity="1" fill-rule="nonzero"/><path fill="#94c019" d="M 283.007812 113.59375 C 282.625 112.105469 282.519531 109.96875 283.558594 107.214844 C 283.558594 107.214844 283.339844 111.054688 283.953125 113.914062 C 290.890625 107.949219 281.96875 98.511719 281.96875 98.511719 C 275.578125 108.144531 280.699219 112.308594 283.007812 113.59375 " fill-opacity="1" fill-rule="nonzero"/><path fill="#498536" d="M 240.078125 128.652344 L 251.191406 146.984375 C 254.949219 147.683594 258.960938 148.222656 263.144531 148.59375 L 246.035156 124.671875 C 246.636719 122.121094 245.933594 118.769531 243.921875 115.761719 C 240.824219 111.128906 235.796875 109.058594 232.691406 111.144531 C 229.585938 113.226562 229.578125 118.671875 232.679688 123.308594 C 234.683594 126.308594 237.5 128.234375 240.078125 128.652344 " fill-opacity="1" fill-rule="nonzero"/><g clip-path="url(#e82512e8cc)"><path fill="#498536" d="M 225.144531 144.527344 C 234.292969 150.820312 254.015625 155.175781 276.875 155.175781 C 299.738281 155.175781 319.460938 150.820312 328.609375 144.527344 C 324.128906 169.238281 302.761719 187.601562 276.875 187.601562 C 250.992188 187.601562 229.621094 169.238281 225.144531 144.527344 Z M 321.136719 170.296875 C 324.105469 166.582031 326.585938 162.515625 328.550781 158.144531 C 331.191406 152.257812 332.785156 146.03125 333.308594 139.601562 C 333.792969 138.628906 334.042969 137.636719 334.042969 136.621094 C 334.042969 132.699219 330.300781 129.0625 323.90625 126.070312 C 327.339844 128.332031 329.269531 130.878906 329.269531 133.570312 C 329.269531 142.964844 305.8125 150.578125 276.875 150.578125 C 247.941406 150.578125 224.484375 142.964844 224.484375 133.570312 C 224.484375 130.878906 226.414062 128.332031 229.847656 126.070312 C 223.453125 129.0625 219.710938 132.699219 219.710938 136.621094 C 219.710938 137.636719 219.960938 138.628906 220.445312 139.601562 C 220.96875 146.03125 222.5625 152.257812 225.203125 158.144531 C 228.144531 164.703125 232.257812 170.574219 237.425781 175.605469 C 242.363281 180.414062 248.03125 184.214844 254.175781 186.90625 C 255.109375 187.316406 254.824219 188.714844 253.800781 188.714844 L 253.800781 192.753906 L 299.347656 192.753906 L 299.347656 191.136719 C 340.367188 166.582031 370.578125 124.597656 378.480469 73.59375 C 378.765625 71.753906 379.015625 69.914062 379.238281 68.082031 C 371.65625 108.269531 350.511719 144.757812 321.136719 170.296875 " fill-opacity="1" fill-rule="nonzero"/></g><g fill="#000000" fill-opacity="1"><g transform="translate(443.620328, 150.37502)"><g><path d="M 19.453125 -19.453125 C 23.265625 -18.929688 25.984375 -17.828125 27.609375 -16.140625 C 29.242188 -14.460938 30.0625 -12.445312 30.0625 -10.09375 C 30.0625 -8.113281 29.554688 -6.359375 28.546875 -4.828125 C 27.546875 -3.304688 26.109375 -2.117188 24.234375 -1.265625 C 22.359375 -0.421875 20.140625 0 17.578125 0 C 16.640625 0 15.84375 -0.015625 15.1875 -0.046875 C 12.96875 -0.117188 10.78125 -0.15625 8.625 -0.15625 C 5.789062 -0.15625 3.644531 -0.101562 2.1875 0 L 2.1875 -1.046875 C 3.4375 -1.109375 4.34375 -1.242188 4.90625 -1.453125 C 5.476562 -1.660156 5.867188 -2.054688 6.078125 -2.640625 C 6.285156 -3.234375 6.390625 -4.191406 6.390625 -5.515625 L 6.390625 -31.296875 C 6.390625 -32.617188 6.285156 -33.570312 6.078125 -34.15625 C 5.867188 -34.75 5.476562 -35.148438 4.90625 -35.359375 C 4.34375 -35.566406 3.4375 -35.707031 2.1875 -35.78125 L 2.1875 -36.8125 C 3.644531 -36.707031 5.757812 -36.65625 8.53125 -36.65625 L 14.140625 -36.71875 C 14.796875 -36.75 15.539062 -36.765625 16.375 -36.765625 C 19.914062 -36.765625 22.628906 -36.019531 24.515625 -34.53125 C 26.410156 -33.039062 27.359375 -31.0625 27.359375 -28.59375 C 27.359375 -26.582031 26.722656 -24.78125 25.453125 -23.1875 C 24.191406 -21.59375 22.191406 -20.378906 19.453125 -19.546875 Z M 15.078125 -35.78125 C 14.003906 -35.78125 13.195312 -35.65625 12.65625 -35.40625 C 12.125 -35.164062 11.753906 -34.734375 11.546875 -34.109375 C 11.335938 -33.484375 11.234375 -32.546875 11.234375 -31.296875 L 11.234375 -19.546875 L 14.71875 -19.546875 C 17.5625 -19.546875 19.546875 -20.316406 20.671875 -21.859375 C 21.796875 -23.410156 22.359375 -25.46875 22.359375 -28.03125 C 22.359375 -30.625 21.785156 -32.5625 20.640625 -33.84375 C 19.492188 -35.132812 17.640625 -35.78125 15.078125 -35.78125 Z M 15.125 -1.203125 C 21.613281 -1.203125 24.859375 -4.234375 24.859375 -10.296875 C 24.859375 -13.035156 24.117188 -15.113281 22.640625 -16.53125 C 21.171875 -17.957031 18.820312 -18.671875 15.59375 -18.671875 L 11.234375 -18.671875 L 11.234375 -5.515625 C 11.234375 -4.265625 11.335938 -3.34375 11.546875 -2.75 C 11.753906 -2.164062 12.125 -1.757812 12.65625 -1.53125 C 13.195312 -1.3125 14.019531 -1.203125 15.125 -1.203125 Z M 15.125 -1.203125 "/></g></g></g><g fill="#000000" fill-opacity="1"><g transform="translate(476.01387, 150.37502)"><g><path d="M 6.546875 -5.921875 C 7.453125 -5.921875 8.234375 -5.59375 8.890625 -4.9375 C 9.546875 -4.28125 9.875 -3.5 9.875 -2.59375 C 9.875 -1.695312 9.546875 -0.914062 8.890625 -0.25 C 8.234375 0.40625 7.453125 0.734375 6.546875 0.734375 C 5.648438 0.734375 4.867188 0.40625 4.203125 -0.25 C 3.546875 -0.914062 3.21875 -1.695312 3.21875 -2.59375 C 3.21875 -3.5 3.546875 -4.28125 4.203125 -4.9375 C 4.867188 -5.59375 5.648438 -5.921875 6.546875 -5.921875 Z M 6.546875 -5.921875 "/></g></g></g><g fill="#000000" fill-opacity="1"><g transform="translate(489.116874, 150.37502)"><g/></g></g><g fill="#000000" fill-opacity="1"><g transform="translate(502.063894, 150.37502)"><g><path d="M 11.234375 -14.875 L 11.234375 -5.515625 C 11.234375 -4.191406 11.367188 -3.234375 11.640625 -2.640625 C 11.921875 -2.054688 12.40625 -1.660156 13.09375 -1.453125 C 13.789062 -1.242188 14.921875 -1.109375 16.484375 -1.046875 L 16.484375 0 C 14.679688 -0.101562 12.132812 -0.15625 8.84375 -0.15625 C 5.863281 -0.15625 3.644531 -0.101562 2.1875 0 L 2.1875 -1.046875 C 3.4375 -1.109375 4.34375 -1.242188 4.90625 -1.453125 C 5.476562 -1.660156 5.867188 -2.054688 6.078125 -2.640625 C 6.285156 -3.234375 6.390625 -4.191406 6.390625 -5.515625 L 6.390625 -31.296875 C 6.390625 -32.617188 6.285156 -33.570312 6.078125 -34.15625 C 5.867188 -34.75 5.476562 -35.148438 4.90625 -35.359375 C 4.34375 -35.566406 3.4375 -35.707031 2.1875 -35.78125 L 2.1875 -36.8125 C 3.644531 -36.707031 5.757812 -36.65625 8.53125 -36.65625 L 14.140625 -36.71875 C 14.796875 -36.75 15.539062 -36.765625 16.375 -36.765625 C 20.4375 -36.765625 23.539062 -35.835938 25.6875 -33.984375 C 27.832031 -32.128906 28.90625 -29.640625 28.90625 -26.515625 C 28.90625 -24.609375 28.476562 -22.78125 27.625 -21.03125 C 26.78125 -19.28125 25.34375 -17.816406 23.3125 -16.640625 C 21.289062 -15.460938 18.597656 -14.875 15.234375 -14.875 Z M 15.078125 -35.78125 C 14.003906 -35.78125 13.195312 -35.65625 12.65625 -35.40625 C 12.125 -35.164062 11.753906 -34.734375 11.546875 -34.109375 C 11.335938 -33.484375 11.234375 -32.546875 11.234375 -31.296875 L 11.234375 -15.90625 L 14.71875 -15.90625 C 18.113281 -15.90625 20.460938 -16.816406 21.765625 -18.640625 C 23.066406 -20.460938 23.71875 -22.898438 23.71875 -25.953125 C 23.71875 -29.304688 23.046875 -31.78125 21.703125 -33.375 C 20.367188 -34.976562 18.160156 -35.78125 15.078125 -35.78125 Z M 15.078125 -35.78125 "/></g></g></g><g fill="#000000" fill-opacity="1"><g transform="translate(532.481579, 150.37502)"><g><path d="M 9.671875 -21.265625 C 10.535156 -23.453125 11.738281 -25.039062 13.28125 -26.03125 C 14.820312 -27.019531 16.566406 -27.515625 18.515625 -27.515625 C 20.941406 -27.515625 22.78125 -26.851562 24.03125 -25.53125 C 24.6875 -24.832031 25.148438 -23.960938 25.421875 -22.921875 C 25.703125 -21.890625 25.84375 -20.488281 25.84375 -18.71875 L 25.84375 -4.84375 C 25.84375 -3.414062 26.132812 -2.429688 26.71875 -1.890625 C 27.3125 -1.359375 28.335938 -1.09375 29.796875 -1.09375 L 29.796875 0 C 26.609375 -0.132812 24.53125 -0.203125 23.5625 -0.203125 C 22.582031 -0.203125 20.640625 -0.132812 17.734375 0 L 17.734375 -1.09375 C 19.015625 -1.09375 19.90625 -1.359375 20.40625 -1.890625 C 20.90625 -2.429688 21.15625 -3.414062 21.15625 -4.84375 L 21.15625 -19.859375 C 21.15625 -21.804688 20.878906 -23.289062 20.328125 -24.3125 C 19.773438 -25.332031 18.648438 -25.84375 16.953125 -25.84375 C 15.523438 -25.84375 14.265625 -25.441406 13.171875 -24.640625 C 12.085938 -23.847656 11.234375 -22.734375 10.609375 -21.296875 C 9.984375 -19.859375 9.671875 -18.238281 9.671875 -16.4375 L 9.671875 -4.84375 C 9.671875 -3.414062 9.921875 -2.429688 10.421875 -1.890625 C 10.929688 -1.359375 11.828125 -1.09375 13.109375 -1.09375 L 13.109375 0 C 10.191406 -0.132812 8.25 -0.203125 7.28125 -0.203125 C 6.3125 -0.203125 4.234375 -0.132812 1.046875 0 L 1.046875 -1.09375 C 2.492188 -1.09375 3.507812 -1.359375 4.09375 -1.890625 C 4.6875 -2.429688 4.984375 -3.414062 4.984375 -4.84375 L 4.984375 -34.46875 C 4.984375 -36.070312 4.6875 -37.234375 4.09375 -37.953125 C 3.507812 -38.679688 2.492188 -39.046875 1.046875 -39.046875 L 1.046875 -40.140625 C 2.148438 -40.035156 3.222656 -39.984375 4.265625 -39.984375 C 6.453125 -39.984375 8.253906 -40.226562 9.671875 -40.71875 Z M 9.671875 -21.265625 "/></g></g></g><g fill="#000000" fill-opacity="1"><g transform="translate(563.055258, 150.37502)"><g><path d="M 8.46875 0.359375 C 6.289062 0.359375 4.671875 -0.179688 3.609375 -1.265625 C 2.554688 -2.359375 2.03125 -3.878906 2.03125 -5.828125 C 2.03125 -7.378906 2.453125 -8.660156 3.296875 -9.671875 C 4.148438 -10.679688 5.15625 -11.476562 6.3125 -12.0625 C 7.476562 -12.65625 9.015625 -13.28125 10.921875 -13.9375 C 12.859375 -14.59375 14.296875 -15.195312 15.234375 -15.75 C 16.171875 -16.3125 16.640625 -17.054688 16.640625 -17.984375 L 16.640625 -21.21875 C 16.640625 -23.226562 16.210938 -24.601562 15.359375 -25.34375 C 14.515625 -26.09375 13.328125 -26.46875 11.796875 -26.46875 C 9.367188 -26.46875 7.65625 -25.84375 6.65625 -24.59375 C 7.351562 -24.425781 7.929688 -24.0625 8.390625 -23.5 C 8.859375 -22.945312 9.09375 -22.253906 9.09375 -21.421875 C 9.09375 -20.554688 8.816406 -19.867188 8.265625 -19.359375 C 7.710938 -18.859375 7.003906 -18.609375 6.140625 -18.609375 C 5.171875 -18.609375 4.441406 -18.910156 3.953125 -19.515625 C 3.460938 -20.128906 3.21875 -20.867188 3.21875 -21.734375 C 3.21875 -22.566406 3.414062 -23.257812 3.8125 -23.8125 C 4.21875 -24.363281 4.816406 -24.921875 5.609375 -25.484375 C 6.441406 -26.066406 7.5 -26.550781 8.78125 -26.9375 C 10.070312 -27.320312 11.476562 -27.515625 13 -27.515625 C 15.707031 -27.515625 17.753906 -26.867188 19.140625 -25.578125 C 20.003906 -24.785156 20.582031 -23.828125 20.875 -22.703125 C 21.164062 -21.578125 21.3125 -20.09375 21.3125 -18.25 L 21.3125 -3.796875 C 21.3125 -2.929688 21.429688 -2.304688 21.671875 -1.921875 C 21.921875 -1.546875 22.34375 -1.359375 22.9375 -1.359375 C 23.351562 -1.359375 23.738281 -1.453125 24.09375 -1.640625 C 24.457031 -1.828125 24.847656 -2.09375 25.265625 -2.4375 L 25.84375 -1.5625 C 24.9375 -0.863281 24.160156 -0.367188 23.515625 -0.078125 C 22.878906 0.210938 22.078125 0.359375 21.109375 0.359375 C 19.441406 0.359375 18.28125 -0.0507812 17.625 -0.875 C 16.96875 -1.707031 16.640625 -2.835938 16.640625 -4.265625 C 15.597656 -2.523438 14.398438 -1.316406 13.046875 -0.640625 C 11.703125 0.0234375 10.175781 0.359375 8.46875 0.359375 Z M 10.765625 -1.71875 C 13.054688 -1.71875 15.015625 -3.035156 16.640625 -5.671875 L 16.640625 -15.859375 C 16.328125 -15.367188 15.894531 -14.96875 15.34375 -14.65625 C 14.789062 -14.351562 13.941406 -13.941406 12.796875 -13.421875 C 11.472656 -12.859375 10.40625 -12.328125 9.59375 -11.828125 C 8.78125 -11.328125 8.078125 -10.640625 7.484375 -9.765625 C 6.898438 -8.898438 6.609375 -7.796875 6.609375 -6.453125 C 6.609375 -4.890625 6.988281 -3.707031 7.75 -2.90625 C 8.507812 -2.113281 9.515625 -1.71875 10.765625 -1.71875 Z M 10.765625 -1.71875 "/></g></g></g><g fill="#000000" fill-opacity="1"><g transform="translate(588.949288, 150.37502)"><g><path d="M 17.6875 -27.515625 C 19.070312 -27.515625 20.203125 -27.113281 21.078125 -26.3125 C 21.960938 -25.507812 22.40625 -24.539062 22.40625 -23.40625 C 22.40625 -22.5 22.132812 -21.722656 21.59375 -21.078125 C 21.0625 -20.441406 20.347656 -20.125 19.453125 -20.125 C 18.679688 -20.125 18.023438 -20.363281 17.484375 -20.84375 C 16.953125 -21.332031 16.6875 -21.992188 16.6875 -22.828125 C 16.6875 -23.972656 17.273438 -24.910156 18.453125 -25.640625 C 18.210938 -25.984375 17.851562 -26.15625 17.375 -26.15625 C 16.019531 -26.15625 14.785156 -25.625 13.671875 -24.5625 C 12.566406 -23.507812 11.703125 -22.21875 11.078125 -20.6875 C 10.453125 -19.164062 10.140625 -17.726562 10.140625 -16.375 L 10.140625 -5.359375 C 10.140625 -3.765625 10.597656 -2.65625 11.515625 -2.03125 C 12.429688 -1.40625 13.8125 -1.09375 15.65625 -1.09375 L 15.65625 0 L 14.40625 -0.046875 C 10.863281 -0.148438 8.609375 -0.203125 7.640625 -0.203125 C 6.742188 -0.203125 4.703125 -0.132812 1.515625 0 L 1.515625 -1.09375 C 2.960938 -1.09375 3.976562 -1.359375 4.5625 -1.890625 C 5.15625 -2.429688 5.453125 -3.414062 5.453125 -4.84375 L 5.453125 -21.109375 C 5.453125 -22.703125 5.15625 -23.863281 4.5625 -24.59375 C 3.976562 -25.320312 2.960938 -25.6875 1.515625 -25.6875 L 1.515625 -26.78125 C 2.617188 -26.675781 3.691406 -26.625 4.734375 -26.625 C 6.921875 -26.625 8.722656 -26.867188 10.140625 -27.359375 L 10.140625 -20.859375 C 10.765625 -22.585938 11.757812 -24.128906 13.125 -25.484375 C 14.5 -26.835938 16.019531 -27.515625 17.6875 -27.515625 Z M 17.6875 -27.515625 "/></g></g></g><g fill="#000000" fill-opacity="1"><g transform="translate(612.087536, 150.37502)"><g><path d="M 41.4375 -4.84375 C 41.4375 -3.414062 41.734375 -2.429688 42.328125 -1.890625 C 42.921875 -1.359375 43.941406 -1.09375 45.390625 -1.09375 L 45.390625 0 C 42.203125 -0.132812 40.125 -0.203125 39.15625 -0.203125 C 38.1875 -0.203125 36.242188 -0.132812 33.328125 0 L 33.328125 -1.09375 C 34.609375 -1.09375 35.5 -1.359375 36 -1.890625 C 36.507812 -2.429688 36.765625 -3.414062 36.765625 -4.84375 L 36.765625 -19.859375 C 36.765625 -21.179688 36.6875 -22.25 36.53125 -23.0625 C 36.375 -23.875 36.007812 -24.539062 35.4375 -25.0625 C 34.863281 -25.582031 33.988281 -25.84375 32.8125 -25.84375 C 31.5 -25.84375 30.300781 -25.425781 29.21875 -24.59375 C 28.144531 -23.757812 27.304688 -22.625 26.703125 -21.1875 C 26.097656 -19.75 25.796875 -18.164062 25.796875 -16.4375 L 25.796875 -4.84375 C 25.796875 -3.414062 26.085938 -2.429688 26.671875 -1.890625 C 27.265625 -1.359375 28.289062 -1.09375 29.75 -1.09375 L 29.75 0 C 26.550781 -0.132812 24.46875 -0.203125 23.5 -0.203125 C 22.53125 -0.203125 20.59375 -0.132812 17.6875 0 L 17.6875 -1.09375 C 18.96875 -1.09375 19.859375 -1.359375 20.359375 -1.890625 C 20.859375 -2.429688 21.109375 -3.414062 21.109375 -4.84375 L 21.109375 -19.859375 C 21.109375 -21.179688 21.03125 -22.25 20.875 -23.0625 C 20.71875 -23.875 20.351562 -24.539062 19.78125 -25.0625 C 19.207031 -25.582031 18.332031 -25.84375 17.15625 -25.84375 C 15.84375 -25.84375 14.644531 -25.425781 13.5625 -24.59375 C 12.488281 -23.757812 11.648438 -22.613281 11.046875 -21.15625 C 10.441406 -19.707031 10.140625 -18.113281 10.140625 -16.375 L 10.140625 -4.84375 C 10.140625 -3.414062 10.390625 -2.429688 10.890625 -1.890625 C 11.390625 -1.359375 12.285156 -1.09375 13.578125 -1.09375 L 13.578125 0 C 10.660156 -0.132812 8.71875 -0.203125 7.75 -0.203125 C 6.78125 -0.203125 4.703125 -0.132812 1.515625 0 L 1.515625 -1.09375 C 2.960938 -1.09375 3.976562 -1.359375 4.5625 -1.890625 C 5.15625 -2.429688 5.453125 -3.414062 5.453125 -4.84375 L 5.453125 -21.109375 C 5.453125 -22.703125 5.15625 -23.863281 4.5625 -24.59375 C 3.976562 -25.320312 2.960938 -25.6875 1.515625 -25.6875 L 1.515625 -26.78125 C 2.617188 -26.675781 3.691406 -26.625 4.734375 -26.625 C 6.921875 -26.625 8.722656 -26.867188 10.140625 -27.359375 L 10.140625 -21.21875 C 10.972656 -23.363281 12.148438 -24.945312 13.671875 -25.96875 C 15.203125 -27 16.867188 -27.515625 18.671875 -27.515625 C 21.023438 -27.515625 22.828125 -26.851562 24.078125 -25.53125 C 24.941406 -24.632812 25.476562 -23.25 25.6875 -21.375 C 26.550781 -23.550781 27.742188 -25.117188 29.265625 -26.078125 C 30.796875 -27.035156 32.476562 -27.515625 34.3125 -27.515625 C 36.675781 -27.515625 38.484375 -26.851562 39.734375 -25.53125 C 40.347656 -24.832031 40.785156 -23.945312 41.046875 -22.875 C 41.304688 -21.800781 41.4375 -20.414062 41.4375 -18.71875 Z M 41.4375 -4.84375 "/></g></g></g><g fill="#000000" fill-opacity="1"><g transform="translate(658.260026, 150.37502)"><g><path d="M 8.46875 0.359375 C 6.289062 0.359375 4.671875 -0.179688 3.609375 -1.265625 C 2.554688 -2.359375 2.03125 -3.878906 2.03125 -5.828125 C 2.03125 -7.378906 2.453125 -8.660156 3.296875 -9.671875 C 4.148438 -10.679688 5.15625 -11.476562 6.3125 -12.0625 C 7.476562 -12.65625 9.015625 -13.28125 10.921875 -13.9375 C 12.859375 -14.59375 14.296875 -15.195312 15.234375 -15.75 C 16.171875 -16.3125 16.640625 -17.054688 16.640625 -17.984375 L 16.640625 -21.21875 C 16.640625 -23.226562 16.210938 -24.601562 15.359375 -25.34375 C 14.515625 -26.09375 13.328125 -26.46875 11.796875 -26.46875 C 9.367188 -26.46875 7.65625 -25.84375 6.65625 -24.59375 C 7.351562 -24.425781 7.929688 -24.0625 8.390625 -23.5 C 8.859375 -22.945312 9.09375 -22.253906 9.09375 -21.421875 C 9.09375 -20.554688 8.816406 -19.867188 8.265625 -19.359375 C 7.710938 -18.859375 7.003906 -18.609375 6.140625 -18.609375 C 5.171875 -18.609375 4.441406 -18.910156 3.953125 -19.515625 C 3.460938 -20.128906 3.21875 -20.867188 3.21875 -21.734375 C 3.21875 -22.566406 3.414062 -23.257812 3.8125 -23.8125 C 4.21875 -24.363281 4.816406 -24.921875 5.609375 -25.484375 C 6.441406 -26.066406 7.5 -26.550781 8.78125 -26.9375 C 10.070312 -27.320312 11.476562 -27.515625 13 -27.515625 C 15.707031 -27.515625 17.753906 -26.867188 19.140625 -25.578125 C 20.003906 -24.785156 20.582031 -23.828125 20.875 -22.703125 C 21.164062 -21.578125 21.3125 -20.09375 21.3125 -18.25 L 21.3125 -3.796875 C 21.3125 -2.929688 21.429688 -2.304688 21.671875 -1.921875 C 21.921875 -1.546875 22.34375 -1.359375 22.9375 -1.359375 C 23.351562 -1.359375 23.738281 -1.453125 24.09375 -1.640625 C 24.457031 -1.828125 24.847656 -2.09375 25.265625 -2.4375 L 25.84375 -1.5625 C 24.9375 -0.863281 24.160156 -0.367188 23.515625 -0.078125 C 22.878906 0.210938 22.078125 0.359375 21.109375 0.359375 C 19.441406 0.359375 18.28125 -0.0507812 17.625 -0.875 C 16.96875 -1.707031 16.640625 -2.835938 16.640625 -4.265625 C 15.597656 -2.523438 14.398438 -1.316406 13.046875 -0.640625 C 11.703125 0.0234375 10.175781 0.359375 8.46875 0.359375 Z M 10.765625 -1.71875 C 13.054688 -1.71875 15.015625 -3.035156 16.640625 -5.671875 L 16.640625 -15.859375 C 16.328125 -15.367188 15.894531 -14.96875 15.34375 -14.65625 C 14.789062 -14.351562 13.941406 -13.941406 12.796875 -13.421875 C 11.472656 -12.859375 10.40625 -12.328125 9.59375 -11.828125 C 8.78125 -11.328125 8.078125 -10.640625 7.484375 -9.765625 C 6.898438 -8.898438 6.609375 -7.796875 6.609375 -6.453125 C 6.609375 -4.890625 6.988281 -3.707031 7.75 -2.90625 C 8.507812 -2.113281 9.515625 -1.71875 10.765625 -1.71875 Z M 10.765625 -1.71875 "/></g></g></g><g fill="#000000" fill-opacity="1"><g transform="translate(684.154068, 150.37502)"><g><path d="M 14.515625 -27.515625 C 16.828125 -27.515625 18.835938 -26.957031 20.546875 -25.84375 C 22.171875 -24.769531 22.984375 -23.4375 22.984375 -21.84375 C 22.984375 -20.9375 22.722656 -20.222656 22.203125 -19.703125 C 21.679688 -19.179688 21.023438 -18.921875 20.234375 -18.921875 C 19.429688 -18.921875 18.753906 -19.15625 18.203125 -19.625 C 17.648438 -20.09375 17.375 -20.726562 17.375 -21.53125 C 17.375 -22.257812 17.578125 -22.875 17.984375 -23.375 C 18.398438 -23.875 18.921875 -24.210938 19.546875 -24.390625 C 19.203125 -25.015625 18.585938 -25.535156 17.703125 -25.953125 C 16.816406 -26.367188 15.875 -26.578125 14.875 -26.578125 C 13.59375 -26.578125 12.394531 -26.164062 11.28125 -25.34375 C 10.175781 -24.53125 9.257812 -23.175781 8.53125 -21.28125 C 7.800781 -19.394531 7.4375 -16.910156 7.4375 -13.828125 C 7.4375 -9.535156 8.128906 -6.410156 9.515625 -4.453125 C 10.898438 -2.492188 12.703125 -1.515625 14.921875 -1.515625 C 16.410156 -1.515625 17.820312 -1.945312 19.15625 -2.8125 C 20.488281 -3.675781 21.59375 -5.023438 22.46875 -6.859375 L 23.453125 -6.5 C 22.859375 -4.519531 21.753906 -2.816406 20.140625 -1.390625 C 18.535156 0.0234375 16.453125 0.734375 13.890625 0.734375 C 11.734375 0.734375 9.78125 0.179688 8.03125 -0.921875 C 6.28125 -2.035156 4.898438 -3.640625 3.890625 -5.734375 C 2.890625 -7.835938 2.390625 -10.273438 2.390625 -13.046875 C 2.390625 -15.859375 2.898438 -18.351562 3.921875 -20.53125 C 4.941406 -22.71875 6.367188 -24.425781 8.203125 -25.65625 C 10.046875 -26.894531 12.148438 -27.515625 14.515625 -27.515625 Z M 14.515625 -27.515625 "/></g></g></g><g fill="#000000" fill-opacity="1"><g transform="translate(709.424132, 150.37502)"><g><path d="M 21.734375 -26.625 C 23.265625 -26.625 24.582031 -26.675781 25.6875 -26.78125 L 25.6875 -25.734375 C 24.988281 -25.671875 24.367188 -25.359375 23.828125 -24.796875 C 23.296875 -24.242188 22.789062 -23.34375 22.3125 -22.09375 L 13.78125 0.265625 L 12.015625 4.78125 C 11.359375 6.476562 10.613281 7.691406 9.78125 8.421875 C 9.257812 8.910156 8.632812 9.257812 7.90625 9.46875 C 7.175781 9.675781 6.445312 9.78125 5.71875 9.78125 C 4.675781 9.78125 3.828125 9.5 3.171875 8.9375 C 2.515625 8.382812 2.1875 7.625 2.1875 6.65625 C 2.1875 5.820312 2.425781 5.15625 2.90625 4.65625 C 3.394531 4.15625 4.070312 3.90625 4.9375 3.90625 C 5.695312 3.90625 6.328125 4.117188 6.828125 4.546875 C 7.335938 4.984375 7.59375 5.582031 7.59375 6.34375 C 7.59375 7.382812 7.125 8.164062 6.1875 8.6875 C 6.257812 8.71875 6.363281 8.734375 6.5 8.734375 C 8.40625 8.734375 9.878906 7.382812 10.921875 4.6875 L 12.734375 -0.046875 L 3.328125 -22.78125 C 2.734375 -23.957031 2.140625 -24.734375 1.546875 -25.109375 C 0.960938 -25.492188 0.378906 -25.6875 -0.203125 -25.6875 L -0.203125 -26.78125 C 1.285156 -26.570312 2.984375 -26.46875 4.890625 -26.46875 C 6.617188 -26.46875 8.867188 -26.570312 11.640625 -26.78125 L 11.640625 -25.6875 C 10.398438 -25.6875 9.492188 -25.582031 8.921875 -25.375 C 8.347656 -25.164062 8.0625 -24.664062 8.0625 -23.875 C 8.0625 -23.144531 8.269531 -22.289062 8.6875 -21.3125 L 14.921875 -5.828125 L 20.703125 -20.859375 C 21.078125 -21.890625 21.265625 -22.6875 21.265625 -23.25 C 21.265625 -24.039062 20.953125 -24.625 20.328125 -25 C 19.703125 -25.382812 18.71875 -25.628906 17.375 -25.734375 L 17.375 -26.78125 C 19.207031 -26.675781 20.660156 -26.625 21.734375 -26.625 Z M 21.734375 -26.625 "/></g></g></g><g fill="#000000" fill-opacity="1"><g transform="translate(735.630139, 150.37502)"><g/></g></g><g fill="#000000" fill-opacity="1"><g transform="translate(748.57716, 150.37502)"><g><path d="M 19.453125 -19.453125 C 23.265625 -18.929688 25.984375 -17.828125 27.609375 -16.140625 C 29.242188 -14.460938 30.0625 -12.445312 30.0625 -10.09375 C 30.0625 -8.113281 29.554688 -6.359375 28.546875 -4.828125 C 27.546875 -3.304688 26.109375 -2.117188 24.234375 -1.265625 C 22.359375 -0.421875 20.140625 0 17.578125 0 C 16.640625 0 15.84375 -0.015625 15.1875 -0.046875 C 12.96875 -0.117188 10.78125 -0.15625 8.625 -0.15625 C 5.789062 -0.15625 3.644531 -0.101562 2.1875 0 L 2.1875 -1.046875 C 3.4375 -1.109375 4.34375 -1.242188 4.90625 -1.453125 C 5.476562 -1.660156 5.867188 -2.054688 6.078125 -2.640625 C 6.285156 -3.234375 6.390625 -4.191406 6.390625 -5.515625 L 6.390625 -31.296875 C 6.390625 -32.617188 6.285156 -33.570312 6.078125 -34.15625 C 5.867188 -34.75 5.476562 -35.148438 4.90625 -35.359375 C 4.34375 -35.566406 3.4375 -35.707031 2.1875 -35.78125 L 2.1875 -36.8125 C 3.644531 -36.707031 5.757812 -36.65625 8.53125 -36.65625 L 14.140625 -36.71875 C 14.796875 -36.75 15.539062 -36.765625 16.375 -36.765625 C 19.914062 -36.765625 22.628906 -36.019531 24.515625 -34.53125 C 26.410156 -33.039062 27.359375 -31.0625 27.359375 -28.59375 C 27.359375 -26.582031 26.722656 -24.78125 25.453125 -23.1875 C 24.191406 -21.59375 22.191406 -20.378906 19.453125 -19.546875 Z M 15.078125 -35.78125 C 14.003906 -35.78125 13.195312 -35.65625 12.65625 -35.40625 C 12.125 -35.164062 11.753906 -34.734375 11.546875 -34.109375 C 11.335938 -33.484375 11.234375 -32.546875 11.234375 -31.296875 L 11.234375 -19.546875 L 14.71875 -19.546875 C 17.5625 -19.546875 19.546875 -20.316406 20.671875 -21.859375 C 21.796875 -23.410156 22.359375 -25.46875 22.359375 -28.03125 C 22.359375 -30.625 21.785156 -32.5625 20.640625 -33.84375 C 19.492188 -35.132812 17.640625 -35.78125 15.078125 -35.78125 Z M 15.125 -1.203125 C 21.613281 -1.203125 24.859375 -4.234375 24.859375 -10.296875 C 24.859375 -13.035156 24.117188 -15.113281 22.640625 -16.53125 C 21.171875 -17.957031 18.820312 -18.671875 15.59375 -18.671875 L 11.234375 -18.671875 L 11.234375 -5.515625 C 11.234375 -4.265625 11.335938 -3.34375 11.546875 -2.75 C 11.753906 -2.164062 12.125 -1.757812 12.65625 -1.53125 C 13.195312 -1.3125 14.019531 -1.203125 15.125 -1.203125 Z M 15.125 -1.203125 "/></g></g></g><g fill="#000000" fill-opacity="1"><g transform="translate(780.970713, 150.37502)"><g><path d="M 14.25 -27.515625 C 17.78125 -27.515625 20.628906 -26.34375 22.796875 -24 C 24.960938 -21.65625 26.046875 -18.109375 26.046875 -13.359375 C 26.046875 -8.609375 24.960938 -5.070312 22.796875 -2.75 C 20.628906 -0.425781 17.78125 0.734375 14.25 0.734375 C 10.707031 0.734375 7.851562 -0.425781 5.6875 -2.75 C 3.519531 -5.070312 2.4375 -8.609375 2.4375 -13.359375 C 2.4375 -18.109375 3.519531 -21.65625 5.6875 -24 C 7.851562 -26.34375 10.707031 -27.515625 14.25 -27.515625 Z M 14.25 -26.46875 C 12.164062 -26.46875 10.515625 -25.398438 9.296875 -23.265625 C 8.085938 -21.140625 7.484375 -17.835938 7.484375 -13.359375 C 7.484375 -8.890625 8.085938 -5.597656 9.296875 -3.484375 C 10.515625 -1.367188 12.164062 -0.3125 14.25 -0.3125 C 16.332031 -0.3125 17.976562 -1.367188 19.1875 -3.484375 C 20.40625 -5.597656 21.015625 -8.890625 21.015625 -13.359375 C 21.015625 -17.835938 20.40625 -21.140625 19.1875 -23.265625 C 17.976562 -25.398438 16.332031 -26.46875 14.25 -26.46875 Z M 14.25 -26.46875 "/></g></g></g><g fill="#000000" fill-opacity="1"><g transform="translate(809.464531, 150.37502)"><g><path d="M 14.25 -27.515625 C 17.78125 -27.515625 20.628906 -26.34375 22.796875 -24 C 24.960938 -21.65625 26.046875 -18.109375 26.046875 -13.359375 C 26.046875 -8.609375 24.960938 -5.070312 22.796875 -2.75 C 20.628906 -0.425781 17.78125 0.734375 14.25 0.734375 C 10.707031 0.734375 7.851562 -0.425781 5.6875 -2.75 C 3.519531 -5.070312 2.4375 -8.609375 2.4375 -13.359375 C 2.4375 -18.109375 3.519531 -21.65625 5.6875 -24 C 7.851562 -26.34375 10.707031 -27.515625 14.25 -27.515625 Z M 14.25 -26.46875 C 12.164062 -26.46875 10.515625 -25.398438 9.296875 -23.265625 C 8.085938 -21.140625 7.484375 -17.835938 7.484375 -13.359375 C 7.484375 -8.890625 8.085938 -5.597656 9.296875 -3.484375 C 10.515625 -1.367188 12.164062 -0.3125 14.25 -0.3125 C 16.332031 -0.3125 17.976562 -1.367188 19.1875 -3.484375 C 20.40625 -5.597656 21.015625 -8.890625 21.015625 -13.359375 C 21.015625 -17.835938 20.40625 -21.140625 19.1875 -23.265625 C 17.976562 -25.398438 16.332031 -26.46875 14.25 -26.46875 Z M 14.25 -26.46875 "/></g></g></g><g fill="#000000" fill-opacity="1"><g transform="translate(837.95835, 150.37502)"><g><path d="M 24.59375 -3.796875 C 25.25 -2.929688 25.835938 -2.289062 26.359375 -1.875 C 26.878906 -1.457031 27.503906 -1.195312 28.234375 -1.09375 L 28.234375 0 C 26.148438 -0.132812 24.75 -0.203125 24.03125 -0.203125 C 23.09375 -0.203125 21.164062 -0.132812 18.25 0 L 18.25 -1.09375 C 18.738281 -1.09375 19.128906 -1.1875 19.421875 -1.375 C 19.710938 -1.5625 19.859375 -1.796875 19.859375 -2.078125 C 19.859375 -2.359375 19.753906 -2.617188 19.546875 -2.859375 L 13.578125 -11.59375 C 12.984375 -12.457031 12.414062 -13.035156 11.875 -13.328125 C 11.34375 -13.628906 10.609375 -13.816406 9.671875 -13.890625 L 9.671875 -4.84375 C 9.671875 -3.414062 9.921875 -2.429688 10.421875 -1.890625 C 10.929688 -1.359375 11.828125 -1.09375 13.109375 -1.09375 L 13.109375 0 C 10.191406 -0.132812 8.265625 -0.203125 7.328125 -0.203125 C 6.328125 -0.203125 4.234375 -0.132812 1.046875 0 L 1.046875 -1.09375 C 2.492188 -1.09375 3.507812 -1.359375 4.09375 -1.890625 C 4.6875 -2.429688 4.984375 -3.414062 4.984375 -4.84375 L 4.984375 -34.53125 C 4.984375 -36.125 4.6875 -37.285156 4.09375 -38.015625 C 3.507812 -38.742188 2.492188 -39.109375 1.046875 -39.109375 L 1.046875 -40.203125 C 2.148438 -40.097656 3.222656 -40.046875 4.265625 -40.046875 C 6.453125 -40.046875 8.253906 -40.285156 9.671875 -40.765625 L 9.671875 -14.96875 C 10.679688 -15.113281 11.519531 -15.347656 12.1875 -15.671875 C 12.863281 -16.003906 13.515625 -16.484375 14.140625 -17.109375 L 17.984375 -21.109375 C 19.097656 -22.253906 19.65625 -23.207031 19.65625 -23.96875 C 19.65625 -24.5625 19.300781 -25.003906 18.59375 -25.296875 C 17.882812 -25.585938 16.957031 -25.734375 15.8125 -25.734375 L 15.8125 -26.78125 C 18.238281 -26.644531 20.195312 -26.578125 21.6875 -26.578125 C 23.3125 -26.578125 24.816406 -26.644531 26.203125 -26.78125 L 26.203125 -25.734375 C 24.503906 -25.597656 22.945312 -24.785156 21.53125 -23.296875 L 15.1875 -16.640625 Z M 24.59375 -3.796875 "/></g></g></g><g fill="#000000" fill-opacity="1"><g transform="translate(866.556173, 150.37502)"><g><path d="M 10.8125 -27.515625 C 12.0625 -27.515625 13.171875 -27.320312 14.140625 -26.9375 C 15.109375 -26.550781 15.890625 -26.097656 16.484375 -25.578125 C 16.867188 -25.304688 17.179688 -25.171875 17.421875 -25.171875 C 18.046875 -25.171875 18.425781 -25.929688 18.5625 -27.453125 L 19.765625 -27.453125 C 19.617188 -25.753906 19.546875 -22.804688 19.546875 -18.609375 L 18.359375 -18.609375 C 17.972656 -20.898438 17.234375 -22.789062 16.140625 -24.28125 C 15.054688 -25.769531 13.4375 -26.515625 11.28125 -26.515625 C 10.03125 -26.515625 9.003906 -26.160156 8.203125 -25.453125 C 7.410156 -24.742188 7.015625 -23.765625 7.015625 -22.515625 C 7.015625 -21.304688 7.429688 -20.289062 8.265625 -19.46875 C 9.097656 -18.65625 10.429688 -17.675781 12.265625 -16.53125 C 12.578125 -16.363281 13.046875 -16.070312 13.671875 -15.65625 C 15.265625 -14.613281 16.546875 -13.691406 17.515625 -12.890625 C 18.492188 -12.097656 19.285156 -11.179688 19.890625 -10.140625 C 20.492188 -9.097656 20.796875 -7.898438 20.796875 -6.546875 C 20.796875 -4.265625 19.9375 -2.476562 18.21875 -1.1875 C 16.507812 0.09375 14.40625 0.734375 11.90625 0.734375 C 10.34375 0.734375 8.972656 0.488281 7.796875 0 C 7.035156 -0.382812 6.328125 -0.851562 5.671875 -1.40625 C 5.523438 -1.539062 5.367188 -1.609375 5.203125 -1.609375 C 4.960938 -1.609375 4.742188 -1.4375 4.546875 -1.09375 C 4.359375 -0.75 4.210938 -0.265625 4.109375 0.359375 L 2.90625 0.359375 C 3.050781 -1.609375 3.125 -5.070312 3.125 -10.03125 L 4.3125 -10.03125 C 4.695312 -6.769531 5.390625 -4.332031 6.390625 -2.71875 C 7.398438 -1.113281 9.117188 -0.3125 11.546875 -0.3125 C 12.753906 -0.3125 13.828125 -0.707031 14.765625 -1.5 C 15.703125 -2.300781 16.171875 -3.550781 16.171875 -5.25 C 16.171875 -6.601562 15.710938 -7.75 14.796875 -8.6875 C 13.878906 -9.625 12.378906 -10.75 10.296875 -12.0625 C 8.597656 -13.132812 7.285156 -14.015625 6.359375 -14.703125 C 5.441406 -15.398438 4.671875 -16.25 4.046875 -17.25 C 3.429688 -18.257812 3.125 -19.441406 3.125 -20.796875 C 3.125 -22.984375 3.847656 -24.648438 5.296875 -25.796875 C 6.753906 -26.941406 8.59375 -27.515625 10.8125 -27.515625 Z M 10.8125 -27.515625 "/></g></g></g><g fill="#000000" fill-opacity="1"><g transform="translate(889.798435, 150.37502)"><g/></g></g><g fill="#000000" fill-opacity="1"><g transform="translate(902.745456, 150.37502)"><g><path d="M 34.890625 -37.546875 C 37.078125 -37.546875 38.890625 -36.910156 40.328125 -35.640625 C 41.765625 -34.378906 42.484375 -32.675781 42.484375 -30.53125 C 42.484375 -28.863281 42.03125 -27.414062 41.125 -26.1875 C 40.226562 -24.957031 39.035156 -23.976562 37.546875 -23.25 C 36.222656 -22.625 33.65625 -21.722656 29.84375 -20.546875 C 31.789062 -19.710938 33.222656 -18.519531 34.140625 -16.96875 C 35.054688 -15.425781 35.515625 -13.671875 35.515625 -11.703125 C 35.515625 -9.546875 34.875 -7.515625 33.59375 -5.609375 C 32.3125 -3.703125 30.472656 -2.164062 28.078125 -1 C 25.679688 0.15625 22.875 0.734375 19.65625 0.734375 C 16.632812 0.734375 13.832031 0.207031 11.25 -0.84375 C 8.675781 -1.90625 6.625 -3.414062 5.09375 -5.375 C 3.570312 -7.332031 2.8125 -9.613281 2.8125 -12.21875 C 2.8125 -14.507812 3.375 -16.441406 4.5 -18.015625 C 5.625 -19.597656 6.914062 -20.796875 8.375 -21.609375 C 9.832031 -22.421875 11.179688 -22.984375 12.421875 -23.296875 C 10.722656 -24.023438 9.421875 -24.992188 8.515625 -26.203125 C 7.617188 -27.421875 7.171875 -28.6875 7.171875 -30 C 7.171875 -31.144531 7.507812 -32.210938 8.1875 -33.203125 C 8.863281 -34.191406 9.867188 -34.988281 11.203125 -35.59375 C 12.535156 -36.195312 14.125 -36.5 15.96875 -36.5 C 18.289062 -36.5 20.09375 -35.976562 21.375 -34.9375 C 22 -34.414062 22.472656 -33.832031 22.796875 -33.1875 C 23.128906 -32.550781 23.296875 -31.941406 23.296875 -31.359375 C 23.296875 -30.523438 23 -29.851562 22.40625 -29.34375 C 21.820312 -28.84375 21.148438 -28.59375 20.390625 -28.59375 C 19.660156 -28.59375 19.023438 -28.828125 18.484375 -29.296875 C 17.953125 -29.765625 17.6875 -30.398438 17.6875 -31.203125 C 17.6875 -31.960938 17.941406 -32.609375 18.453125 -33.140625 C 18.972656 -33.679688 19.632812 -33.988281 20.4375 -34.0625 C 20.257812 -34.507812 19.816406 -34.894531 19.109375 -35.21875 C 18.398438 -35.550781 17.523438 -35.71875 16.484375 -35.71875 C 14.679688 -35.71875 13.222656 -35.171875 12.109375 -34.078125 C 11.003906 -32.992188 10.453125 -31.476562 10.453125 -29.53125 C 10.453125 -27.207031 11.335938 -25.234375 13.109375 -23.609375 C 14.316406 -23.816406 15.390625 -23.921875 16.328125 -23.921875 C 16.953125 -23.921875 17.453125 -23.816406 17.828125 -23.609375 C 18.210938 -23.398438 18.40625 -23.101562 18.40625 -22.71875 C 18.40625 -22.40625 18.273438 -22.160156 18.015625 -21.984375 C 17.753906 -21.816406 17.398438 -21.734375 16.953125 -21.734375 C 16.398438 -21.734375 15.828125 -21.835938 15.234375 -22.046875 C 14.648438 -22.253906 13.957031 -22.53125 13.15625 -22.875 C 8.644531 -21.53125 6.390625 -18.691406 6.390625 -14.359375 C 6.390625 -12.035156 6.992188 -10.019531 8.203125 -8.3125 C 9.421875 -6.613281 11.085938 -5.320312 13.203125 -4.4375 C 15.316406 -3.5625 17.691406 -3.125 20.328125 -3.125 C 22.796875 -3.125 25.078125 -3.507812 27.171875 -4.28125 C 29.265625 -5.0625 30.925781 -6.171875 32.15625 -7.609375 C 33.394531 -9.054688 34.015625 -10.734375 34.015625 -12.640625 C 34.015625 -14.023438 33.648438 -15.425781 32.921875 -16.84375 C 32.191406 -18.269531 30.800781 -19.378906 28.75 -20.171875 C 26.050781 -19.335938 24.0625 -18.679688 22.78125 -18.203125 C 21.320312 -17.648438 20.191406 -17.015625 19.390625 -16.296875 C 18.597656 -15.585938 18.203125 -14.710938 18.203125 -13.671875 C 18.203125 -12.421875 18.710938 -11.414062 19.734375 -10.65625 C 20.753906 -9.894531 21.835938 -9.515625 22.984375 -9.515625 C 23.578125 -9.515625 24.21875 -9.617188 24.90625 -9.828125 C 25.601562 -10.035156 26.003906 -10.3125 26.109375 -10.65625 C 25.441406 -10.800781 24.863281 -11.078125 24.375 -11.484375 C 23.894531 -11.898438 23.65625 -12.507812 23.65625 -13.3125 C 23.65625 -14.144531 23.921875 -14.800781 24.453125 -15.28125 C 24.992188 -15.769531 25.679688 -16.015625 26.515625 -16.015625 C 27.347656 -16.015625 28.015625 -15.753906 28.515625 -15.234375 C 29.023438 -14.710938 29.28125 -14.035156 29.28125 -13.203125 C 29.28125 -11.816406 28.632812 -10.722656 27.34375 -9.921875 C 26.0625 -9.128906 24.644531 -8.734375 23.09375 -8.734375 C 21.394531 -8.734375 19.894531 -9.242188 18.59375 -10.265625 C 17.289062 -11.285156 16.640625 -12.800781 16.640625 -14.8125 C 16.640625 -16.582031 17.238281 -18.082031 18.4375 -19.3125 C 19.632812 -20.539062 21.425781 -21.570312 23.8125 -22.40625 L 27.515625 -23.5 C 29.585938 -24.09375 31.316406 -24.613281 32.703125 -25.0625 C 34.085938 -25.507812 35.351562 -25.992188 36.5 -26.515625 C 38.164062 -27.273438 39.328125 -28.054688 39.984375 -28.859375 C 40.640625 -29.660156 40.96875 -30.546875 40.96875 -31.515625 C 40.96875 -32.972656 40.367188 -34.210938 39.171875 -35.234375 C 37.984375 -36.253906 36.570312 -36.765625 34.9375 -36.765625 C 34.070312 -36.765625 33.554688 -36.609375 33.390625 -36.296875 C 33.835938 -36.085938 34.191406 -35.75 34.453125 -35.28125 C 34.710938 -34.8125 34.84375 -34.351562 34.84375 -33.90625 C 34.84375 -33.175781 34.554688 -32.566406 33.984375 -32.078125 C 33.410156 -31.597656 32.722656 -31.359375 31.921875 -31.359375 C 31.203125 -31.359375 30.5625 -31.582031 30 -32.03125 C 29.445312 -32.476562 29.171875 -33.117188 29.171875 -33.953125 C 29.171875 -35.203125 29.75 -36.113281 30.90625 -36.6875 C 32.070312 -37.257812 33.398438 -37.546875 34.890625 -37.546875 Z M 34.890625 -37.546875 "/></g></g></g><g fill="#000000" fill-opacity="1"><g transform="translate(946.266145, 150.37502)"><g/></g></g><g fill="#000000" fill-opacity="1"><g transform="translate(959.213165, 150.37502)"><g><path d="M 34.84375 -35.78125 C 33.625 -35.707031 32.71875 -35.519531 32.125 -35.21875 C 31.539062 -34.925781 31.144531 -34.441406 30.9375 -33.765625 C 30.726562 -33.097656 30.625 -32.101562 30.625 -30.78125 L 30.625 0.265625 L 29.4375 0.265625 L 7.59375 -33.484375 L 7.59375 -6.03125 C 7.59375 -4.675781 7.703125 -3.671875 7.921875 -3.015625 C 8.148438 -2.359375 8.59375 -1.878906 9.25 -1.578125 C 9.914062 -1.285156 10.941406 -1.109375 12.328125 -1.046875 L 12.328125 0 C 11.078125 -0.101562 9.304688 -0.15625 7.015625 -0.15625 C 4.941406 -0.15625 3.332031 -0.101562 2.1875 0 L 2.1875 -1.046875 C 3.394531 -1.109375 4.289062 -1.285156 4.875 -1.578125 C 5.46875 -1.878906 5.867188 -2.367188 6.078125 -3.046875 C 6.285156 -3.722656 6.390625 -4.71875 6.390625 -6.03125 L 6.390625 -31.296875 C 6.390625 -32.617188 6.285156 -33.570312 6.078125 -34.15625 C 5.867188 -34.75 5.476562 -35.148438 4.90625 -35.359375 C 4.34375 -35.566406 3.4375 -35.707031 2.1875 -35.78125 L 2.1875 -36.8125 C 3.332031 -36.707031 4.941406 -36.65625 7.015625 -36.65625 C 8.578125 -36.65625 9.929688 -36.707031 11.078125 -36.8125 L 29.4375 -8.53125 L 29.4375 -30.78125 C 29.4375 -32.132812 29.320312 -33.140625 29.09375 -33.796875 C 28.863281 -34.453125 28.421875 -34.925781 27.765625 -35.21875 C 27.109375 -35.519531 26.085938 -35.707031 24.703125 -35.78125 L 24.703125 -36.8125 C 25.953125 -36.707031 27.71875 -36.65625 30 -36.65625 C 32.082031 -36.65625 33.695312 -36.707031 34.84375 -36.8125 Z M 34.84375 -35.78125 "/></g></g></g><g fill="#000000" fill-opacity="1"><g transform="translate(995.922377, 150.37502)"><g><path d="M 14.25 -27.515625 C 17.78125 -27.515625 20.628906 -26.34375 22.796875 -24 C 24.960938 -21.65625 26.046875 -18.109375 26.046875 -13.359375 C 26.046875 -8.609375 24.960938 -5.070312 22.796875 -2.75 C 20.628906 -0.425781 17.78125 0.734375 14.25 0.734375 C 10.707031 0.734375 7.851562 -0.425781 5.6875 -2.75 C 3.519531 -5.070312 2.4375 -8.609375 2.4375 -13.359375 C 2.4375 -18.109375 3.519531 -21.65625 5.6875 -24 C 7.851562 -26.34375 10.707031 -27.515625 14.25 -27.515625 Z M 14.25 -26.46875 C 12.164062 -26.46875 10.515625 -25.398438 9.296875 -23.265625 C 8.085938 -21.140625 7.484375 -17.835938 7.484375 -13.359375 C 7.484375 -8.890625 8.085938 -5.597656 9.296875 -3.484375 C 10.515625 -1.367188 12.164062 -0.3125 14.25 -0.3125 C 16.332031 -0.3125 17.976562 -1.367188 19.1875 -3.484375 C 20.40625 -5.597656 21.015625 -8.890625 21.015625 -13.359375 C 21.015625 -17.835938 20.40625 -21.140625 19.1875 -23.265625 C 17.976562 -25.398438 16.332031 -26.46875 14.25 -26.46875 Z M 14.25 -26.46875 "/></g></g></g><g fill="#000000" fill-opacity="1"><g transform="translate(1024.416195, 150.37502)"><g><path d="M 9.875 -26.734375 L 17.578125 -26.734375 L 17.578125 -25.6875 L 9.875 -25.6875 L 9.875 -5.5625 C 9.875 -4 10.160156 -2.867188 10.734375 -2.171875 C 11.304688 -1.484375 12.128906 -1.140625 13.203125 -1.140625 C 14.273438 -1.140625 15.191406 -1.570312 15.953125 -2.4375 C 16.722656 -3.3125 17.367188 -4.734375 17.890625 -6.703125 L 18.921875 -6.453125 C 18.054688 -1.660156 15.804688 0.734375 12.171875 0.734375 C 10.992188 0.734375 10.019531 0.59375 9.25 0.3125 C 8.488281 0.03125 7.816406 -0.398438 7.234375 -0.984375 C 6.460938 -1.742188 5.929688 -2.675781 5.640625 -3.78125 C 5.347656 -4.894531 5.203125 -6.390625 5.203125 -8.265625 L 5.203125 -25.6875 L 0.203125 -25.6875 L 0.203125 -26.734375 L 5.203125 -26.734375 L 5.203125 -34.6875 C 7.140625 -34.75 8.695312 -34.988281 9.875 -35.40625 Z M 9.875 -26.734375 "/></g></g></g><g fill="#000000" fill-opacity="1"><g transform="translate(1042.82278, 150.37502)"><g><path d="M 24.078125 -6.234375 C 23.453125 -4.328125 22.28125 -2.6875 20.5625 -1.3125 C 18.84375 0.0507812 16.773438 0.734375 14.359375 0.734375 C 11.890625 0.734375 9.753906 0.171875 7.953125 -0.953125 C 6.148438 -2.085938 4.769531 -3.664062 3.8125 -5.6875 C 2.863281 -7.71875 2.390625 -10.066406 2.390625 -12.734375 C 2.390625 -15.753906 2.875 -18.375 3.84375 -20.59375 C 4.8125 -22.8125 6.179688 -24.519531 7.953125 -25.71875 C 9.722656 -26.914062 11.785156 -27.515625 14.140625 -27.515625 C 17.265625 -27.515625 19.664062 -26.566406 21.34375 -24.671875 C 23.03125 -22.785156 23.875 -19.914062 23.875 -16.0625 L 7.59375 -16.0625 C 7.488281 -15.09375 7.4375 -13.984375 7.4375 -12.734375 C 7.4375 -10.453125 7.804688 -8.460938 8.546875 -6.765625 C 9.296875 -5.066406 10.285156 -3.753906 11.515625 -2.828125 C 12.742188 -1.910156 14.035156 -1.453125 15.390625 -1.453125 C 17.054688 -1.453125 18.53125 -1.847656 19.8125 -2.640625 C 21.09375 -3.441406 22.164062 -4.78125 23.03125 -6.65625 Z M 13.9375 -26.515625 C 12.300781 -26.515625 10.894531 -25.71875 9.71875 -24.125 C 8.539062 -22.53125 7.816406 -20.175781 7.546875 -17.0625 L 18.875 -17.0625 C 18.945312 -19.757812 18.554688 -22.007812 17.703125 -23.8125 C 16.859375 -25.613281 15.601562 -26.515625 13.9375 -26.515625 Z M 13.9375 -26.515625 "/></g></g></g><g fill="#000000" fill-opacity="1"><g transform="translate(1069.132791, 150.37502)"><g><path d="M 10.8125 -27.515625 C 12.0625 -27.515625 13.171875 -27.320312 14.140625 -26.9375 C 15.109375 -26.550781 15.890625 -26.097656 16.484375 -25.578125 C 16.867188 -25.304688 17.179688 -25.171875 17.421875 -25.171875 C 18.046875 -25.171875 18.425781 -25.929688 18.5625 -27.453125 L 19.765625 -27.453125 C 19.617188 -25.753906 19.546875 -22.804688 19.546875 -18.609375 L 18.359375 -18.609375 C 17.972656 -20.898438 17.234375 -22.789062 16.140625 -24.28125 C 15.054688 -25.769531 13.4375 -26.515625 11.28125 -26.515625 C 10.03125 -26.515625 9.003906 -26.160156 8.203125 -25.453125 C 7.410156 -24.742188 7.015625 -23.765625 7.015625 -22.515625 C 7.015625 -21.304688 7.429688 -20.289062 8.265625 -19.46875 C 9.097656 -18.65625 10.429688 -17.675781 12.265625 -16.53125 C 12.578125 -16.363281 13.046875 -16.070312 13.671875 -15.65625 C 15.265625 -14.613281 16.546875 -13.691406 17.515625 -12.890625 C 18.492188 -12.097656 19.285156 -11.179688 19.890625 -10.140625 C 20.492188 -9.097656 20.796875 -7.898438 20.796875 -6.546875 C 20.796875 -4.265625 19.9375 -2.476562 18.21875 -1.1875 C 16.507812 0.09375 14.40625 0.734375 11.90625 0.734375 C 10.34375 0.734375 8.972656 0.488281 7.796875 0 C 7.035156 -0.382812 6.328125 -0.851562 5.671875 -1.40625 C 5.523438 -1.539062 5.367188 -1.609375 5.203125 -1.609375 C 4.960938 -1.609375 4.742188 -1.4375 4.546875 -1.09375 C 4.359375 -0.75 4.210938 -0.265625 4.109375 0.359375 L 2.90625 0.359375 C 3.050781 -1.609375 3.125 -5.070312 3.125 -10.03125 L 4.3125 -10.03125 C 4.695312 -6.769531 5.390625 -4.332031 6.390625 -2.71875 C 7.398438 -1.113281 9.117188 -0.3125 11.546875 -0.3125 C 12.753906 -0.3125 13.828125 -0.707031 14.765625 -1.5 C 15.703125 -2.300781 16.171875 -3.550781 16.171875 -5.25 C 16.171875 -6.601562 15.710938 -7.75 14.796875 -8.6875 C 13.878906 -9.625 12.378906 -10.75 10.296875 -12.0625 C 8.597656 -13.132812 7.285156 -14.015625 6.359375 -14.703125 C 5.441406 -15.398438 4.671875 -16.25 4.046875 -17.25 C 3.429688 -18.257812 3.125 -19.441406 3.125 -20.796875 C 3.125 -22.984375 3.847656 -24.648438 5.296875 -25.796875 C 6.753906 -26.941406 8.59375 -27.515625 10.8125 -27.515625 Z M 10.8125 -27.515625 "/></g></g></g></svg>