<svg xmlns="http://www.w3.org/2000/svg" xmlns:xlink="http://www.w3.org/1999/xlink" width="100" zoomAndPan="magnify" viewBox="0 0 75 74.999997" height="100" preserveAspectRatio="xMidYMid meet" version="1.0"><defs><clipPath id="7b41a8928f"><path d="M 8.671875 22 L 66.421875 22 L 66.421875 58.347656 L 8.671875 58.347656 Z M 8.671875 22 " clip-rule="nonzero"/></clipPath><clipPath id="999c34ca1f"><path d="M 12 16.347656 L 63 16.347656 L 63 58 L 12 58 Z M 12 16.347656 " clip-rule="nonzero"/></clipPath><clipPath id="00cb07be65"><path d="M 41 16.347656 L 50 16.347656 L 50 29 L 41 29 Z M 41 16.347656 " clip-rule="nonzero"/></clipPath></defs><rect x="-7.5" width="90" fill="#ffffff" y="-7.5" height="89.999996" fill-opacity="1"/><rect x="-7.5" width="90" fill="#ffffff" y="-7.5" height="89.999996" fill-opacity="1"/><rect x="-7.5" width="90" fill="#ffffff" y="-7.5" height="89.999996" fill-opacity="1"/><g clip-path="url(#7b41a8928f)"><path fill="#fc6067" d="M 11.558594 22.082031 L 63.535156 22.082031 C 63.917969 22.082031 64.285156 22.15625 64.640625 22.300781 C 64.992188 22.445312 65.304688 22.652344 65.574219 22.921875 C 65.847656 23.191406 66.054688 23.5 66.203125 23.851562 C 66.347656 24.199219 66.421875 24.566406 66.421875 24.945312 L 66.421875 55.472656 C 66.421875 55.851562 66.347656 56.21875 66.203125 56.570312 C 66.054688 56.917969 65.847656 57.230469 65.574219 57.496094 C 65.304688 57.765625 64.992188 57.972656 64.640625 58.117188 C 64.285156 58.261719 63.917969 58.335938 63.535156 58.335938 L 11.558594 58.335938 C 11.175781 58.335938 10.808594 58.261719 10.453125 58.117188 C 10.101562 57.972656 9.789062 57.765625 9.515625 57.496094 C 9.246094 57.230469 9.039062 56.917969 8.890625 56.570312 C 8.746094 56.21875 8.671875 55.851562 8.671875 55.472656 L 8.671875 24.945312 C 8.671875 24.566406 8.746094 24.199219 8.890625 23.851562 C 9.039062 23.5 9.246094 23.191406 9.515625 22.921875 C 9.789062 22.652344 10.101562 22.445312 10.453125 22.300781 C 10.808594 22.15625 11.175781 22.082031 11.558594 22.082031 Z M 11.558594 22.082031 " fill-opacity="1" fill-rule="nonzero"/></g><g clip-path="url(#999c34ca1f)"><path fill="#e7eaef" d="M 59.683594 16.359375 L 41.398438 16.359375 C 40.640625 16.359375 39.921875 16.527344 39.242188 16.863281 C 38.566406 17.199219 38 17.667969 37.546875 18.269531 C 37.09375 17.667969 36.527344 17.199219 35.847656 16.863281 C 35.171875 16.527344 34.453125 16.359375 33.695312 16.359375 L 15.410156 16.359375 C 15.027344 16.359375 14.660156 16.433594 14.304688 16.578125 C 13.953125 16.722656 13.640625 16.929688 13.367188 17.199219 C 13.097656 17.464844 12.890625 17.777344 12.742188 18.125 C 12.597656 18.476562 12.523438 18.839844 12.523438 19.222656 L 12.523438 50.703125 C 12.523438 51.082031 12.597656 51.449219 12.742188 51.796875 C 12.890625 52.148438 13.097656 52.457031 13.367188 52.726562 C 13.640625 52.996094 13.953125 53.203125 14.304688 53.347656 C 14.660156 53.492188 15.027344 53.566406 15.410156 53.566406 L 33.695312 53.566406 C 34.078125 53.566406 34.449219 53.640625 34.800781 53.785156 C 35.15625 53.929688 35.46875 54.136719 35.738281 54.40625 C 36.007812 54.671875 36.21875 54.980469 36.363281 55.332031 C 36.511719 55.683594 36.582031 56.046875 36.585938 56.425781 C 36.585938 56.691406 36.679688 56.914062 36.867188 57.101562 C 37.054688 57.289062 37.28125 57.382812 37.546875 57.382812 C 37.8125 57.382812 38.039062 57.289062 38.226562 57.101562 C 38.414062 56.914062 38.507812 56.691406 38.507812 56.425781 C 38.507812 56.046875 38.582031 55.683594 38.730469 55.332031 C 38.875 54.980469 39.085938 54.671875 39.355469 54.40625 C 39.625 54.136719 39.9375 53.929688 40.292969 53.785156 C 40.644531 53.640625 41.015625 53.566406 41.398438 53.566406 L 59.683594 53.566406 C 60.066406 53.566406 60.433594 53.492188 60.789062 53.347656 C 61.140625 53.203125 61.453125 52.996094 61.726562 52.726562 C 61.996094 52.457031 62.203125 52.148438 62.351562 51.796875 C 62.496094 51.449219 62.570312 51.082031 62.570312 50.703125 L 62.570312 19.222656 C 62.570312 18.839844 62.496094 18.476562 62.351562 18.125 C 62.203125 17.777344 61.996094 17.464844 61.726562 17.199219 C 61.453125 16.929688 61.140625 16.722656 60.789062 16.578125 C 60.433594 16.433594 60.066406 16.359375 59.683594 16.359375 Z M 59.683594 16.359375 " fill-opacity="1" fill-rule="nonzero"/></g><g clip-path="url(#00cb07be65)"><path fill="#fcb860" d="M 49.097656 16.359375 L 41.398438 16.359375 L 41.398438 27.808594 C 41.398438 28 41.449219 28.175781 41.558594 28.335938 C 41.667969 28.496094 41.8125 28.613281 41.992188 28.6875 C 42.171875 28.761719 42.355469 28.78125 42.546875 28.742188 C 42.738281 28.703125 42.902344 28.617188 43.039062 28.480469 L 45.246094 26.292969 L 47.453125 28.480469 C 47.589844 28.617188 47.753906 28.707031 47.945312 28.742188 C 48.136719 28.78125 48.324219 28.761719 48.503906 28.6875 C 48.683594 28.613281 48.828125 28.496094 48.933594 28.335938 C 49.042969 28.175781 49.097656 28 49.097656 27.808594 Z M 49.097656 16.359375 " fill-opacity="1" fill-rule="nonzero"/></g><path fill="#cccfd4" d="M 37.546875 18.269531 C 37.269531 17.910156 36.949219 17.59375 36.585938 17.324219 L 36.585938 56.425781 C 36.585938 56.691406 36.679688 56.914062 36.867188 57.101562 C 37.054688 57.289062 37.28125 57.382812 37.546875 57.382812 C 37.8125 57.382812 38.039062 57.289062 38.226562 57.101562 C 38.414062 56.914062 38.507812 56.691406 38.507812 56.425781 L 38.507812 17.324219 C 38.144531 17.59375 37.824219 17.910156 37.546875 18.269531 Z M 37.546875 18.269531 " fill-opacity="1" fill-rule="nonzero"/><path fill="#cccfd4" d="M 32.734375 22.082031 L 18.296875 22.082031 C 18.03125 22.082031 17.804688 22.175781 17.617188 22.363281 C 17.429688 22.546875 17.335938 22.773438 17.335938 23.035156 C 17.335938 23.300781 17.429688 23.523438 17.617188 23.710938 C 17.804688 23.898438 18.03125 23.992188 18.296875 23.992188 L 32.734375 23.992188 C 33 23.992188 33.226562 23.898438 33.414062 23.710938 C 33.601562 23.523438 33.695312 23.300781 33.695312 23.035156 C 33.695312 22.773438 33.601562 22.546875 33.414062 22.363281 C 33.226562 22.175781 33 22.082031 32.734375 22.082031 Z M 32.734375 22.082031 " fill-opacity="1" fill-rule="nonzero"/><path fill="#cccfd4" d="M 32.734375 31.625 L 18.296875 31.625 C 18.03125 31.625 17.804688 31.714844 17.617188 31.902344 C 17.429688 32.089844 17.335938 32.3125 17.335938 32.578125 C 17.335938 32.839844 17.429688 33.066406 17.617188 33.25 C 17.804688 33.4375 18.03125 33.53125 18.296875 33.53125 L 32.734375 33.53125 C 33 33.53125 33.226562 33.4375 33.414062 33.25 C 33.601562 33.066406 33.695312 32.839844 33.695312 32.578125 C 33.695312 32.3125 33.601562 32.089844 33.414062 31.902344 C 33.226562 31.714844 33 31.625 32.734375 31.625 Z M 32.734375 31.625 " fill-opacity="1" fill-rule="nonzero"/><path fill="#cccfd4" d="M 18.296875 38.300781 L 20.222656 38.300781 C 20.488281 38.300781 20.714844 38.207031 20.902344 38.023438 C 21.089844 37.835938 21.183594 37.609375 21.183594 37.347656 C 21.183594 37.082031 21.089844 36.859375 20.902344 36.671875 C 20.714844 36.488281 20.488281 36.394531 20.222656 36.394531 L 18.296875 36.394531 C 18.03125 36.394531 17.804688 36.488281 17.617188 36.671875 C 17.429688 36.859375 17.335938 37.082031 17.335938 37.347656 C 17.335938 37.609375 17.429688 37.835938 17.617188 38.023438 C 17.804688 38.207031 18.03125 38.300781 18.296875 38.300781 Z M 18.296875 38.300781 " fill-opacity="1" fill-rule="nonzero"/><path fill="#cccfd4" d="M 32.734375 41.164062 L 18.296875 41.164062 C 18.03125 41.164062 17.804688 41.257812 17.617188 41.441406 C 17.429688 41.628906 17.335938 41.855469 17.335938 42.117188 C 17.335938 42.378906 17.429688 42.605469 17.617188 42.792969 C 17.804688 42.976562 18.03125 43.070312 18.296875 43.070312 L 32.734375 43.070312 C 33 43.070312 33.226562 42.976562 33.414062 42.792969 C 33.601562 42.605469 33.695312 42.378906 33.695312 42.117188 C 33.695312 41.855469 33.601562 41.628906 33.414062 41.441406 C 33.226562 41.257812 33 41.164062 32.734375 41.164062 Z M 32.734375 41.164062 " fill-opacity="1" fill-rule="nonzero"/><path fill="#cccfd4" d="M 32.734375 45.933594 L 30.808594 45.933594 C 30.542969 45.933594 30.316406 46.027344 30.128906 46.210938 C 29.941406 46.398438 29.847656 46.625 29.847656 46.886719 C 29.847656 47.152344 29.941406 47.375 30.128906 47.5625 C 30.316406 47.75 30.542969 47.839844 30.808594 47.839844 L 32.734375 47.839844 C 33 47.839844 33.226562 47.75 33.414062 47.5625 C 33.601562 47.375 33.695312 47.152344 33.695312 46.886719 C 33.695312 46.625 33.601562 46.398438 33.414062 46.210938 C 33.226562 46.027344 33 45.933594 32.734375 45.933594 Z M 32.734375 45.933594 " fill-opacity="1" fill-rule="nonzero"/><path fill="#cccfd4" d="M 32.734375 36.394531 L 24.070312 36.394531 C 23.804688 36.394531 23.578125 36.488281 23.390625 36.671875 C 23.203125 36.859375 23.109375 37.082031 23.109375 37.347656 C 23.109375 37.609375 23.203125 37.835938 23.390625 38.023438 C 23.578125 38.207031 23.804688 38.300781 24.070312 38.300781 L 32.734375 38.300781 C 33 38.300781 33.226562 38.207031 33.414062 38.023438 C 33.601562 37.835938 33.695312 37.609375 33.695312 37.347656 C 33.695312 37.082031 33.601562 36.859375 33.414062 36.671875 C 33.226562 36.488281 33 36.394531 32.734375 36.394531 Z M 32.734375 36.394531 " fill-opacity="1" fill-rule="nonzero"/><path fill="#cccfd4" d="M 26.960938 45.933594 L 18.296875 45.933594 C 18.03125 45.933594 17.804688 46.027344 17.617188 46.210938 C 17.429688 46.398438 17.335938 46.625 17.335938 46.886719 C 17.335938 47.152344 17.429688 47.375 17.617188 47.5625 C 17.804688 47.75 18.03125 47.839844 18.296875 47.839844 L 26.960938 47.839844 C 27.226562 47.839844 27.453125 47.75 27.640625 47.5625 C 27.828125 47.375 27.921875 47.152344 27.921875 46.886719 C 27.921875 46.625 27.828125 46.398438 27.640625 46.210938 C 27.453125 46.027344 27.226562 45.933594 26.960938 45.933594 Z M 26.960938 45.933594 " fill-opacity="1" fill-rule="nonzero"/><path fill="#cccfd4" d="M 32.734375 26.851562 L 30.808594 26.851562 C 30.542969 26.851562 30.316406 26.945312 30.128906 27.132812 C 29.941406 27.320312 29.847656 27.542969 29.847656 27.808594 C 29.847656 28.070312 29.941406 28.296875 30.128906 28.480469 C 30.316406 28.667969 30.542969 28.761719 30.808594 28.761719 L 32.734375 28.761719 C 33 28.761719 33.226562 28.667969 33.414062 28.480469 C 33.601562 28.296875 33.695312 28.070312 33.695312 27.808594 C 33.695312 27.542969 33.601562 27.320312 33.414062 27.132812 C 33.226562 26.945312 33 26.851562 32.734375 26.851562 Z M 32.734375 26.851562 " fill-opacity="1" fill-rule="nonzero"/><path fill="#cccfd4" d="M 18.296875 28.761719 L 26.960938 28.761719 C 27.226562 28.761719 27.453125 28.667969 27.640625 28.480469 C 27.828125 28.296875 27.921875 28.070312 27.921875 27.808594 C 27.921875 27.542969 27.828125 27.320312 27.640625 27.132812 C 27.453125 26.945312 27.226562 26.851562 26.960938 26.851562 L 18.296875 26.851562 C 18.03125 26.851562 17.804688 26.945312 17.617188 27.132812 C 17.429688 27.320312 17.335938 27.542969 17.335938 27.808594 C 17.335938 28.070312 17.429688 28.296875 17.617188 28.480469 C 17.804688 28.667969 18.03125 28.761719 18.296875 28.761719 Z M 18.296875 28.761719 " fill-opacity="1" fill-rule="nonzero"/><path fill="#cccfd4" d="M 52.945312 23.992188 L 56.796875 23.992188 C 57.0625 23.992188 57.289062 23.898438 57.476562 23.710938 C 57.664062 23.523438 57.757812 23.300781 57.757812 23.035156 C 57.757812 22.773438 57.664062 22.546875 57.476562 22.363281 C 57.289062 22.175781 57.0625 22.082031 56.796875 22.082031 L 52.945312 22.082031 C 52.679688 22.082031 52.453125 22.175781 52.265625 22.363281 C 52.078125 22.546875 51.984375 22.773438 51.984375 23.035156 C 51.984375 23.300781 52.078125 23.523438 52.265625 23.710938 C 52.453125 23.898438 52.679688 23.992188 52.945312 23.992188 Z M 52.945312 23.992188 " fill-opacity="1" fill-rule="nonzero"/><path fill="#cccfd4" d="M 56.796875 31.625 L 42.359375 31.625 C 42.09375 31.625 41.867188 31.714844 41.679688 31.902344 C 41.492188 32.089844 41.398438 32.3125 41.398438 32.578125 C 41.398438 32.839844 41.492188 33.066406 41.679688 33.25 C 41.867188 33.4375 42.09375 33.53125 42.359375 33.53125 L 56.796875 33.53125 C 57.0625 33.53125 57.289062 33.4375 57.476562 33.25 C 57.664062 33.066406 57.757812 32.839844 57.757812 32.578125 C 57.757812 32.3125 57.664062 32.089844 57.476562 31.902344 C 57.289062 31.714844 57.0625 31.625 56.796875 31.625 Z M 56.796875 31.625 " fill-opacity="1" fill-rule="nonzero"/><path fill="#cccfd4" d="M 56.796875 36.394531 L 54.871094 36.394531 C 54.605469 36.394531 54.378906 36.488281 54.191406 36.671875 C 54.003906 36.859375 53.910156 37.082031 53.910156 37.347656 C 53.910156 37.609375 54.003906 37.835938 54.191406 38.023438 C 54.378906 38.207031 54.605469 38.300781 54.871094 38.300781 L 56.796875 38.300781 C 57.0625 38.300781 57.289062 38.207031 57.476562 38.023438 C 57.664062 37.835938 57.757812 37.609375 57.757812 37.347656 C 57.757812 37.082031 57.664062 36.859375 57.476562 36.671875 C 57.289062 36.488281 57.0625 36.394531 56.796875 36.394531 Z M 56.796875 36.394531 " fill-opacity="1" fill-rule="nonzero"/><path fill="#cccfd4" d="M 56.796875 41.164062 L 42.359375 41.164062 C 42.09375 41.164062 41.867188 41.257812 41.679688 41.441406 C 41.492188 41.628906 41.398438 41.855469 41.398438 42.117188 C 41.398438 42.378906 41.492188 42.605469 41.679688 42.792969 C 41.867188 42.976562 42.09375 43.070312 42.359375 43.070312 L 56.796875 43.070312 C 57.0625 43.070312 57.289062 42.976562 57.476562 42.792969 C 57.664062 42.605469 57.757812 42.378906 57.757812 42.117188 C 57.757812 41.855469 57.664062 41.628906 57.476562 41.441406 C 57.289062 41.257812 57.0625 41.164062 56.796875 41.164062 Z M 56.796875 41.164062 " fill-opacity="1" fill-rule="nonzero"/><path fill="#cccfd4" d="M 44.285156 45.933594 L 42.359375 45.933594 C 42.09375 45.933594 41.867188 46.027344 41.679688 46.210938 C 41.492188 46.398438 41.398438 46.625 41.398438 46.886719 C 41.398438 47.152344 41.492188 47.375 41.679688 47.5625 C 41.867188 47.75 42.09375 47.839844 42.359375 47.839844 L 44.285156 47.839844 C 44.550781 47.839844 44.777344 47.75 44.964844 47.5625 C 45.152344 47.375 45.246094 47.152344 45.246094 46.886719 C 45.246094 46.625 45.152344 46.398438 44.964844 46.210938 C 44.777344 46.027344 44.550781 45.933594 44.285156 45.933594 Z M 44.285156 45.933594 " fill-opacity="1" fill-rule="nonzero"/><path fill="#cccfd4" d="M 42.359375 38.300781 L 51.023438 38.300781 C 51.289062 38.300781 51.515625 38.207031 51.703125 38.023438 C 51.890625 37.835938 51.984375 37.609375 51.984375 37.347656 C 51.984375 37.082031 51.890625 36.859375 51.703125 36.671875 C 51.515625 36.488281 51.289062 36.394531 51.023438 36.394531 L 42.359375 36.394531 C 42.09375 36.394531 41.867188 36.488281 41.679688 36.671875 C 41.492188 36.859375 41.398438 37.082031 41.398438 37.347656 C 41.398438 37.609375 41.492188 37.835938 41.679688 38.023438 C 41.867188 38.207031 42.09375 38.300781 42.359375 38.300781 Z M 42.359375 38.300781 " fill-opacity="1" fill-rule="nonzero"/><path fill="#cccfd4" d="M 56.796875 45.933594 L 48.132812 45.933594 C 47.867188 45.933594 47.640625 46.027344 47.453125 46.210938 C 47.265625 46.398438 47.171875 46.625 47.171875 46.886719 C 47.171875 47.152344 47.265625 47.375 47.453125 47.5625 C 47.640625 47.75 47.867188 47.839844 48.132812 47.839844 L 56.796875 47.839844 C 57.0625 47.839844 57.289062 47.75 57.476562 47.5625 C 57.664062 47.375 57.757812 47.152344 57.757812 46.886719 C 57.757812 46.625 57.664062 46.398438 57.476562 46.210938 C 57.289062 46.027344 57.0625 45.933594 56.796875 45.933594 Z M 56.796875 45.933594 " fill-opacity="1" fill-rule="nonzero"/><path fill="#cccfd4" d="M 56.796875 26.851562 L 52.945312 26.851562 C 52.679688 26.851562 52.453125 26.945312 52.265625 27.132812 C 52.078125 27.320312 51.984375 27.542969 51.984375 27.808594 C 51.984375 28.070312 52.078125 28.296875 52.265625 28.480469 C 52.453125 28.667969 52.679688 28.761719 52.945312 28.761719 L 56.796875 28.761719 C 57.0625 28.761719 57.289062 28.667969 57.476562 28.480469 C 57.664062 28.296875 57.757812 28.070312 57.757812 27.808594 C 57.757812 27.542969 57.664062 27.320312 57.476562 27.132812 C 57.289062 26.945312 57.0625 26.851562 56.796875 26.851562 Z M 56.796875 26.851562 " fill-opacity="1" fill-rule="nonzero"/></svg>