<svg xmlns="http://www.w3.org/2000/svg" style="display: none;">
  
    <symbol id="icon-help-circled" viewBox="0 0 512 512">
      <path d="m253 20c65 0 120 22 167 67c46 45 70 100 72 165c0 65-22 121-68 167c-45 47-100 71-165 73c-65 0-121-22-167-68c-47-45-71-100-72-165c-1-65 21-121 67-167c46-47 101-71 166-72m-1 379c10 0 19-3 25-9c6-7 10-15 10-24c0-11-2-19-9-26c-6-6-15-9-25-9c0 0-1 0-1 0c-10 0-18 3-24 9c-7 6-10 14-11 24c0 10 3 18 10 25c6 6 14 10 24 10c0 0 1 0 1 0m85-168c9-11 13-24 13-40c0-26-9-46-27-59c-18-13-41-19-69-19c-22 0-40 4-53 13c-24 14-36 39-37 75c0 0 0 2 0 2c0 0 56 0 56 0c0 0 0-2 0-2c0-9 3-18 8-28c6-8 15-12 28-12c14 0 23 3 27 10c5 7 8 14 8 23c0 6-3 13-8 20c-3 4-7 8-11 10c0 0-3 2-3 2c-2 2-4 4-8 6c-3 2-7 5-10 8c-4 2-7 5-11 8c-4 3-7 6-9 9c-4 7-7 20-9 40c0 0 0 4 0 4c0 0 56 0 56 0c0 0 0-2 0-2c0-4 0-9 2-14c2-7 6-13 14-19c0 0 14-9 14-9c16-12 25-20 29-26"/>
    </symbol>
  
</svg>
