<svg xmlns="http://www.w3.org/2000/svg" xmlns:xlink="http://www.w3.org/1999/xlink" width="1180" zoomAndPan="magnify" viewBox="0 0 884.88 269.999989" height="360" preserveAspectRatio="xMidYMid meet" version="1.0"><defs><g/><clipPath id="86e7432eb2"><path d="M 0 0.0195312 L 884.761719 0.0195312 L 884.761719 269.980469 L 0 269.980469 Z M 0 0.0195312 " clip-rule="nonzero"/></clipPath><clipPath id="3b6fa8cb9e"><path d="M 118 188 L 120 188 L 120 188.992188 L 118 188.992188 Z M 118 188 " clip-rule="nonzero"/></clipPath><clipPath id="8898fc35e3"><path d="M 117 88 L 135.730469 88 L 135.730469 101 L 117 101 Z M 117 88 " clip-rule="nonzero"/></clipPath><clipPath id="01dee6c2b0"><path d="M 27 81.007812 L 121 81.007812 L 121 154 L 27 154 Z M 27 81.007812 " clip-rule="nonzero"/></clipPath></defs><g clip-path="url(#86e7432eb2)"><path fill="#ffffff" d="M 0 0.0195312 L 884.878906 0.0195312 L 884.878906 277.480469 L 0 277.480469 Z M 0 0.0195312 " fill-opacity="1" fill-rule="nonzero"/><path fill="#ffffff" d="M 0 0.0195312 L 884.878906 0.0195312 L 884.878906 269.980469 L 0 269.980469 Z M 0 0.0195312 " fill-opacity="1" fill-rule="nonzero"/><path fill="#ffffff" d="M 0 0.0195312 L 884.878906 0.0195312 L 884.878906 269.980469 L 0 269.980469 Z M 0 0.0195312 " fill-opacity="1" fill-rule="nonzero"/></g><g clip-path="url(#3b6fa8cb9e)"><path fill="#498536" d="M 118.953125 188.992188 C 119.21875 188.992188 119.21875 188.578125 118.953125 188.578125 C 118.6875 188.578125 118.6875 188.992188 118.953125 188.992188 " fill-opacity="1" fill-rule="nonzero"/></g><g clip-path="url(#8898fc35e3)"><path fill="#94c019" d="M 121.347656 95.652344 C 122.667969 94.722656 124.71875 93.820312 127.804688 93.820312 C 127.804688 93.820312 123.957031 95.035156 121.390625 96.703125 C 121.390625 96.703125 117.300781 98.949219 117.105469 100.378906 C 117.105469 100.378906 117.617188 101.019531 117.773438 100.675781 C 118.855469 98.320312 121.8125 97.109375 121.8125 97.109375 C 130.230469 101.722656 135.738281 89.015625 135.738281 89.015625 C 123.925781 86.308594 121.75 92.902344 121.347656 95.652344 " fill-opacity="1" fill-rule="nonzero"/></g><path fill="#94c019" d="M 108.96875 104.695312 C 107.757812 102.824219 106.625 99.941406 106.777344 95.675781 C 106.777344 95.675781 108.25 101.054688 110.414062 104.691406 C 117.175781 93.277344 100.570312 84.457031 100.570312 84.457031 C 96.253906 100.660156 105.207031 104.003906 108.96875 104.695312 " fill-opacity="1" fill-rule="nonzero"/><path fill="#94c019" d="M 100.84375 119.34375 C 100.3125 118.523438 99.8125 117.257812 99.882812 115.382812 C 99.882812 115.382812 100.527344 117.746094 101.476562 119.34375 C 104.449219 114.328125 97.15625 110.457031 97.15625 110.457031 C 95.257812 117.574219 99.191406 119.042969 100.84375 119.34375 " fill-opacity="1" fill-rule="nonzero"/><path fill="#5ab334" d="M 102.492188 131.25 C 105.523438 129.839844 110.042969 128.757812 116.339844 129.894531 C 116.339844 129.894531 108.046875 130.953125 102.1875 133.410156 C 117.695312 145.929688 134.296875 123.003906 134.296875 123.003906 C 111.171875 113.125 104.3125 125.78125 102.492188 131.25 " fill-opacity="1" fill-rule="nonzero"/><path fill="#5ab334" d="M 61.632812 111.917969 C 60.453125 111.496094 58.960938 110.59375 57.578125 108.628906 C 57.578125 108.628906 60.070312 110.53125 62.28125 111.421875 C 61.417969 103.988281 50.972656 105.738281 50.972656 105.738281 C 54.5625 114.472656 59.714844 112.898438 61.632812 111.917969 " fill-opacity="1" fill-rule="nonzero"/><path fill="#5ab334" d="M 64.964844 111.164062 C 65.988281 110.4375 67.582031 109.730469 69.980469 109.726562 C 69.980469 109.726562 66.992188 110.675781 65 111.980469 C 71.558594 115.542969 76.136719 105.96875 76.136719 105.96875 C 66.945312 103.890625 65.269531 109.023438 64.964844 111.164062 " fill-opacity="1" fill-rule="nonzero"/><path fill="#5ab334" d="M 62.242188 114.375 C 61.667969 115.066406 60.691406 115.84375 59.03125 116.285156 C 59.03125 116.285156 60.925781 115.085938 62.074219 113.816406 C 56.882812 112.539062 55.441406 120.011719 55.441406 120.011719 C 62.1875 119.777344 62.421875 115.914062 62.242188 114.375 " fill-opacity="1" fill-rule="nonzero"/><path fill="#5ab334" d="M 65.457031 114.503906 C 66.273438 114.875 67.285156 115.605469 68.160156 117.089844 C 68.160156 117.089844 66.492188 115.582031 64.964844 114.820312 C 65.144531 120.179688 72.703125 119.546875 72.703125 119.546875 C 70.652344 113.097656 66.882812 113.914062 65.457031 114.503906 " fill-opacity="1" fill-rule="nonzero"/><path fill="#94c019" d="M 64.003906 107.648438 C 63.78125 106.777344 63.71875 105.527344 64.328125 103.917969 C 64.328125 103.917969 64.195312 106.164062 64.554688 107.835938 C 68.613281 104.347656 63.394531 98.824219 63.394531 98.824219 C 59.660156 104.460938 62.652344 106.898438 64.003906 107.648438 " fill-opacity="1" fill-rule="nonzero"/><path fill="#498536" d="M 38.90625 116.464844 L 45.402344 127.195312 C 47.601562 127.601562 49.945312 127.917969 52.390625 128.132812 L 42.390625 114.132812 C 42.742188 112.640625 42.332031 110.679688 41.15625 108.917969 C 39.34375 106.207031 36.402344 104.996094 34.585938 106.214844 C 32.773438 107.433594 32.769531 110.621094 34.582031 113.335938 C 35.753906 115.09375 37.398438 116.21875 38.90625 116.464844 " fill-opacity="1" fill-rule="nonzero"/><g clip-path="url(#01dee6c2b0)"><path fill="#498536" d="M 30.175781 125.757812 C 35.523438 129.441406 47.054688 131.988281 60.417969 131.988281 C 73.78125 131.988281 85.3125 129.441406 90.660156 125.757812 C 88.042969 140.21875 75.550781 150.96875 60.417969 150.96875 C 45.289062 150.96875 32.792969 140.21875 30.175781 125.757812 Z M 86.292969 140.839844 C 88.027344 138.664062 89.480469 136.285156 90.628906 133.726562 C 92.171875 130.28125 93.105469 126.636719 93.410156 122.871094 C 93.691406 122.304688 93.839844 121.722656 93.839844 121.128906 C 93.839844 118.832031 91.648438 116.703125 87.914062 114.953125 C 89.921875 116.277344 91.050781 117.765625 91.050781 119.34375 C 91.050781 124.839844 77.335938 129.296875 60.417969 129.296875 C 43.503906 129.296875 29.789062 124.839844 29.789062 119.34375 C 29.789062 117.765625 30.917969 116.277344 32.925781 114.953125 C 29.1875 116.703125 27 118.832031 27 121.128906 C 27 121.722656 27.148438 122.304688 27.429688 122.871094 C 27.734375 126.636719 28.667969 130.28125 30.210938 133.726562 C 31.929688 137.5625 34.335938 141.003906 37.355469 143.945312 C 40.242188 146.757812 43.558594 148.984375 47.148438 150.5625 C 47.695312 150.800781 47.527344 151.617188 46.929688 151.617188 L 46.929688 153.980469 L 73.554688 153.980469 L 73.554688 153.039062 C 97.535156 138.664062 115.195312 114.089844 119.816406 84.238281 C 119.984375 83.160156 120.128906 82.085938 120.257812 81.011719 C 115.828125 104.53125 103.464844 125.890625 86.292969 140.839844 " fill-opacity="1" fill-rule="nonzero"/></g><g fill="#000000" fill-opacity="1"><g transform="translate(160.945305, 142.455633)"><g><path d="M 17.953125 -17.953125 C 21.460938 -17.460938 23.96875 -16.441406 25.46875 -14.890625 C 26.976562 -13.347656 27.734375 -11.488281 27.734375 -9.3125 C 27.734375 -7.488281 27.269531 -5.867188 26.34375 -4.453125 C 25.414062 -3.046875 24.085938 -1.953125 22.359375 -1.171875 C 20.628906 -0.390625 18.582031 0 16.21875 0 C 15.351562 0 14.617188 -0.015625 14.015625 -0.046875 C 11.960938 -0.109375 9.945312 -0.140625 7.96875 -0.140625 C 5.34375 -0.140625 3.359375 -0.09375 2.015625 0 L 2.015625 -0.953125 C 3.171875 -1.023438 4.007812 -1.15625 4.53125 -1.34375 C 5.0625 -1.53125 5.421875 -1.894531 5.609375 -2.4375 C 5.804688 -2.988281 5.90625 -3.875 5.90625 -5.09375 L 5.90625 -28.890625 C 5.90625 -30.097656 5.804688 -30.972656 5.609375 -31.515625 C 5.421875 -32.066406 5.0625 -32.4375 4.53125 -32.625 C 4.007812 -32.820312 3.171875 -32.953125 2.015625 -33.015625 L 2.015625 -33.96875 C 3.359375 -33.875 5.3125 -33.828125 7.875 -33.828125 L 13.046875 -33.875 C 13.660156 -33.90625 14.347656 -33.921875 15.109375 -33.921875 C 18.378906 -33.921875 20.882812 -33.234375 22.625 -31.859375 C 24.363281 -30.484375 25.234375 -28.660156 25.234375 -26.390625 C 25.234375 -24.535156 24.648438 -22.867188 23.484375 -21.390625 C 22.316406 -19.921875 20.472656 -18.804688 17.953125 -18.046875 Z M 13.921875 -33.015625 C 12.921875 -33.015625 12.171875 -32.898438 11.671875 -32.671875 C 11.179688 -32.453125 10.835938 -32.050781 10.640625 -31.46875 C 10.453125 -30.894531 10.359375 -30.035156 10.359375 -28.890625 L 10.359375 -18.046875 L 13.578125 -18.046875 C 16.203125 -18.046875 18.035156 -18.753906 19.078125 -20.171875 C 20.117188 -21.597656 20.640625 -23.492188 20.640625 -25.859375 C 20.640625 -28.265625 20.109375 -30.054688 19.046875 -31.234375 C 17.992188 -32.421875 16.285156 -33.015625 13.921875 -33.015625 Z M 13.96875 -1.109375 C 19.945312 -1.109375 22.9375 -3.90625 22.9375 -9.5 C 22.9375 -12.03125 22.253906 -13.945312 20.890625 -15.25 C 19.535156 -16.5625 17.367188 -17.21875 14.390625 -17.21875 L 10.359375 -17.21875 L 10.359375 -5.09375 C 10.359375 -3.9375 10.453125 -3.085938 10.640625 -2.546875 C 10.835938 -2.003906 11.179688 -1.628906 11.671875 -1.421875 C 12.171875 -1.210938 12.9375 -1.109375 13.96875 -1.109375 Z M 13.96875 -1.109375 "/></g></g></g><g fill="#000000" fill-opacity="1"><g transform="translate(190.837955, 142.455633)"><g><path d="M 6.046875 -5.46875 C 6.878906 -5.46875 7.597656 -5.160156 8.203125 -4.546875 C 8.804688 -3.941406 9.109375 -3.226562 9.109375 -2.40625 C 9.109375 -1.570312 8.804688 -0.847656 8.203125 -0.234375 C 7.597656 0.367188 6.878906 0.671875 6.046875 0.671875 C 5.210938 0.671875 4.488281 0.367188 3.875 -0.234375 C 3.269531 -0.847656 2.96875 -1.570312 2.96875 -2.40625 C 2.96875 -3.226562 3.269531 -3.941406 3.875 -4.546875 C 4.488281 -5.160156 5.210938 -5.46875 6.046875 -5.46875 Z M 6.046875 -5.46875 "/></g></g></g><g fill="#000000" fill-opacity="1"><g transform="translate(202.929367, 142.455633)"><g/></g></g><g fill="#000000" fill-opacity="1"><g transform="translate(214.876831, 142.455633)"><g><path d="M 10.359375 -13.71875 L 10.359375 -5.09375 C 10.359375 -3.875 10.484375 -2.988281 10.734375 -2.4375 C 10.992188 -1.894531 11.441406 -1.53125 12.078125 -1.34375 C 12.722656 -1.15625 13.769531 -1.023438 15.21875 -0.953125 L 15.21875 0 C 13.550781 -0.09375 11.195312 -0.140625 8.15625 -0.140625 C 5.40625 -0.140625 3.359375 -0.09375 2.015625 0 L 2.015625 -0.953125 C 3.171875 -1.023438 4.007812 -1.15625 4.53125 -1.34375 C 5.0625 -1.53125 5.421875 -1.894531 5.609375 -2.4375 C 5.804688 -2.988281 5.90625 -3.875 5.90625 -5.09375 L 5.90625 -28.890625 C 5.90625 -30.097656 5.804688 -30.972656 5.609375 -31.515625 C 5.421875 -32.066406 5.0625 -32.4375 4.53125 -32.625 C 4.007812 -32.820312 3.171875 -32.953125 2.015625 -33.015625 L 2.015625 -33.96875 C 3.359375 -33.875 5.3125 -33.828125 7.875 -33.828125 L 13.046875 -33.875 C 13.660156 -33.90625 14.347656 -33.921875 15.109375 -33.921875 C 18.859375 -33.921875 21.722656 -33.066406 23.703125 -31.359375 C 25.679688 -29.648438 26.671875 -27.351562 26.671875 -24.46875 C 26.671875 -22.707031 26.28125 -21.019531 25.5 -19.40625 C 24.71875 -17.789062 23.390625 -16.4375 21.515625 -15.34375 C 19.648438 -14.257812 17.164062 -13.71875 14.0625 -13.71875 Z M 13.921875 -33.015625 C 12.921875 -33.015625 12.171875 -32.898438 11.671875 -32.671875 C 11.179688 -32.453125 10.835938 -32.050781 10.640625 -31.46875 C 10.453125 -30.894531 10.359375 -30.035156 10.359375 -28.890625 L 10.359375 -14.6875 L 13.578125 -14.6875 C 16.710938 -14.6875 18.878906 -15.523438 20.078125 -17.203125 C 21.273438 -18.878906 21.875 -21.125 21.875 -23.9375 C 21.875 -27.039062 21.257812 -29.328125 20.03125 -30.796875 C 18.800781 -32.273438 16.765625 -33.015625 13.921875 -33.015625 Z M 13.921875 -33.015625 "/></g></g></g><g fill="#000000" fill-opacity="1"><g transform="translate(242.946182, 142.455633)"><g><path d="M 8.921875 -19.625 C 9.722656 -21.644531 10.832031 -23.109375 12.25 -24.015625 C 13.675781 -24.929688 15.285156 -25.390625 17.078125 -25.390625 C 19.316406 -25.390625 21.015625 -24.78125 22.171875 -23.5625 C 22.773438 -22.914062 23.203125 -22.113281 23.453125 -21.15625 C 23.710938 -20.195312 23.84375 -18.90625 23.84375 -17.28125 L 23.84375 -4.46875 C 23.84375 -3.15625 24.113281 -2.25 24.65625 -1.75 C 25.207031 -1.25 26.15625 -1 27.5 -1 L 27.5 0 C 24.550781 -0.125 22.628906 -0.1875 21.734375 -0.1875 C 20.835938 -0.1875 19.046875 -0.125 16.359375 0 L 16.359375 -1 C 17.546875 -1 18.367188 -1.25 18.828125 -1.75 C 19.296875 -2.25 19.53125 -3.15625 19.53125 -4.46875 L 19.53125 -18.328125 C 19.53125 -20.117188 19.273438 -21.484375 18.765625 -22.421875 C 18.253906 -23.367188 17.210938 -23.84375 15.640625 -23.84375 C 14.328125 -23.84375 13.164062 -23.472656 12.15625 -22.734375 C 11.15625 -22.003906 10.363281 -20.972656 9.78125 -19.640625 C 9.207031 -18.316406 8.921875 -16.820312 8.921875 -15.15625 L 8.921875 -4.46875 C 8.921875 -3.15625 9.148438 -2.25 9.609375 -1.75 C 10.078125 -1.25 10.90625 -1 12.09375 -1 L 12.09375 0 C 9.40625 -0.125 7.613281 -0.1875 6.71875 -0.1875 C 5.820312 -0.1875 3.898438 -0.125 0.953125 0 L 0.953125 -1 C 2.296875 -1 3.238281 -1.25 3.78125 -1.75 C 4.332031 -2.25 4.609375 -3.15625 4.609375 -4.46875 L 4.609375 -31.8125 C 4.609375 -33.28125 4.332031 -34.347656 3.78125 -35.015625 C 3.238281 -35.691406 2.296875 -36.03125 0.953125 -36.03125 L 0.953125 -37.046875 C 1.984375 -36.953125 2.976562 -36.90625 3.9375 -36.90625 C 5.945312 -36.90625 7.609375 -37.128906 8.921875 -37.578125 Z M 8.921875 -19.625 "/></g></g></g><g fill="#000000" fill-opacity="1"><g transform="translate(271.159468, 142.455633)"><g><path d="M 7.828125 0.328125 C 5.804688 0.328125 4.304688 -0.171875 3.328125 -1.171875 C 2.359375 -2.179688 1.875 -3.582031 1.875 -5.375 C 1.875 -6.8125 2.265625 -7.992188 3.046875 -8.921875 C 3.828125 -9.847656 4.753906 -10.582031 5.828125 -11.125 C 6.898438 -11.675781 8.316406 -12.253906 10.078125 -12.859375 C 11.867188 -13.460938 13.195312 -14.019531 14.0625 -14.53125 C 14.925781 -15.050781 15.359375 -15.742188 15.359375 -16.609375 L 15.359375 -19.578125 C 15.359375 -21.429688 14.960938 -22.703125 14.171875 -23.390625 C 13.390625 -24.078125 12.296875 -24.421875 10.890625 -24.421875 C 8.648438 -24.421875 7.066406 -23.847656 6.140625 -22.703125 C 6.785156 -22.535156 7.320312 -22.195312 7.75 -21.6875 C 8.175781 -21.175781 8.390625 -20.535156 8.390625 -19.765625 C 8.390625 -18.960938 8.132812 -18.328125 7.625 -17.859375 C 7.113281 -17.398438 6.457031 -17.171875 5.65625 -17.171875 C 4.757812 -17.171875 4.085938 -17.453125 3.640625 -18.015625 C 3.191406 -18.578125 2.96875 -19.257812 2.96875 -20.0625 C 2.96875 -20.820312 3.148438 -21.457031 3.515625 -21.96875 C 3.890625 -22.488281 4.445312 -23.003906 5.1875 -23.515625 C 5.945312 -24.054688 6.921875 -24.503906 8.109375 -24.859375 C 9.296875 -25.210938 10.59375 -25.390625 12 -25.390625 C 14.488281 -25.390625 16.375 -24.796875 17.65625 -23.609375 C 18.457031 -22.867188 18.992188 -21.976562 19.265625 -20.9375 C 19.535156 -19.90625 19.671875 -18.539062 19.671875 -16.84375 L 19.671875 -3.5 C 19.671875 -2.695312 19.78125 -2.117188 20 -1.765625 C 20.226562 -1.421875 20.613281 -1.25 21.15625 -1.25 C 21.539062 -1.25 21.898438 -1.335938 22.234375 -1.515625 C 22.578125 -1.691406 22.941406 -1.9375 23.328125 -2.25 L 23.84375 -1.4375 C 23.007812 -0.800781 22.296875 -0.347656 21.703125 -0.078125 C 21.117188 0.191406 20.378906 0.328125 19.484375 0.328125 C 17.941406 0.328125 16.867188 -0.0507812 16.265625 -0.8125 C 15.660156 -1.582031 15.359375 -2.625 15.359375 -3.9375 C 14.398438 -2.332031 13.296875 -1.21875 12.046875 -0.59375 C 10.796875 0.0195312 9.390625 0.328125 7.828125 0.328125 Z M 9.9375 -1.578125 C 12.039062 -1.578125 13.847656 -2.796875 15.359375 -5.234375 L 15.359375 -14.640625 C 15.066406 -14.191406 14.664062 -13.820312 14.15625 -13.53125 C 13.644531 -13.238281 12.859375 -12.851562 11.796875 -12.375 C 10.585938 -11.863281 9.601562 -11.375 8.84375 -10.90625 C 8.09375 -10.445312 7.445312 -9.816406 6.90625 -9.015625 C 6.363281 -8.222656 6.09375 -7.203125 6.09375 -5.953125 C 6.09375 -4.515625 6.441406 -3.425781 7.140625 -2.6875 C 7.847656 -1.945312 8.78125 -1.578125 9.9375 -1.578125 Z M 9.9375 -1.578125 "/></g></g></g><g fill="#000000" fill-opacity="1"><g transform="translate(295.054397, 142.455633)"><g><path d="M 16.3125 -25.390625 C 17.59375 -25.390625 18.640625 -25.019531 19.453125 -24.28125 C 20.273438 -23.539062 20.6875 -22.644531 20.6875 -21.59375 C 20.6875 -20.757812 20.4375 -20.046875 19.9375 -19.453125 C 19.4375 -18.859375 18.773438 -18.5625 17.953125 -18.5625 C 17.242188 -18.5625 16.640625 -18.785156 16.140625 -19.234375 C 15.648438 -19.679688 15.40625 -20.289062 15.40625 -21.0625 C 15.40625 -22.125 15.945312 -22.988281 17.03125 -23.65625 C 16.8125 -23.976562 16.476562 -24.140625 16.03125 -24.140625 C 14.78125 -24.140625 13.640625 -23.648438 12.609375 -22.671875 C 11.585938 -21.691406 10.789062 -20.5 10.21875 -19.09375 C 9.644531 -17.6875 9.359375 -16.359375 9.359375 -15.109375 L 9.359375 -4.9375 C 9.359375 -3.46875 9.78125 -2.441406 10.625 -1.859375 C 11.476562 -1.285156 12.75 -1 14.4375 -1 L 14.4375 0 L 13.296875 -0.046875 C 10.023438 -0.140625 7.941406 -0.1875 7.046875 -0.1875 C 6.222656 -0.1875 4.335938 -0.125 1.390625 0 L 1.390625 -1 C 2.734375 -1 3.675781 -1.25 4.21875 -1.75 C 4.757812 -2.25 5.03125 -3.15625 5.03125 -4.46875 L 5.03125 -19.484375 C 5.03125 -20.953125 4.757812 -22.019531 4.21875 -22.6875 C 3.675781 -23.363281 2.734375 -23.703125 1.390625 -23.703125 L 1.390625 -24.71875 C 2.410156 -24.613281 3.398438 -24.5625 4.359375 -24.5625 C 6.378906 -24.5625 8.046875 -24.785156 9.359375 -25.234375 L 9.359375 -19.234375 C 9.929688 -20.835938 10.847656 -22.265625 12.109375 -23.515625 C 13.378906 -24.765625 14.78125 -25.390625 16.3125 -25.390625 Z M 16.3125 -25.390625 "/></g></g></g><g fill="#000000" fill-opacity="1"><g transform="translate(316.406291, 142.455633)"><g><path d="M 38.25 -4.46875 C 38.25 -3.15625 38.519531 -2.25 39.0625 -1.75 C 39.601562 -1.25 40.546875 -1 41.890625 -1 L 41.890625 0 C 38.941406 -0.125 37.019531 -0.1875 36.125 -0.1875 C 35.226562 -0.1875 33.441406 -0.125 30.765625 0 L 30.765625 -1 C 31.941406 -1 32.757812 -1.25 33.21875 -1.75 C 33.6875 -2.25 33.921875 -3.15625 33.921875 -4.46875 L 33.921875 -18.328125 C 33.921875 -19.546875 33.847656 -20.53125 33.703125 -21.28125 C 33.566406 -22.03125 33.234375 -22.644531 32.703125 -23.125 C 32.171875 -23.601562 31.363281 -23.84375 30.28125 -23.84375 C 29.0625 -23.84375 27.957031 -23.457031 26.96875 -22.6875 C 25.976562 -21.925781 25.203125 -20.878906 24.640625 -19.546875 C 24.078125 -18.222656 23.796875 -16.757812 23.796875 -15.15625 L 23.796875 -4.46875 C 23.796875 -3.15625 24.066406 -2.25 24.609375 -1.75 C 25.160156 -1.25 26.109375 -1 27.453125 -1 L 27.453125 0 C 24.503906 -0.125 22.582031 -0.1875 21.6875 -0.1875 C 20.789062 -0.1875 19 -0.125 16.3125 0 L 16.3125 -1 C 17.5 -1 18.320312 -1.25 18.78125 -1.75 C 19.25 -2.25 19.484375 -3.15625 19.484375 -4.46875 L 19.484375 -18.328125 C 19.484375 -19.546875 19.410156 -20.53125 19.265625 -21.28125 C 19.117188 -22.03125 18.78125 -22.644531 18.25 -23.125 C 17.726562 -23.601562 16.921875 -23.84375 15.828125 -23.84375 C 14.617188 -23.84375 13.515625 -23.457031 12.515625 -22.6875 C 11.523438 -21.925781 10.75 -20.875 10.1875 -19.53125 C 9.632812 -18.1875 9.359375 -16.710938 9.359375 -15.109375 L 9.359375 -4.46875 C 9.359375 -3.15625 9.585938 -2.25 10.046875 -1.75 C 10.515625 -1.25 11.34375 -1 12.53125 -1 L 12.53125 0 C 9.84375 -0.125 8.050781 -0.1875 7.15625 -0.1875 C 6.257812 -0.1875 4.335938 -0.125 1.390625 0 L 1.390625 -1 C 2.734375 -1 3.675781 -1.25 4.21875 -1.75 C 4.757812 -2.25 5.03125 -3.15625 5.03125 -4.46875 L 5.03125 -19.484375 C 5.03125 -20.953125 4.757812 -22.019531 4.21875 -22.6875 C 3.675781 -23.363281 2.734375 -23.703125 1.390625 -23.703125 L 1.390625 -24.71875 C 2.410156 -24.613281 3.398438 -24.5625 4.359375 -24.5625 C 6.378906 -24.5625 8.046875 -24.785156 9.359375 -25.234375 L 9.359375 -19.578125 C 10.128906 -21.554688 11.21875 -23.019531 12.625 -23.96875 C 14.03125 -24.914062 15.5625 -25.390625 17.21875 -25.390625 C 19.394531 -25.390625 21.0625 -24.78125 22.21875 -23.5625 C 23.019531 -22.726562 23.515625 -21.445312 23.703125 -19.71875 C 24.503906 -21.738281 25.609375 -23.1875 27.015625 -24.0625 C 28.421875 -24.945312 29.972656 -25.390625 31.671875 -25.390625 C 33.847656 -25.390625 35.507812 -24.78125 36.65625 -23.5625 C 37.238281 -22.914062 37.648438 -22.097656 37.890625 -21.109375 C 38.128906 -20.117188 38.25 -18.84375 38.25 -17.28125 Z M 38.25 -4.46875 "/></g></g></g><g fill="#000000" fill-opacity="1"><g transform="translate(359.014108, 142.455633)"><g><path d="M 7.828125 0.328125 C 5.804688 0.328125 4.304688 -0.171875 3.328125 -1.171875 C 2.359375 -2.179688 1.875 -3.582031 1.875 -5.375 C 1.875 -6.8125 2.265625 -7.992188 3.046875 -8.921875 C 3.828125 -9.847656 4.753906 -10.582031 5.828125 -11.125 C 6.898438 -11.675781 8.316406 -12.253906 10.078125 -12.859375 C 11.867188 -13.460938 13.195312 -14.019531 14.0625 -14.53125 C 14.925781 -15.050781 15.359375 -15.742188 15.359375 -16.609375 L 15.359375 -19.578125 C 15.359375 -21.429688 14.960938 -22.703125 14.171875 -23.390625 C 13.390625 -24.078125 12.296875 -24.421875 10.890625 -24.421875 C 8.648438 -24.421875 7.066406 -23.847656 6.140625 -22.703125 C 6.785156 -22.535156 7.320312 -22.195312 7.75 -21.6875 C 8.175781 -21.175781 8.390625 -20.535156 8.390625 -19.765625 C 8.390625 -18.960938 8.132812 -18.328125 7.625 -17.859375 C 7.113281 -17.398438 6.457031 -17.171875 5.65625 -17.171875 C 4.757812 -17.171875 4.085938 -17.453125 3.640625 -18.015625 C 3.191406 -18.578125 2.96875 -19.257812 2.96875 -20.0625 C 2.96875 -20.820312 3.148438 -21.457031 3.515625 -21.96875 C 3.890625 -22.488281 4.445312 -23.003906 5.1875 -23.515625 C 5.945312 -24.054688 6.921875 -24.503906 8.109375 -24.859375 C 9.296875 -25.210938 10.59375 -25.390625 12 -25.390625 C 14.488281 -25.390625 16.375 -24.796875 17.65625 -23.609375 C 18.457031 -22.867188 18.992188 -21.976562 19.265625 -20.9375 C 19.535156 -19.90625 19.671875 -18.539062 19.671875 -16.84375 L 19.671875 -3.5 C 19.671875 -2.695312 19.78125 -2.117188 20 -1.765625 C 20.226562 -1.421875 20.613281 -1.25 21.15625 -1.25 C 21.539062 -1.25 21.898438 -1.335938 22.234375 -1.515625 C 22.578125 -1.691406 22.941406 -1.9375 23.328125 -2.25 L 23.84375 -1.4375 C 23.007812 -0.800781 22.296875 -0.347656 21.703125 -0.078125 C 21.117188 0.191406 20.378906 0.328125 19.484375 0.328125 C 17.941406 0.328125 16.867188 -0.0507812 16.265625 -0.8125 C 15.660156 -1.582031 15.359375 -2.625 15.359375 -3.9375 C 14.398438 -2.332031 13.296875 -1.21875 12.046875 -0.59375 C 10.796875 0.0195312 9.390625 0.328125 7.828125 0.328125 Z M 9.9375 -1.578125 C 12.039062 -1.578125 13.847656 -2.796875 15.359375 -5.234375 L 15.359375 -14.640625 C 15.066406 -14.191406 14.664062 -13.820312 14.15625 -13.53125 C 13.644531 -13.238281 12.859375 -12.851562 11.796875 -12.375 C 10.585938 -11.863281 9.601562 -11.375 8.84375 -10.90625 C 8.09375 -10.445312 7.445312 -9.816406 6.90625 -9.015625 C 6.363281 -8.222656 6.09375 -7.203125 6.09375 -5.953125 C 6.09375 -4.515625 6.441406 -3.425781 7.140625 -2.6875 C 7.847656 -1.945312 8.78125 -1.578125 9.9375 -1.578125 Z M 9.9375 -1.578125 "/></g></g></g><g fill="#000000" fill-opacity="1"><g transform="translate(382.909037, 142.455633)"><g><path d="M 13.390625 -25.390625 C 15.535156 -25.390625 17.390625 -24.875 18.953125 -23.84375 C 20.453125 -22.851562 21.203125 -21.625 21.203125 -20.15625 C 21.203125 -19.320312 20.960938 -18.664062 20.484375 -18.1875 C 20.003906 -17.707031 19.398438 -17.46875 18.671875 -17.46875 C 17.929688 -17.46875 17.304688 -17.679688 16.796875 -18.109375 C 16.285156 -18.546875 16.03125 -19.128906 16.03125 -19.859375 C 16.03125 -20.535156 16.21875 -21.101562 16.59375 -21.5625 C 16.976562 -22.03125 17.460938 -22.34375 18.046875 -22.5 C 17.722656 -23.082031 17.148438 -23.5625 16.328125 -23.9375 C 15.515625 -24.320312 14.644531 -24.515625 13.71875 -24.515625 C 12.539062 -24.515625 11.4375 -24.140625 10.40625 -23.390625 C 9.382812 -22.640625 8.535156 -21.390625 7.859375 -19.640625 C 7.191406 -17.898438 6.859375 -15.609375 6.859375 -12.765625 C 6.859375 -8.796875 7.5 -5.90625 8.78125 -4.09375 C 10.0625 -2.289062 11.722656 -1.390625 13.765625 -1.390625 C 15.140625 -1.390625 16.441406 -1.789062 17.671875 -2.59375 C 18.910156 -3.394531 19.929688 -4.640625 20.734375 -6.328125 L 21.640625 -6 C 21.097656 -4.175781 20.082031 -2.609375 18.59375 -1.296875 C 17.101562 0.015625 15.175781 0.671875 12.8125 0.671875 C 10.832031 0.671875 9.03125 0.160156 7.40625 -0.859375 C 5.789062 -1.890625 4.519531 -3.367188 3.59375 -5.296875 C 2.664062 -7.234375 2.203125 -9.484375 2.203125 -12.046875 C 2.203125 -14.640625 2.671875 -16.941406 3.609375 -18.953125 C 4.554688 -20.972656 5.878906 -22.550781 7.578125 -23.6875 C 9.273438 -24.820312 11.210938 -25.390625 13.390625 -25.390625 Z M 13.390625 -25.390625 "/></g></g></g><g fill="#000000" fill-opacity="1"><g transform="translate(406.228177, 142.455633)"><g><path d="M 20.0625 -24.5625 C 21.46875 -24.5625 22.679688 -24.613281 23.703125 -24.71875 L 23.703125 -23.75 C 23.066406 -23.6875 22.5 -23.398438 22 -22.890625 C 21.5 -22.378906 21.023438 -21.546875 20.578125 -20.390625 L 12.71875 0.234375 L 11.078125 4.421875 C 10.472656 5.984375 9.785156 7.101562 9.015625 7.78125 C 8.535156 8.21875 7.957031 8.53125 7.28125 8.71875 C 6.613281 8.914062 5.945312 9.015625 5.28125 9.015625 C 4.320312 9.015625 3.535156 8.757812 2.921875 8.25 C 2.316406 7.738281 2.015625 7.035156 2.015625 6.140625 C 2.015625 5.367188 2.238281 4.75 2.6875 4.28125 C 3.132812 3.820312 3.757812 3.59375 4.5625 3.59375 C 5.257812 3.59375 5.835938 3.789062 6.296875 4.1875 C 6.765625 4.59375 7 5.148438 7 5.859375 C 7 6.816406 6.566406 7.535156 5.703125 8.015625 C 5.773438 8.046875 5.875 8.0625 6 8.0625 C 7.757812 8.0625 9.117188 6.8125 10.078125 4.3125 L 11.75 -0.046875 L 3.078125 -21.015625 C 2.523438 -22.109375 1.976562 -22.828125 1.4375 -23.171875 C 0.894531 -23.523438 0.351562 -23.703125 -0.1875 -23.703125 L -0.1875 -24.71875 C 1.1875 -24.519531 2.753906 -24.421875 4.515625 -24.421875 C 6.109375 -24.421875 8.1875 -24.519531 10.75 -24.71875 L 10.75 -23.703125 C 9.59375 -23.703125 8.75 -23.601562 8.21875 -23.40625 C 7.695312 -23.21875 7.4375 -22.757812 7.4375 -22.03125 C 7.4375 -21.351562 7.628906 -20.566406 8.015625 -19.671875 L 13.765625 -5.375 L 19.09375 -19.234375 C 19.445312 -20.203125 19.625 -20.941406 19.625 -21.453125 C 19.625 -22.179688 19.332031 -22.722656 18.75 -23.078125 C 18.175781 -23.429688 17.269531 -23.65625 16.03125 -23.75 L 16.03125 -24.71875 C 17.71875 -24.613281 19.0625 -24.5625 20.0625 -24.5625 Z M 20.0625 -24.5625 "/></g></g></g><g fill="#000000" fill-opacity="1"><g transform="translate(430.411, 142.455633)"><g/></g></g><g fill="#000000" fill-opacity="1"><g transform="translate(442.358454, 142.455633)"><g><path d="M 17.953125 -17.953125 C 21.460938 -17.460938 23.96875 -16.441406 25.46875 -14.890625 C 26.976562 -13.347656 27.734375 -11.488281 27.734375 -9.3125 C 27.734375 -7.488281 27.269531 -5.867188 26.34375 -4.453125 C 25.414062 -3.046875 24.085938 -1.953125 22.359375 -1.171875 C 20.628906 -0.390625 18.582031 0 16.21875 0 C 15.351562 0 14.617188 -0.015625 14.015625 -0.046875 C 11.960938 -0.109375 9.945312 -0.140625 7.96875 -0.140625 C 5.34375 -0.140625 3.359375 -0.09375 2.015625 0 L 2.015625 -0.953125 C 3.171875 -1.023438 4.007812 -1.15625 4.53125 -1.34375 C 5.0625 -1.53125 5.421875 -1.894531 5.609375 -2.4375 C 5.804688 -2.988281 5.90625 -3.875 5.90625 -5.09375 L 5.90625 -28.890625 C 5.90625 -30.097656 5.804688 -30.972656 5.609375 -31.515625 C 5.421875 -32.066406 5.0625 -32.4375 4.53125 -32.625 C 4.007812 -32.820312 3.171875 -32.953125 2.015625 -33.015625 L 2.015625 -33.96875 C 3.359375 -33.875 5.3125 -33.828125 7.875 -33.828125 L 13.046875 -33.875 C 13.660156 -33.90625 14.347656 -33.921875 15.109375 -33.921875 C 18.378906 -33.921875 20.882812 -33.234375 22.625 -31.859375 C 24.363281 -30.484375 25.234375 -28.660156 25.234375 -26.390625 C 25.234375 -24.535156 24.648438 -22.867188 23.484375 -21.390625 C 22.316406 -19.921875 20.472656 -18.804688 17.953125 -18.046875 Z M 13.921875 -33.015625 C 12.921875 -33.015625 12.171875 -32.898438 11.671875 -32.671875 C 11.179688 -32.453125 10.835938 -32.050781 10.640625 -31.46875 C 10.453125 -30.894531 10.359375 -30.035156 10.359375 -28.890625 L 10.359375 -18.046875 L 13.578125 -18.046875 C 16.203125 -18.046875 18.035156 -18.753906 19.078125 -20.171875 C 20.117188 -21.597656 20.640625 -23.492188 20.640625 -25.859375 C 20.640625 -28.265625 20.109375 -30.054688 19.046875 -31.234375 C 17.992188 -32.421875 16.285156 -33.015625 13.921875 -33.015625 Z M 13.96875 -1.109375 C 19.945312 -1.109375 22.9375 -3.90625 22.9375 -9.5 C 22.9375 -12.03125 22.253906 -13.945312 20.890625 -15.25 C 19.535156 -16.5625 17.367188 -17.21875 14.390625 -17.21875 L 10.359375 -17.21875 L 10.359375 -5.09375 C 10.359375 -3.9375 10.453125 -3.085938 10.640625 -2.546875 C 10.835938 -2.003906 11.179688 -1.628906 11.671875 -1.421875 C 12.171875 -1.210938 12.9375 -1.109375 13.96875 -1.109375 Z M 13.96875 -1.109375 "/></g></g></g><g fill="#000000" fill-opacity="1"><g transform="translate(472.251104, 142.455633)"><g><path d="M 13.140625 -25.390625 C 16.410156 -25.390625 19.046875 -24.304688 21.046875 -22.140625 C 23.046875 -19.984375 24.046875 -16.710938 24.046875 -12.328125 C 24.046875 -7.953125 23.046875 -4.691406 21.046875 -2.546875 C 19.046875 -0.398438 16.410156 0.671875 13.140625 0.671875 C 9.878906 0.671875 7.25 -0.398438 5.25 -2.546875 C 3.25 -4.691406 2.25 -7.953125 2.25 -12.328125 C 2.25 -16.710938 3.25 -19.984375 5.25 -22.140625 C 7.25 -24.304688 9.878906 -25.390625 13.140625 -25.390625 Z M 13.140625 -24.421875 C 11.222656 -24.421875 9.703125 -23.4375 8.578125 -21.46875 C 7.460938 -19.5 6.90625 -16.453125 6.90625 -12.328125 C 6.90625 -8.203125 7.460938 -5.160156 8.578125 -3.203125 C 9.703125 -1.253906 11.222656 -0.28125 13.140625 -0.28125 C 15.066406 -0.28125 16.585938 -1.253906 17.703125 -3.203125 C 18.828125 -5.160156 19.390625 -8.203125 19.390625 -12.328125 C 19.390625 -16.453125 18.828125 -19.5 17.703125 -21.46875 C 16.585938 -23.4375 15.066406 -24.421875 13.140625 -24.421875 Z M 13.140625 -24.421875 "/></g></g></g><g fill="#000000" fill-opacity="1"><g transform="translate(498.545122, 142.455633)"><g><path d="M 13.140625 -25.390625 C 16.410156 -25.390625 19.046875 -24.304688 21.046875 -22.140625 C 23.046875 -19.984375 24.046875 -16.710938 24.046875 -12.328125 C 24.046875 -7.953125 23.046875 -4.691406 21.046875 -2.546875 C 19.046875 -0.398438 16.410156 0.671875 13.140625 0.671875 C 9.878906 0.671875 7.25 -0.398438 5.25 -2.546875 C 3.25 -4.691406 2.25 -7.953125 2.25 -12.328125 C 2.25 -16.710938 3.25 -19.984375 5.25 -22.140625 C 7.25 -24.304688 9.878906 -25.390625 13.140625 -25.390625 Z M 13.140625 -24.421875 C 11.222656 -24.421875 9.703125 -23.4375 8.578125 -21.46875 C 7.460938 -19.5 6.90625 -16.453125 6.90625 -12.328125 C 6.90625 -8.203125 7.460938 -5.160156 8.578125 -3.203125 C 9.703125 -1.253906 11.222656 -0.28125 13.140625 -0.28125 C 15.066406 -0.28125 16.585938 -1.253906 17.703125 -3.203125 C 18.828125 -5.160156 19.390625 -8.203125 19.390625 -12.328125 C 19.390625 -16.453125 18.828125 -19.5 17.703125 -21.46875 C 16.585938 -23.4375 15.066406 -24.421875 13.140625 -24.421875 Z M 13.140625 -24.421875 "/></g></g></g><g fill="#000000" fill-opacity="1"><g transform="translate(524.839139, 142.455633)"><g><path d="M 22.703125 -3.5 C 23.304688 -2.695312 23.847656 -2.101562 24.328125 -1.71875 C 24.804688 -1.34375 25.382812 -1.101562 26.0625 -1 L 26.0625 0 C 24.132812 -0.125 22.835938 -0.1875 22.171875 -0.1875 C 21.304688 -0.1875 19.53125 -0.125 16.84375 0 L 16.84375 -1 C 17.289062 -1 17.648438 -1.085938 17.921875 -1.265625 C 18.191406 -1.441406 18.328125 -1.660156 18.328125 -1.921875 C 18.328125 -2.171875 18.234375 -2.410156 18.046875 -2.640625 L 12.53125 -10.703125 C 11.976562 -11.503906 11.453125 -12.039062 10.953125 -12.3125 C 10.460938 -12.582031 9.785156 -12.75 8.921875 -12.8125 L 8.921875 -4.46875 C 8.921875 -3.15625 9.148438 -2.25 9.609375 -1.75 C 10.078125 -1.25 10.90625 -1 12.09375 -1 L 12.09375 0 C 9.40625 -0.125 7.628906 -0.1875 6.765625 -0.1875 C 5.835938 -0.1875 3.898438 -0.125 0.953125 0 L 0.953125 -1 C 2.296875 -1 3.238281 -1.25 3.78125 -1.75 C 4.332031 -2.25 4.609375 -3.15625 4.609375 -4.46875 L 4.609375 -31.859375 C 4.609375 -33.328125 4.332031 -34.394531 3.78125 -35.0625 C 3.238281 -35.738281 2.296875 -36.078125 0.953125 -36.078125 L 0.953125 -37.09375 C 1.984375 -37 2.976562 -36.953125 3.9375 -36.953125 C 5.945312 -36.953125 7.609375 -37.175781 8.921875 -37.625 L 8.921875 -13.8125 C 9.847656 -13.945312 10.625 -14.164062 11.25 -14.46875 C 11.875 -14.769531 12.472656 -15.207031 13.046875 -15.78125 L 16.609375 -19.484375 C 17.628906 -20.535156 18.140625 -21.414062 18.140625 -22.125 C 18.140625 -22.664062 17.8125 -23.070312 17.15625 -23.34375 C 16.5 -23.613281 15.644531 -23.75 14.59375 -23.75 L 14.59375 -24.71875 C 16.832031 -24.582031 18.640625 -24.515625 20.015625 -24.515625 C 21.515625 -24.515625 22.90625 -24.582031 24.1875 -24.71875 L 24.1875 -23.75 C 22.613281 -23.625 21.171875 -22.875 19.859375 -21.5 L 14.015625 -15.359375 Z M 22.703125 -3.5 "/></g></g></g><g fill="#000000" fill-opacity="1"><g transform="translate(551.229137, 142.455633)"><g><path d="M 9.984375 -25.390625 C 11.128906 -25.390625 12.148438 -25.210938 13.046875 -24.859375 C 13.941406 -24.503906 14.664062 -24.085938 15.21875 -23.609375 C 15.5625 -23.347656 15.847656 -23.21875 16.078125 -23.21875 C 16.648438 -23.21875 17 -23.921875 17.125 -25.328125 L 18.234375 -25.328125 C 18.109375 -23.765625 18.046875 -21.046875 18.046875 -17.171875 L 16.9375 -17.171875 C 16.582031 -19.285156 15.898438 -21.03125 14.890625 -22.40625 C 13.890625 -23.78125 12.394531 -24.46875 10.40625 -24.46875 C 9.257812 -24.46875 8.316406 -24.140625 7.578125 -23.484375 C 6.847656 -22.828125 6.484375 -21.925781 6.484375 -20.78125 C 6.484375 -19.65625 6.863281 -18.71875 7.625 -17.96875 C 8.394531 -17.21875 9.628906 -16.316406 11.328125 -15.265625 C 11.609375 -15.097656 12.039062 -14.820312 12.625 -14.4375 C 14.09375 -13.476562 15.273438 -12.628906 16.171875 -11.890625 C 17.066406 -11.160156 17.789062 -10.316406 18.34375 -9.359375 C 18.90625 -8.398438 19.1875 -7.296875 19.1875 -6.046875 C 19.1875 -3.929688 18.394531 -2.28125 16.8125 -1.09375 C 15.226562 0.0820312 13.285156 0.671875 10.984375 0.671875 C 9.546875 0.671875 8.285156 0.445312 7.203125 0 C 6.492188 -0.351562 5.835938 -0.785156 5.234375 -1.296875 C 5.097656 -1.421875 4.953125 -1.484375 4.796875 -1.484375 C 4.578125 -1.484375 4.378906 -1.320312 4.203125 -1 C 4.023438 -0.6875 3.890625 -0.242188 3.796875 0.328125 L 2.6875 0.328125 C 2.8125 -1.492188 2.875 -4.691406 2.875 -9.265625 L 3.984375 -9.265625 C 4.335938 -6.253906 4.976562 -4.003906 5.90625 -2.515625 C 6.832031 -1.023438 8.414062 -0.28125 10.65625 -0.28125 C 11.769531 -0.28125 12.757812 -0.648438 13.625 -1.390625 C 14.488281 -2.128906 14.921875 -3.28125 14.921875 -4.84375 C 14.921875 -6.09375 14.492188 -7.148438 13.640625 -8.015625 C 12.796875 -8.878906 11.414062 -9.914062 9.5 -11.125 C 7.9375 -12.125 6.726562 -12.941406 5.875 -13.578125 C 5.03125 -14.222656 4.316406 -15.007812 3.734375 -15.9375 C 3.160156 -16.863281 2.875 -17.945312 2.875 -19.1875 C 2.875 -21.207031 3.546875 -22.742188 4.890625 -23.796875 C 6.234375 -24.859375 7.929688 -25.390625 9.984375 -25.390625 Z M 9.984375 -25.390625 "/></g></g></g><g fill="#000000" fill-opacity="1"><g transform="translate(572.676987, 142.455633)"><g/></g></g><g fill="#000000" fill-opacity="1"><g transform="translate(584.624463, 142.455633)"><g><path d="M 32.203125 -34.640625 C 34.210938 -34.640625 35.878906 -34.054688 37.203125 -32.890625 C 38.535156 -31.722656 39.203125 -30.148438 39.203125 -28.171875 C 39.203125 -26.628906 38.785156 -25.289062 37.953125 -24.15625 C 37.117188 -23.019531 36.015625 -22.117188 34.640625 -21.453125 C 33.429688 -20.867188 31.066406 -20.035156 27.546875 -18.953125 C 29.335938 -18.179688 30.65625 -17.082031 31.5 -15.65625 C 32.34375 -14.238281 32.765625 -12.617188 32.765625 -10.796875 C 32.765625 -8.816406 32.171875 -6.945312 30.984375 -5.1875 C 29.804688 -3.425781 28.113281 -2.007812 25.90625 -0.9375 C 23.695312 0.132812 21.109375 0.671875 18.140625 0.671875 C 15.359375 0.671875 12.773438 0.1875 10.390625 -0.78125 C 8.003906 -1.757812 6.109375 -3.148438 4.703125 -4.953125 C 3.296875 -6.765625 2.59375 -8.875 2.59375 -11.28125 C 2.59375 -13.382812 3.109375 -15.164062 4.140625 -16.625 C 5.179688 -18.082031 6.375 -19.1875 7.71875 -19.9375 C 9.0625 -20.6875 10.3125 -21.207031 11.46875 -21.5 C 9.894531 -22.164062 8.691406 -23.054688 7.859375 -24.171875 C 7.035156 -25.296875 6.625 -26.46875 6.625 -27.6875 C 6.625 -28.738281 6.9375 -29.71875 7.5625 -30.625 C 8.1875 -31.539062 9.113281 -32.28125 10.34375 -32.84375 C 11.570312 -33.40625 13.035156 -33.6875 14.734375 -33.6875 C 16.878906 -33.6875 18.539062 -33.207031 19.71875 -32.25 C 20.289062 -31.769531 20.726562 -31.234375 21.03125 -30.640625 C 21.34375 -30.046875 21.5 -29.476562 21.5 -28.9375 C 21.5 -28.164062 21.222656 -27.546875 20.671875 -27.078125 C 20.128906 -26.617188 19.507812 -26.390625 18.8125 -26.390625 C 18.132812 -26.390625 17.546875 -26.601562 17.046875 -27.03125 C 16.554688 -27.46875 16.3125 -28.054688 16.3125 -28.796875 C 16.3125 -29.492188 16.550781 -30.085938 17.03125 -30.578125 C 17.507812 -31.078125 18.117188 -31.363281 18.859375 -31.4375 C 18.703125 -31.84375 18.296875 -32.195312 17.640625 -32.5 C 16.984375 -32.8125 16.175781 -32.96875 15.21875 -32.96875 C 13.550781 -32.96875 12.203125 -32.460938 11.171875 -31.453125 C 10.148438 -30.441406 9.640625 -29.039062 9.640625 -27.25 C 9.640625 -25.113281 10.457031 -23.289062 12.09375 -21.78125 C 13.207031 -21.976562 14.195312 -22.078125 15.0625 -22.078125 C 15.644531 -22.078125 16.109375 -21.976562 16.453125 -21.78125 C 16.804688 -21.59375 16.984375 -21.320312 16.984375 -20.96875 C 16.984375 -20.675781 16.863281 -20.453125 16.625 -20.296875 C 16.382812 -20.140625 16.054688 -20.0625 15.640625 -20.0625 C 15.128906 -20.0625 14.601562 -20.15625 14.0625 -20.34375 C 13.519531 -20.539062 12.878906 -20.796875 12.140625 -21.109375 C 7.984375 -19.859375 5.90625 -17.238281 5.90625 -13.25 C 5.90625 -11.101562 6.460938 -9.242188 7.578125 -7.671875 C 8.703125 -6.109375 10.238281 -4.914062 12.1875 -4.09375 C 14.132812 -3.28125 16.328125 -2.875 18.765625 -2.875 C 21.035156 -2.875 23.132812 -3.234375 25.0625 -3.953125 C 27 -4.671875 28.535156 -5.691406 29.671875 -7.015625 C 30.804688 -8.347656 31.375 -9.894531 31.375 -11.65625 C 31.375 -12.9375 31.035156 -14.234375 30.359375 -15.546875 C 29.691406 -16.859375 28.414062 -17.882812 26.53125 -18.625 C 24.039062 -17.851562 22.203125 -17.242188 21.015625 -16.796875 C 19.671875 -16.285156 18.628906 -15.703125 17.890625 -15.046875 C 17.160156 -14.390625 16.796875 -13.582031 16.796875 -12.625 C 16.796875 -11.46875 17.265625 -10.535156 18.203125 -9.828125 C 19.148438 -9.128906 20.148438 -8.78125 21.203125 -8.78125 C 21.753906 -8.78125 22.347656 -8.875 22.984375 -9.0625 C 23.617188 -9.257812 23.988281 -9.519531 24.09375 -9.84375 C 23.476562 -9.96875 22.945312 -10.222656 22.5 -10.609375 C 22.050781 -10.992188 21.828125 -11.550781 21.828125 -12.28125 C 21.828125 -13.050781 22.078125 -13.660156 22.578125 -14.109375 C 23.078125 -14.554688 23.707031 -14.78125 24.46875 -14.78125 C 25.238281 -14.78125 25.851562 -14.539062 26.3125 -14.0625 C 26.78125 -13.582031 27.015625 -12.957031 27.015625 -12.1875 C 27.015625 -10.90625 26.421875 -9.894531 25.234375 -9.15625 C 24.054688 -8.425781 22.75 -8.0625 21.3125 -8.0625 C 19.738281 -8.0625 18.351562 -8.53125 17.15625 -9.46875 C 15.957031 -10.414062 15.359375 -11.816406 15.359375 -13.671875 C 15.359375 -15.304688 15.910156 -16.691406 17.015625 -17.828125 C 18.117188 -18.960938 19.773438 -19.914062 21.984375 -20.6875 L 25.390625 -21.6875 C 27.304688 -22.226562 28.898438 -22.707031 30.171875 -23.125 C 31.453125 -23.539062 32.625 -23.988281 33.6875 -24.46875 C 35.21875 -25.175781 36.285156 -25.894531 36.890625 -26.625 C 37.503906 -27.363281 37.8125 -28.179688 37.8125 -29.078125 C 37.8125 -30.421875 37.257812 -31.5625 36.15625 -32.5 C 35.050781 -33.445312 33.75 -33.921875 32.25 -33.921875 C 31.445312 -33.921875 30.96875 -33.78125 30.8125 -33.5 C 31.226562 -33.300781 31.554688 -32.984375 31.796875 -32.546875 C 32.035156 -32.117188 32.15625 -31.695312 32.15625 -31.28125 C 32.15625 -30.613281 31.890625 -30.054688 31.359375 -29.609375 C 30.828125 -29.160156 30.195312 -28.9375 29.46875 -28.9375 C 28.789062 -28.9375 28.195312 -29.144531 27.6875 -29.5625 C 27.175781 -29.976562 26.921875 -30.566406 26.921875 -31.328125 C 26.921875 -32.484375 27.457031 -33.320312 28.53125 -33.84375 C 29.601562 -34.375 30.828125 -34.640625 32.203125 -34.640625 Z M 32.203125 -34.640625 "/></g></g></g><g fill="#000000" fill-opacity="1"><g transform="translate(624.785214, 142.455633)"><g/></g></g><g fill="#000000" fill-opacity="1"><g transform="translate(636.73269, 142.455633)"><g><path d="M 32.15625 -33.015625 C 31.03125 -32.953125 30.195312 -32.78125 29.65625 -32.5 C 29.113281 -32.226562 28.742188 -31.78125 28.546875 -31.15625 C 28.359375 -30.539062 28.265625 -29.625 28.265625 -28.40625 L 28.265625 0.234375 L 27.15625 0.234375 L 7 -30.90625 L 7 -5.5625 C 7 -4.3125 7.101562 -3.382812 7.3125 -2.78125 C 7.519531 -2.175781 7.925781 -1.738281 8.53125 -1.46875 C 9.144531 -1.195312 10.09375 -1.023438 11.375 -0.953125 L 11.375 0 C 10.21875 -0.09375 8.585938 -0.140625 6.484375 -0.140625 C 4.554688 -0.140625 3.066406 -0.09375 2.015625 0 L 2.015625 -0.953125 C 3.128906 -1.023438 3.957031 -1.195312 4.5 -1.46875 C 5.050781 -1.738281 5.421875 -2.1875 5.609375 -2.8125 C 5.804688 -3.4375 5.90625 -4.351562 5.90625 -5.5625 L 5.90625 -28.890625 C 5.90625 -30.097656 5.804688 -30.972656 5.609375 -31.515625 C 5.421875 -32.066406 5.0625 -32.4375 4.53125 -32.625 C 4.007812 -32.820312 3.171875 -32.953125 2.015625 -33.015625 L 2.015625 -33.96875 C 3.066406 -33.875 4.554688 -33.828125 6.484375 -33.828125 C 7.921875 -33.828125 9.164062 -33.875 10.21875 -33.96875 L 27.15625 -7.875 L 27.15625 -28.40625 C 27.15625 -29.65625 27.050781 -30.582031 26.84375 -31.1875 C 26.632812 -31.789062 26.226562 -32.226562 25.625 -32.5 C 25.019531 -32.78125 24.078125 -32.953125 22.796875 -33.015625 L 22.796875 -33.96875 C 23.941406 -33.875 25.570312 -33.828125 27.6875 -33.828125 C 29.601562 -33.828125 31.09375 -33.875 32.15625 -33.96875 Z M 32.15625 -33.015625 "/></g></g></g><g fill="#000000" fill-opacity="1"><g transform="translate(670.607826, 142.455633)"><g><path d="M 13.140625 -25.390625 C 16.410156 -25.390625 19.046875 -24.304688 21.046875 -22.140625 C 23.046875 -19.984375 24.046875 -16.710938 24.046875 -12.328125 C 24.046875 -7.953125 23.046875 -4.691406 21.046875 -2.546875 C 19.046875 -0.398438 16.410156 0.671875 13.140625 0.671875 C 9.878906 0.671875 7.25 -0.398438 5.25 -2.546875 C 3.25 -4.691406 2.25 -7.953125 2.25 -12.328125 C 2.25 -16.710938 3.25 -19.984375 5.25 -22.140625 C 7.25 -24.304688 9.878906 -25.390625 13.140625 -25.390625 Z M 13.140625 -24.421875 C 11.222656 -24.421875 9.703125 -23.4375 8.578125 -21.46875 C 7.460938 -19.5 6.90625 -16.453125 6.90625 -12.328125 C 6.90625 -8.203125 7.460938 -5.160156 8.578125 -3.203125 C 9.703125 -1.253906 11.222656 -0.28125 13.140625 -0.28125 C 15.066406 -0.28125 16.585938 -1.253906 17.703125 -3.203125 C 18.828125 -5.160156 19.390625 -8.203125 19.390625 -12.328125 C 19.390625 -16.453125 18.828125 -19.5 17.703125 -21.46875 C 16.585938 -23.4375 15.066406 -24.421875 13.140625 -24.421875 Z M 13.140625 -24.421875 "/></g></g></g><g fill="#000000" fill-opacity="1"><g transform="translate(696.901866, 142.455633)"><g><path d="M 9.109375 -24.65625 L 16.21875 -24.65625 L 16.21875 -23.703125 L 9.109375 -23.703125 L 9.109375 -5.140625 C 9.109375 -3.691406 9.375 -2.648438 9.90625 -2.015625 C 10.4375 -1.378906 11.195312 -1.0625 12.1875 -1.0625 C 13.175781 -1.0625 14.019531 -1.457031 14.71875 -2.25 C 15.425781 -3.050781 16.019531 -4.363281 16.5 -6.1875 L 17.46875 -5.953125 C 16.664062 -1.535156 14.585938 0.671875 11.234375 0.671875 C 10.140625 0.671875 9.238281 0.539062 8.53125 0.28125 C 7.832031 0.03125 7.210938 -0.363281 6.671875 -0.90625 C 5.960938 -1.613281 5.472656 -2.476562 5.203125 -3.5 C 4.929688 -4.519531 4.796875 -5.894531 4.796875 -7.625 L 4.796875 -23.703125 L 0.1875 -23.703125 L 0.1875 -24.65625 L 4.796875 -24.65625 L 4.796875 -32 C 6.585938 -32.0625 8.023438 -32.285156 9.109375 -32.671875 Z M 9.109375 -24.65625 "/></g></g></g><g fill="#000000" fill-opacity="1"><g transform="translate(713.887447, 142.455633)"><g><path d="M 22.21875 -5.765625 C 21.644531 -4.003906 20.566406 -2.488281 18.984375 -1.21875 C 17.398438 0.0390625 15.488281 0.671875 13.25 0.671875 C 10.976562 0.671875 9.007812 0.148438 7.34375 -0.890625 C 5.675781 -1.929688 4.398438 -3.382812 3.515625 -5.25 C 2.640625 -7.125 2.203125 -9.289062 2.203125 -11.75 C 2.203125 -14.539062 2.648438 -16.957031 3.546875 -19 C 4.441406 -21.050781 5.703125 -22.628906 7.328125 -23.734375 C 8.960938 -24.835938 10.867188 -25.390625 13.046875 -25.390625 C 15.929688 -25.390625 18.148438 -24.515625 19.703125 -22.765625 C 21.253906 -21.023438 22.03125 -18.378906 22.03125 -14.828125 L 7 -14.828125 C 6.90625 -13.929688 6.859375 -12.90625 6.859375 -11.75 C 6.859375 -9.644531 7.203125 -7.804688 7.890625 -6.234375 C 8.578125 -4.671875 9.488281 -3.460938 10.625 -2.609375 C 11.757812 -1.765625 12.953125 -1.34375 14.203125 -1.34375 C 15.734375 -1.34375 17.09375 -1.707031 18.28125 -2.4375 C 19.46875 -3.175781 20.457031 -4.410156 21.25 -6.140625 Z M 12.859375 -24.46875 C 11.359375 -24.46875 10.0625 -23.734375 8.96875 -22.265625 C 7.882812 -20.796875 7.210938 -18.617188 6.953125 -15.734375 L 17.421875 -15.734375 C 17.484375 -18.234375 17.117188 -20.3125 16.328125 -21.96875 C 15.546875 -23.632812 14.390625 -24.46875 12.859375 -24.46875 Z M 12.859375 -24.46875 "/></g></g></g><g fill="#000000" fill-opacity="1"><g transform="translate(738.166228, 142.455633)"><g><path d="M 9.984375 -25.390625 C 11.128906 -25.390625 12.148438 -25.210938 13.046875 -24.859375 C 13.941406 -24.503906 14.664062 -24.085938 15.21875 -23.609375 C 15.5625 -23.347656 15.847656 -23.21875 16.078125 -23.21875 C 16.648438 -23.21875 17 -23.921875 17.125 -25.328125 L 18.234375 -25.328125 C 18.109375 -23.765625 18.046875 -21.046875 18.046875 -17.171875 L 16.9375 -17.171875 C 16.582031 -19.285156 15.898438 -21.03125 14.890625 -22.40625 C 13.890625 -23.78125 12.394531 -24.46875 10.40625 -24.46875 C 9.257812 -24.46875 8.316406 -24.140625 7.578125 -23.484375 C 6.847656 -22.828125 6.484375 -21.925781 6.484375 -20.78125 C 6.484375 -19.65625 6.863281 -18.71875 7.625 -17.96875 C 8.394531 -17.21875 9.628906 -16.316406 11.328125 -15.265625 C 11.609375 -15.097656 12.039062 -14.820312 12.625 -14.4375 C 14.09375 -13.476562 15.273438 -12.628906 16.171875 -11.890625 C 17.066406 -11.160156 17.789062 -10.316406 18.34375 -9.359375 C 18.90625 -8.398438 19.1875 -7.296875 19.1875 -6.046875 C 19.1875 -3.929688 18.394531 -2.28125 16.8125 -1.09375 C 15.226562 0.0820312 13.285156 0.671875 10.984375 0.671875 C 9.546875 0.671875 8.285156 0.445312 7.203125 0 C 6.492188 -0.351562 5.835938 -0.785156 5.234375 -1.296875 C 5.097656 -1.421875 4.953125 -1.484375 4.796875 -1.484375 C 4.578125 -1.484375 4.378906 -1.320312 4.203125 -1 C 4.023438 -0.6875 3.890625 -0.242188 3.796875 0.328125 L 2.6875 0.328125 C 2.8125 -1.492188 2.875 -4.691406 2.875 -9.265625 L 3.984375 -9.265625 C 4.335938 -6.253906 4.976562 -4.003906 5.90625 -2.515625 C 6.832031 -1.023438 8.414062 -0.28125 10.65625 -0.28125 C 11.769531 -0.28125 12.757812 -0.648438 13.625 -1.390625 C 14.488281 -2.128906 14.921875 -3.28125 14.921875 -4.84375 C 14.921875 -6.09375 14.492188 -7.148438 13.640625 -8.015625 C 12.796875 -8.878906 11.414062 -9.914062 9.5 -11.125 C 7.9375 -12.125 6.726562 -12.941406 5.875 -13.578125 C 5.03125 -14.222656 4.316406 -15.007812 3.734375 -15.9375 C 3.160156 -16.863281 2.875 -17.945312 2.875 -19.1875 C 2.875 -21.207031 3.546875 -22.742188 4.890625 -23.796875 C 6.234375 -24.859375 7.929688 -25.390625 9.984375 -25.390625 Z M 9.984375 -25.390625 "/></g></g></g></svg>