<svg xmlns="http://www.w3.org/2000/svg" xmlns:xlink="http://www.w3.org/1999/xlink" width="40" zoomAndPan="magnify" viewBox="0 0 30 30.000001" height="40" preserveAspectRatio="xMidYMid meet" version="1.0"><defs><g/><clipPath id="6716567f7b"><path d="M 6.289062 5.804688 L 23.710938 5.804688 L 23.710938 23.226562 L 6.289062 23.226562 Z M 6.289062 5.804688 " clip-rule="nonzero"/></clipPath></defs><g clip-path="url(#6716567f7b)"><path fill="#ef1720" d="M 6.738281 17.4375 L 8.046875 17.890625 L 7.597656 19.203125 L 8.972656 19.351562 L 8.824219 20.730469 L 10.203125 20.574219 L 10.363281 21.949219 L 11.667969 21.488281 L 12.132812 22.796875 L 13.304688 22.054688 L 14.046875 23.226562 L 15.023438 22.242188 L 16.007812 23.21875 L 16.742188 22.042969 L 17.921875 22.777344 L 18.375 21.46875 L 19.683594 21.917969 L 19.835938 20.542969 L 21.214844 20.691406 L 21.058594 19.316406 L 22.433594 19.152344 L 21.972656 17.847656 L 23.277344 17.382812 L 22.539062 16.210938 L 23.710938 15.46875 L 22.726562 14.492188 L 23.703125 13.507812 L 22.527344 12.773438 L 23.261719 11.597656 L 21.953125 11.140625 L 22.402344 9.832031 L 21.027344 9.679688 L 21.175781 8.300781 L 19.796875 8.460938 L 19.636719 7.082031 L 18.332031 7.542969 L 17.867188 6.238281 L 16.695312 6.976562 L 15.953125 5.804688 L 14.976562 6.789062 L 13.992188 5.8125 L 13.257812 6.988281 L 12.078125 6.253906 L 11.625 7.566406 L 10.316406 7.113281 L 10.164062 8.488281 L 8.785156 8.339844 L 8.941406 9.71875 L 7.566406 9.878906 L 8.027344 11.1875 L 6.722656 11.648438 L 7.460938 12.820312 L 6.289062 13.5625 L 7.273438 14.542969 L 6.296875 15.523438 L 7.472656 16.261719 L 6.738281 17.4375 " fill-opacity="1" fill-rule="nonzero"/></g><g fill="#ffffff" fill-opacity="1"><g transform="translate(9.245775, 16.451617)"><g><path d="M 3.890625 -4 C 3.753906 -3.988281 3.65625 -3.96875 3.59375 -3.9375 C 3.53125 -3.90625 3.484375 -3.847656 3.453125 -3.765625 C 3.429688 -3.691406 3.421875 -3.582031 3.421875 -3.4375 L 3.421875 0.03125 L 3.296875 0.03125 L 0.84375 -3.75 L 0.84375 -0.671875 C 0.84375 -0.523438 0.851562 -0.414062 0.875 -0.34375 C 0.90625 -0.269531 0.957031 -0.210938 1.03125 -0.171875 C 1.101562 -0.140625 1.21875 -0.117188 1.375 -0.109375 L 1.375 0 C 1.238281 -0.0078125 1.039062 -0.015625 0.78125 -0.015625 C 0.550781 -0.015625 0.375 -0.0078125 0.25 0 L 0.25 -0.109375 C 0.382812 -0.117188 0.484375 -0.140625 0.546875 -0.171875 C 0.609375 -0.210938 0.648438 -0.269531 0.671875 -0.34375 C 0.703125 -0.414062 0.71875 -0.523438 0.71875 -0.671875 L 0.71875 -3.5 C 0.71875 -3.644531 0.703125 -3.75 0.671875 -3.8125 C 0.648438 -3.882812 0.609375 -3.929688 0.546875 -3.953125 C 0.484375 -3.972656 0.382812 -3.988281 0.25 -4 L 0.25 -4.109375 C 0.375 -4.097656 0.550781 -4.09375 0.78125 -4.09375 C 0.957031 -4.09375 1.109375 -4.097656 1.234375 -4.109375 L 3.296875 -0.953125 L 3.296875 -3.4375 C 3.296875 -3.59375 3.28125 -3.707031 3.25 -3.78125 C 3.226562 -3.851562 3.179688 -3.90625 3.109375 -3.9375 C 3.035156 -3.96875 2.921875 -3.988281 2.765625 -4 L 2.765625 -4.109375 C 2.898438 -4.097656 3.097656 -4.09375 3.359375 -4.09375 C 3.585938 -4.09375 3.765625 -4.097656 3.890625 -4.109375 Z M 3.890625 -4 "/></g></g></g><g fill="#ffffff" fill-opacity="1"><g transform="translate(13.345165, 16.451617)"><g><path d="M 2.6875 -0.703125 C 2.625 -0.484375 2.492188 -0.296875 2.296875 -0.140625 C 2.109375 0.00390625 1.878906 0.078125 1.609375 0.078125 C 1.328125 0.078125 1.085938 0.015625 0.890625 -0.109375 C 0.691406 -0.234375 0.535156 -0.40625 0.421875 -0.625 C 0.316406 -0.851562 0.265625 -1.117188 0.265625 -1.421875 C 0.265625 -1.765625 0.316406 -2.054688 0.421875 -2.296875 C 0.535156 -2.546875 0.691406 -2.738281 0.890625 -2.875 C 1.085938 -3.007812 1.316406 -3.078125 1.578125 -3.078125 C 1.929688 -3.078125 2.203125 -2.96875 2.390625 -2.75 C 2.578125 -2.539062 2.671875 -2.222656 2.671875 -1.796875 L 0.84375 -1.796875 C 0.832031 -1.691406 0.828125 -1.566406 0.828125 -1.421875 C 0.828125 -1.171875 0.867188 -0.945312 0.953125 -0.75 C 1.035156 -0.5625 1.144531 -0.414062 1.28125 -0.3125 C 1.425781 -0.207031 1.570312 -0.15625 1.71875 -0.15625 C 1.90625 -0.15625 2.066406 -0.203125 2.203125 -0.296875 C 2.347656 -0.390625 2.472656 -0.539062 2.578125 -0.75 Z M 1.5625 -2.96875 C 1.375 -2.96875 1.210938 -2.875 1.078125 -2.6875 C 0.953125 -2.507812 0.875 -2.25 0.84375 -1.90625 L 2.109375 -1.90625 C 2.117188 -2.207031 2.078125 -2.457031 1.984375 -2.65625 C 1.890625 -2.863281 1.75 -2.96875 1.5625 -2.96875 Z M 1.5625 -2.96875 "/></g></g></g><g fill="#ffffff" fill-opacity="1"><g transform="translate(16.283251, 16.451617)"><g><path d="M 4.015625 -2.96875 C 4.179688 -2.96875 4.328125 -2.976562 4.453125 -3 L 4.453125 -2.875 C 4.378906 -2.863281 4.3125 -2.828125 4.25 -2.765625 C 4.1875 -2.703125 4.128906 -2.601562 4.078125 -2.46875 L 3.234375 0.03125 L 3.140625 0.03125 L 2.21875 -2.3125 L 1.390625 0.03125 L 1.296875 0.03125 L 0.34375 -2.546875 C 0.28125 -2.679688 0.222656 -2.769531 0.171875 -2.8125 C 0.117188 -2.851562 0.0625 -2.875 0 -2.875 L 0 -3 C 0.15625 -2.96875 0.328125 -2.953125 0.515625 -2.953125 C 0.703125 -2.953125 0.953125 -2.96875 1.265625 -3 L 1.265625 -2.875 C 1.117188 -2.875 1.015625 -2.859375 0.953125 -2.828125 C 0.890625 -2.804688 0.859375 -2.75 0.859375 -2.65625 C 0.859375 -2.582031 0.878906 -2.492188 0.921875 -2.390625 L 1.5 -0.703125 L 2.34375 -3.015625 L 2.46875 -3.015625 L 3.359375 -0.671875 L 3.90625 -2.328125 C 3.9375 -2.429688 3.953125 -2.519531 3.953125 -2.59375 C 3.953125 -2.6875 3.921875 -2.753906 3.859375 -2.796875 C 3.796875 -2.835938 3.6875 -2.863281 3.53125 -2.875 L 3.53125 -3 C 3.738281 -2.976562 3.898438 -2.96875 4.015625 -2.96875 Z M 4.015625 -2.96875 "/></g></g></g></svg>