<svg xmlns="http://www.w3.org/2000/svg" xmlns:xlink="http://www.w3.org/1999/xlink" width="100" zoomAndPan="magnify" viewBox="0 0 75 74.999997" height="100" preserveAspectRatio="xMidYMid meet" version="1.0"><defs><clipPath id="31577c1f32"><path d="M 0 15.769531 L 74 15.769531 L 74 59.269531 L 0 59.269531 Z M 0 15.769531 " clip-rule="nonzero"/></clipPath></defs><rect x="-7.5" width="90" fill="#ffffff" y="-7.5" height="89.999996" fill-opacity="1"/><rect x="-7.5" width="90" fill="#ffffff" y="-7.5" height="89.999996" fill-opacity="1"/><g clip-path="url(#31577c1f32)"><path fill="#f6bbb7" d="M 9.050781 26.3125 C 13.816406 20.070312 21.640625 19.949219 35.785156 19.777344 C 50.457031 19.601562 60.25 19.480469 65.429688 26.726562 C 69.777344 32.800781 69.8125 42.574219 65.222656 48.414062 C 63.683594 50.371094 60.828125 52.761719 38.066406 54.222656 C 15.363281 55.6875 12.449219 53.660156 10.917969 52.25 C 4.445312 46.285156 3.484375 33.617188 9.050781 26.3125 Z M 6.578125 24.789062 C 10.28125 19.734375 16.324219 18.367188 22.246094 17.855469 C 26.464844 17.492188 30.699219 17.464844 34.929688 17.40625 C 39.519531 17.34375 44.109375 17.25 48.699219 17.421875 C 54.996094 17.664062 62.203125 18.332031 66.90625 23.03125 C 72.40625 28.507812 73.511719 37.753906 71.257812 44.917969 C 70.675781 46.769531 69.828125 48.535156 68.699219 50.113281 C 68.4375 50.464844 68.410156 50.527344 68.023438 50.941406 C 67.367188 51.636719 66.769531 52.023438 65.835938 52.484375 C 61.910156 54.4375 57.136719 54.96875 52.867188 55.53125 C 43.832031 56.714844 34.660156 57.328125 25.546875 57.460938 C 20.984375 57.527344 16.019531 57.695312 11.578125 56.394531 C 10.660156 56.125 10.046875 55.894531 9.242188 55.332031 C 9 55.167969 9.234375 55.347656 8.992188 55.140625 C 8.886719 55.046875 8.785156 54.957031 8.679688 54.863281 C 7.597656 53.851562 6.699219 52.664062 5.941406 51.402344 C 2.09375 45.039062 1.566406 36.53125 4.0625 29.589844 C 4.6875 27.886719 5.53125 26.277344 6.578125 24.789062 C 7.160156 23.972656 5.808594 23.195312 5.238281 24 C 0.691406 30.40625 0 39.3125 2.203125 46.710938 C 3.214844 50.09375 4.917969 53.410156 7.488281 55.875 C 8.03125 56.402344 8.636719 56.855469 9.320312 57.191406 C 12.578125 58.808594 16.667969 58.871094 20.222656 58.984375 C 29.488281 59.269531 38.84375 58.578125 48.058594 57.640625 C 53.699219 57.070312 59.714844 56.550781 65.050781 54.507812 C 67.582031 53.539062 69.328125 52.15625 70.738281 49.84375 C 75 42.859375 74.914062 33.0625 70.996094 25.957031 C 69.421875 23.089844 67.105469 20.703125 64.234375 19.128906 C 61.339844 17.550781 58.089844 16.789062 54.847656 16.367188 C 50.601562 15.804688 46.296875 15.769531 42.027344 15.777344 C 37.070312 15.796875 32.117188 15.839844 27.171875 16.011719 C 20.722656 16.253906 13.375 16.589844 8.144531 20.867188 C 7.027344 21.777344 6.085938 22.847656 5.238281 24.007812 C 4.652344 24.8125 6 25.59375 6.578125 24.789062 Z M 6.578125 24.789062 " fill-opacity="1" fill-rule="nonzero"/></g><path fill="#ffffff" d="M 24.050781 26.527344 C 24.050781 26.769531 24.042969 26.976562 24.027344 27.140625 C 24.027344 27.296875 24.015625 27.417969 24.007812 27.496094 C 24 27.539062 24 27.566406 24 27.582031 L 24 29.390625 C 24 31.816406 23.992188 34.082031 23.972656 36.132812 C 23.957031 38.117188 23.949219 40.375 23.949219 42.839844 C 23.949219 43.316406 23.921875 44.0625 23.863281 45.109375 L 23.800781 47.34375 C 23.800781 48.070312 23.410156 48.484375 22.738281 48.484375 C 22.574219 48.484375 22.339844 48.433594 22.117188 48.171875 C 21.96875 48 21.863281 47.800781 21.820312 47.574219 L 21.734375 47.03125 C 21.675781 46.789062 21.648438 46.667969 21.648438 46.597656 C 19.511719 38.9375 18.371094 34.757812 18.15625 33.816406 C 18.050781 33.40625 17.871094 32.550781 17.609375 31.269531 L 17.609375 39.519531 L 17.722656 47.730469 L 17.386719 48.183594 L 16.339844 48.183594 L 16.140625 47.652344 L 16.160156 47.558594 C 16.183594 47.445312 16.210938 47.167969 16.210938 46.484375 L 16.183594 41.542969 L 16.125 36.601562 L 16.125 30.171875 C 16.105469 29.382812 16.097656 28.484375 16.097656 27.496094 C 16.097656 27.410156 16.089844 27.324219 16.070312 27.246094 L 16.0625 27.210938 L 16.0625 26.890625 C 16.0625 26.464844 16.246094 26.25 16.390625 26.15625 C 16.574219 26.035156 16.824219 25.964844 17.160156 25.964844 C 17.351562 25.964844 17.542969 26.042969 17.75 26.207031 C 17.949219 26.363281 18.070312 26.542969 18.128906 26.742188 L 18.136719 26.769531 L 18.734375 29.554688 C 18.996094 30.871094 19.226562 31.875 19.410156 32.550781 C 19.808594 34.117188 20.472656 36.644531 21.457031 40.289062 C 21.8125 41.820312 22.148438 43.117188 22.460938 44.183594 C 22.460938 42.425781 22.476562 40.832031 22.523438 39.457031 L 22.582031 34.515625 C 22.582031 33.695312 22.589844 32.949219 22.609375 32.292969 L 22.609375 30.109375 L 22.582031 26.042969 L 22.597656 25.992188 C 22.738281 25.59375 23.066406 25.375 23.507812 25.375 C 24.050781 25.367188 24.050781 26.179688 24.050781 26.527344 Z M 34.046875 30.59375 C 34.503906 33.847656 34.730469 36.765625 34.730469 39.265625 L 34.730469 39.355469 C 34.730469 40.296875 34.710938 41.179688 34.667969 41.984375 C 34.632812 42.9375 34.523438 43.957031 34.347656 45.003906 C 34.269531 45.535156 34.148438 46.007812 34.003906 46.40625 C 33.855469 46.804688 33.65625 47.203125 33.421875 47.601562 C 32.964844 48.390625 32.308594 48.789062 31.46875 48.789062 C 28.589844 48.789062 27.191406 44.210938 27.191406 34.785156 L 27.191406 33.648438 C 27.191406 32.050781 27.285156 30.628906 27.476562 29.445312 C 27.585938 28.683594 27.761719 28.050781 27.96875 27.546875 C 28.183594 27.03125 28.488281 26.613281 28.859375 26.292969 C 29.238281 25.914062 29.742188 25.722656 30.328125 25.722656 C 30.828125 25.722656 31.296875 25.828125 31.71875 26.023438 C 32.136719 26.222656 32.488281 26.484375 32.765625 26.804688 C 33.007812 27.105469 33.207031 27.488281 33.390625 27.957031 C 33.5625 28.40625 33.699219 28.839844 33.804688 29.246094 L 33.8125 29.261719 Z M 32.609375 45.59375 C 32.90625 44.285156 33.09375 42.988281 33.171875 41.75 C 33.207031 40.757812 33.226562 39.753906 33.226562 38.78125 L 33.226562 38.671875 L 33.199219 35.832031 C 33.164062 34.835938 33.050781 33.511719 32.863281 31.882812 C 32.714844 30.757812 32.402344 29.589844 31.945312 28.414062 C 31.78125 28 31.554688 27.667969 31.289062 27.4375 C 31.039062 27.21875 30.777344 27.117188 30.492188 27.117188 C 30.277344 27.117188 30.078125 27.226562 29.894531 27.445312 C 29.679688 27.714844 29.5 28.101562 29.359375 28.605469 C 29.03125 29.84375 28.839844 31 28.808594 32.058594 C 28.746094 32.992188 28.71875 33.953125 28.71875 34.914062 L 28.71875 36.308594 C 28.71875 37.554688 28.839844 39.171875 29.082031 41.101562 C 29.230469 42.3125 29.421875 43.378906 29.644531 44.277344 C 29.863281 45.152344 30.15625 45.898438 30.519531 46.492188 C 30.839844 47.046875 31.175781 47.332031 31.546875 47.332031 C 31.617188 47.332031 31.832031 47.332031 32.101562 46.945312 C 32.308594 46.625 32.480469 46.175781 32.609375 45.59375 Z M 44.03125 26.050781 L 40.910156 26.078125 L 38.074219 26.078125 C 37.554688 26.078125 37.167969 26.101562 36.882812 26.164062 C 36.554688 26.214844 36.371094 26.285156 36.257812 26.398438 C 36.136719 26.519531 36.078125 26.699219 36.078125 26.941406 C 36.078125 27.195312 36.199219 27.402344 36.414062 27.53125 C 36.589844 27.644531 36.785156 27.695312 37.003906 27.695312 L 39.917969 27.695312 C 39.925781 28.035156 39.941406 28.785156 39.941406 30.4375 L 39.941406 32.273438 L 39.917969 33.113281 C 39.917969 34.125 39.941406 35.660156 40.003906 37.667969 L 40.0625 42.210938 L 40.0625 47.28125 C 40.0625 47.558594 40.132812 47.792969 40.261719 47.992188 C 40.375 48.15625 40.582031 48.355469 40.960938 48.355469 C 41.195312 48.355469 41.386719 48.257812 41.507812 48.085938 C 41.59375 47.984375 41.652344 47.851562 41.679688 47.695312 C 41.707031 47.566406 41.714844 47.421875 41.714844 47.253906 L 41.714844 47.195312 L 41.6875 45.09375 L 41.6875 28.96875 L 41.664062 27.625 L 44.109375 27.625 C 44.914062 27.625 44.972656 27.046875 44.972656 26.875 C 44.972656 26.605469 44.894531 26.398438 44.730469 26.257812 C 44.578125 26.121094 44.351562 26.050781 44.03125 26.050781 Z M 50.878906 46.667969 L 48.535156 46.667969 L 48.535156 45.941406 C 48.535156 44.261719 48.519531 42.738281 48.476562 41.414062 L 48.421875 37.398438 L 49.824219 37.398438 C 50.066406 37.398438 50.257812 37.328125 50.386719 37.199219 C 50.515625 37.070312 50.578125 36.859375 50.578125 36.585938 C 50.578125 36.132812 50.273438 35.855469 49.789062 35.855469 C 49.324219 35.855469 48.882812 35.875 48.476562 35.902344 L 48.476562 30.207031 C 48.457031 29.496094 48.449219 28.707031 48.449219 27.800781 C 48.449219 27.800781 48.449219 27.789062 48.449219 27.789062 C 48.449219 27.789062 49.355469 27.851562 49.355469 27.851562 L 49.902344 27.851562 C 50.09375 27.824219 50.273438 27.738281 50.4375 27.609375 C 50.628906 27.453125 50.722656 27.238281 50.722656 26.984375 C 50.722656 26.433594 50.402344 26.25 50.195312 26.179688 C 50.03125 26.136719 49.808594 26.113281 49.511719 26.113281 L 47.75 26.113281 C 47.558594 26.113281 47.300781 26.179688 47.101562 26.492188 C 46.972656 26.699219 46.910156 26.941406 46.910156 27.246094 C 46.945312 28.121094 46.972656 29.175781 46.972656 30.386719 L 46.996094 42.132812 L 46.972656 46.339844 C 46.972656 46.539062 46.980469 46.710938 46.996094 46.875 L 46.996094 47.394531 C 46.996094 47.894531 47.28125 48.105469 47.457031 48.191406 C 47.679688 48.304688 48.035156 48.347656 48.542969 48.347656 L 49.738281 48.347656 C 50.488281 48.347656 50.964844 48.304688 51.234375 48.214844 C 51.449219 48.148438 51.71875 47.9375 51.71875 47.359375 C 51.71875 47.203125 51.65625 46.667969 50.878906 46.667969 Z M 59.214844 40.644531 C 59.058594 39.96875 58.867188 39.34375 58.644531 38.800781 C 58.417969 38.261719 58.105469 37.570312 57.707031 36.765625 L 57.421875 36.167969 L 56.429688 34.089844 C 56.117188 33.433594 55.867188 32.714844 55.6875 31.953125 C 55.503906 31.191406 55.410156 30.449219 55.410156 29.738281 C 55.410156 29.296875 55.46875 28.898438 55.589844 28.535156 C 55.71875 28.121094 55.9375 27.757812 56.230469 27.480469 C 56.5 27.21875 56.800781 27.089844 57.15625 27.089844 C 57.25 27.089844 57.363281 27.125 57.492188 27.195312 C 57.726562 27.316406 57.925781 27.375 58.097656 27.375 C 58.347656 27.375 58.597656 27.203125 58.597656 26.820312 C 58.597656 26.371094 58.105469 26.09375 57.949219 26.007812 C 57.578125 25.800781 57.25 25.695312 56.964844 25.695312 C 56.300781 25.695312 55.6875 25.949219 55.148438 26.441406 C 54.683594 26.890625 54.328125 27.4375 54.113281 28.066406 C 53.90625 28.683594 53.792969 29.324219 53.792969 29.980469 C 53.792969 30.992188 53.929688 31.953125 54.207031 32.828125 C 54.398438 33.484375 54.632812 34.101562 54.882812 34.636719 C 55.125 35.15625 55.476562 35.882812 55.972656 36.871094 C 56.195312 37.277344 56.351562 37.589844 56.445312 37.789062 L 56.457031 37.804688 C 56.878906 38.617188 57.226562 39.492188 57.484375 40.410156 C 57.742188 41.328125 57.875 42.246094 57.875 43.136719 C 57.875 43.933594 57.691406 44.859375 57.320312 45.90625 C 57.148438 46.40625 56.90625 46.8125 56.59375 47.117188 C 56.300781 47.402344 56.003906 47.53125 55.667969 47.53125 C 55.566406 47.53125 55.367188 47.5 55.054688 47.34375 L 55.027344 47.332031 C 54.65625 47.1875 54.363281 47.109375 54.113281 47.109375 C 53.722656 47.109375 53.472656 47.367188 53.472656 47.773438 L 53.472656 47.863281 L 53.515625 47.9375 C 53.664062 48.207031 53.886719 48.414062 54.179688 48.5625 C 54.414062 48.667969 54.640625 48.734375 54.847656 48.769531 C 55.046875 48.804688 55.332031 48.8125 55.675781 48.8125 C 56.308594 48.8125 56.90625 48.625 57.433594 48.242188 C 57.949219 47.871094 58.367188 47.386719 58.667969 46.789062 C 59.257812 45.609375 59.558594 44.433594 59.558594 43.28125 C 59.53125 42.433594 59.421875 41.550781 59.214844 40.644531 Z M 59.214844 40.644531 " fill-opacity="1" fill-rule="nonzero"/></svg>